{"glyphs":{"0":{"ha":935,"x_min":28,"x_max":907,"o":"m 467 -14 q 133 102 238 -14 q 28 447 28 218 q 133 792 28 676 q 467 908 238 908 q 802 792 697 908 q 907 447 907 676 q 802 102 907 218 q 467 -14 697 -14 m 467 240 q 571 290 540 240 q 601 447 601 340 q 571 604 601 554 q 467 654 540 654 q 363 604 393 654 q 332 447 332 554 q 363 290 332 340 q 467 240 393 240 z "},"1":{"ha":532,"x_min":28,"x_max":476,"o":"m 178 617 l 28 594 l 28 843 l 476 908 l 476 0 l 178 0 l 178 617 z "},"2":{"ha":733,"x_min":28,"x_max":706,"o":"m 28 133 q 114 253 64 199 q 239 375 164 308 q 336 463 310 438 q 378 514 363 488 q 393 572 393 540 q 281 654 393 654 q 56 604 169 654 l 56 856 q 195 894 115 881 q 358 908 275 908 q 612 831 525 908 q 699 618 699 753 q 669 476 699 531 q 564 354 639 421 q 538 332 536 331 q 477 277 507 306 q 433 228 447 249 l 706 228 l 706 0 l 28 0 l 28 133 z "},"3":{"ha":753,"x_min":28,"x_max":725,"o":"m 333 -14 q 175 1 269 -14 q 28 38 81 15 l 28 268 q 154 228 85 242 q 285 215 224 215 q 388 232 356 215 q 419 290 419 249 q 318 353 419 353 l 161 353 l 179 546 l 310 546 q 382 562 360 546 q 404 613 404 578 q 276 678 404 678 q 150 663 214 678 q 40 625 86 649 l 40 856 q 178 894 99 879 q 335 908 257 908 q 535 874 450 908 q 664 781 619 840 q 708 644 708 721 q 687 532 708 583 q 625 449 665 481 q 725 267 725 400 q 618 56 725 126 q 333 -14 511 -14 z "},"4":{"ha":769,"x_min":0,"x_max":769,"o":"m 393 158 l 0 158 l 0 350 l 435 894 l 692 894 l 692 399 l 769 399 l 769 158 l 692 158 l 692 0 l 393 0 l 393 158 m 447 386 l 447 572 l 288 386 l 447 386 z "},"5":{"ha":735,"x_min":28,"x_max":707,"o":"m 325 -14 q 171 -1 256 -14 q 32 36 86 11 l 32 268 q 153 233 78 247 q 276 218 228 218 q 373 238 343 218 q 403 299 403 257 q 380 356 403 339 q 301 374 357 374 l 28 374 l 28 499 l 51 894 l 654 894 l 635 667 l 307 667 l 301 574 l 386 574 q 627 501 547 574 q 707 288 707 428 q 610 67 707 149 q 325 -14 513 -14 z "},"6":{"ha":828,"x_min":28,"x_max":800,"o":"m 417 -14 q 28 354 28 -14 l 28 517 q 80 718 28 629 q 231 858 132 807 q 464 908 329 908 q 599 899 540 908 q 711 868 657 890 l 711 646 q 610 676 663 667 q 494 686 558 686 q 356 655 406 686 q 306 579 306 624 l 306 563 q 386 592 336 581 q 481 604 436 604 q 723 529 646 604 q 800 306 800 454 q 708 72 800 158 q 417 -14 615 -14 m 418 193 q 535 294 535 193 q 508 372 535 346 q 421 397 482 397 q 306 364 369 397 l 306 308 q 333 220 306 247 q 418 193 361 193 z "},"7":{"ha":696,"x_min":14,"x_max":682,"o":"m 344 667 l 14 667 l 14 894 l 682 894 l 682 726 l 374 0 l 63 0 l 344 667 z "},"8":{"ha":860,"x_min":28,"x_max":832,"o":"m 428 -14 q 125 56 222 -14 q 28 265 28 125 q 56 381 28 326 q 131 463 83 435 q 70 537 92 493 q 49 629 49 581 q 140 835 49 763 q 428 908 232 908 q 810 629 810 908 q 788 533 810 581 q 728 457 767 486 q 805 377 778 426 q 832 265 832 328 q 734 56 832 125 q 428 -14 636 -14 m 461 536 q 512 569 497 550 q 526 622 526 589 q 428 699 526 699 q 332 622 332 699 q 390 550 332 563 l 461 536 m 428 194 q 549 272 549 194 q 530 324 549 306 q 469 350 511 342 l 382 368 q 310 282 310 350 q 338 216 310 238 q 428 194 367 194 z "},"9":{"ha":828,"x_min":28,"x_max":800,"o":"m 364 -14 q 226 -6 282 -14 q 118 22 171 1 l 118 244 q 217 215 167 224 q 333 207 268 207 q 474 238 425 207 q 522 314 522 269 l 522 331 q 442 301 492 313 q 347 289 392 289 q 106 365 183 289 q 28 588 28 440 q 120 822 28 735 q 411 908 213 908 q 706 817 613 908 q 800 540 800 725 l 800 378 q 748 176 800 265 q 597 37 696 88 q 364 -14 499 -14 m 406 496 q 522 531 460 496 l 522 585 q 495 673 522 646 q 408 700 468 700 q 293 599 293 700 q 319 522 293 547 q 406 496 346 496 z "},"\r":{"ha":556,"x_min":0,"x_max":0,"o":""}," ":{"ha":444,"x_min":0,"x_max":0,"o":""},"A":{"ha":1056,"x_min":28,"x_max":1028,"o":"m 371 894 l 683 894 l 1028 0 l 717 0 l 647 178 l 407 178 l 339 0 l 28 0 l 371 894 m 611 386 l 526 603 l 443 386 l 611 386 z "},"Á":{"ha":1056,"x_min":28,"x_max":1028,"o":"m 540 1256 l 771 1256 l 631 956 l 413 956 l 540 1256 m 371 894 l 683 894 l 1028 0 l 717 0 l 647 178 l 407 178 l 339 0 l 28 0 l 371 894 m 611 386 l 526 603 l 443 386 l 611 386 z "},"Ă":{"ha":1056,"x_min":28,"x_max":1028,"o":"m 525 956 q 318 1030 394 956 q 242 1239 242 1104 l 433 1239 q 455 1152 433 1185 q 525 1119 476 1119 q 618 1239 618 1119 l 811 1239 q 734 1030 811 1104 q 525 956 657 956 m 371 894 l 683 894 l 1028 0 l 717 0 l 647 178 l 407 178 l 339 0 l 28 0 l 371 894 m 611 386 l 526 603 l 443 386 l 611 386 z "},"Ắ":{"ha":1056,"x_min":28,"x_max":1028,"o":"m 531 1444 l 726 1444 l 615 1239 l 438 1239 l 531 1444 m 528 956 q 335 1017 406 956 q 264 1206 264 1079 l 431 1206 q 455 1128 431 1157 q 528 1100 479 1100 q 601 1128 576 1100 q 626 1206 626 1157 l 792 1206 q 722 1017 792 1079 q 528 956 651 956 m 371 894 l 683 894 l 1028 0 l 717 0 l 647 178 l 407 178 l 339 0 l 28 0 l 371 894 m 611 386 l 526 603 l 443 386 l 611 386 z "},"Ặ":{"ha":1056,"x_min":28,"x_max":1028,"o":"m 526 956 q 319 1030 396 956 q 243 1239 243 1104 l 435 1239 q 456 1152 435 1185 q 526 1119 478 1119 q 619 1239 619 1119 l 813 1239 q 735 1030 813 1104 q 526 956 658 956 m 371 894 l 683 894 l 1028 0 l 717 0 l 647 178 l 407 178 l 339 0 l 28 0 l 371 894 m 611 386 l 526 603 l 443 386 l 611 386 m 428 -64 l 626 -64 l 626 -244 l 428 -244 l 428 -64 z "},"Ằ":{"ha":1056,"x_min":28,"x_max":1028,"o":"m 328 1444 l 524 1444 l 617 1239 l 439 1239 l 328 1444 m 526 956 q 333 1017 403 956 q 263 1206 263 1079 l 428 1206 q 453 1128 428 1157 q 526 1100 478 1100 q 599 1128 575 1100 q 624 1206 624 1157 l 790 1206 q 719 1017 790 1079 q 526 956 649 956 m 371 894 l 683 894 l 1028 0 l 717 0 l 647 178 l 407 178 l 339 0 l 28 0 l 371 894 m 611 386 l 526 603 l 443 386 l 611 386 z "},"Ẳ":{"ha":1056,"x_min":28,"x_max":1028,"o":"m 433 1310 q 533 1356 533 1314 q 519 1383 533 1375 q 472 1390 504 1390 q 407 1376 440 1390 l 407 1476 q 473 1490 433 1485 q 551 1494 513 1494 q 672 1460 628 1494 q 715 1375 715 1426 q 692 1303 715 1329 q 618 1264 669 1278 l 618 1225 l 433 1225 l 433 1310 m 526 956 q 333 1017 403 956 q 263 1206 263 1079 l 428 1206 q 453 1128 428 1157 q 526 1100 478 1100 q 599 1128 575 1100 q 624 1206 624 1157 l 790 1206 q 719 1017 790 1079 q 526 956 649 956 m 371 894 l 683 894 l 1028 0 l 717 0 l 647 178 l 407 178 l 339 0 l 28 0 l 371 894 m 611 386 l 526 603 l 443 386 l 611 386 z "},"Ẵ":{"ha":1056,"x_min":28,"x_max":1028,"o":"m 657 1235 q 597 1242 626 1235 q 525 1265 568 1250 q 463 1285 489 1278 q 413 1292 438 1292 q 281 1239 331 1292 l 281 1385 q 335 1417 300 1404 q 408 1429 369 1429 q 466 1422 439 1429 q 536 1400 493 1415 q 599 1379 572 1386 q 653 1372 626 1372 q 727 1387 694 1372 q 776 1426 760 1401 l 776 1279 q 729 1248 763 1261 q 657 1235 696 1235 m 526 956 q 333 1017 403 956 q 263 1206 263 1079 l 428 1206 q 453 1128 428 1157 q 526 1100 478 1100 q 599 1128 575 1100 q 624 1206 624 1157 l 790 1206 q 719 1017 790 1079 q 526 956 649 956 m 371 894 l 683 894 l 1028 0 l 717 0 l 647 178 l 407 178 l 339 0 l 28 0 l 371 894 m 611 386 l 526 603 l 443 386 l 611 386 z "},"Ǎ":{"ha":1056,"x_min":28,"x_max":1028,"o":"m 210 1244 l 426 1244 l 528 1094 l 633 1244 l 844 1244 l 615 956 l 439 956 l 210 1244 m 371 894 l 683 894 l 1028 0 l 717 0 l 647 178 l 407 178 l 339 0 l 28 0 l 371 894 m 611 386 l 526 603 l 443 386 l 611 386 z "},"Â":{"ha":1056,"x_min":28,"x_max":1028,"o":"m 439 1244 l 615 1244 l 844 956 l 633 956 l 528 1106 l 426 956 l 210 956 l 439 1244 m 371 894 l 683 894 l 1028 0 l 717 0 l 647 178 l 407 178 l 339 0 l 28 0 l 371 894 m 611 386 l 526 603 l 443 386 l 611 386 z "},"Ấ":{"ha":1056,"x_min":28,"x_max":1028,"o":"m 807 1361 l 1025 1361 l 914 1133 l 706 1133 l 807 1361 m 413 1178 l 629 1178 l 838 956 l 603 956 l 521 1063 l 442 956 l 204 956 l 413 1178 m 371 894 l 683 894 l 1028 0 l 717 0 l 647 178 l 407 178 l 339 0 l 28 0 l 371 894 m 611 386 l 526 603 l 443 386 l 611 386 z "},"Ậ":{"ha":1056,"x_min":28,"x_max":1028,"o":"m 440 1244 l 617 1244 l 846 956 l 635 956 l 529 1106 l 428 956 l 211 956 l 440 1244 m 371 894 l 683 894 l 1028 0 l 717 0 l 647 178 l 407 178 l 339 0 l 28 0 l 371 894 m 611 386 l 526 603 l 443 386 l 611 386 m 428 -64 l 626 -64 l 626 -244 l 428 -244 l 428 -64 z "},"Ầ":{"ha":1056,"x_min":25,"x_max":1028,"o":"m 25 1361 l 244 1361 l 346 1133 l 138 1133 l 25 1361 m 421 1178 l 639 1178 l 847 956 l 610 956 l 529 1063 l 447 956 l 213 956 l 421 1178 m 371 894 l 683 894 l 1028 0 l 717 0 l 647 178 l 407 178 l 339 0 l 28 0 l 371 894 m 611 386 l 526 603 l 443 386 l 611 386 z "},"Ẩ":{"ha":1056,"x_min":28,"x_max":1028,"o":"m 724 1208 q 798 1219 778 1210 q 818 1246 818 1229 q 805 1265 818 1260 q 765 1271 792 1271 q 696 1260 735 1271 l 696 1374 q 846 1390 758 1390 q 974 1356 929 1390 q 1018 1267 1018 1322 q 919 1146 1018 1164 l 919 1101 l 724 1101 l 724 1208 m 415 1178 l 633 1178 l 842 956 l 607 956 l 525 1063 l 444 956 l 207 956 l 415 1178 m 371 894 l 683 894 l 1028 0 l 717 0 l 647 178 l 407 178 l 339 0 l 28 0 l 371 894 m 611 386 l 526 603 l 443 386 l 611 386 z "},"Ẫ":{"ha":1056,"x_min":28,"x_max":1028,"o":"m 656 1192 q 596 1199 625 1192 q 524 1222 567 1207 q 462 1242 488 1235 q 411 1249 436 1249 q 279 1196 329 1249 l 279 1342 q 333 1374 299 1361 q 407 1386 368 1386 q 465 1379 438 1386 q 535 1357 492 1372 q 598 1336 571 1343 q 651 1329 625 1329 q 726 1344 693 1329 q 775 1383 758 1358 l 775 1236 q 728 1205 761 1218 q 656 1192 694 1192 m 418 1178 l 636 1178 l 844 956 l 610 956 l 528 1063 l 447 956 l 210 956 l 418 1178 m 371 894 l 683 894 l 1028 0 l 717 0 l 647 178 l 407 178 l 339 0 l 28 0 l 371 894 m 611 386 l 526 603 l 443 386 l 611 386 z "},"Ä":{"ha":1056,"x_min":28,"x_max":1028,"o":"m 271 1175 l 471 1175 l 471 993 l 271 993 l 271 1175 m 585 1175 l 783 1175 l 783 993 l 585 993 l 585 1175 m 371 894 l 683 894 l 1028 0 l 717 0 l 647 178 l 407 178 l 339 0 l 28 0 l 371 894 m 611 386 l 526 603 l 443 386 l 611 386 z "},"Ạ":{"ha":1056,"x_min":28,"x_max":1028,"o":"m 371 894 l 683 894 l 1028 0 l 717 0 l 647 178 l 407 178 l 339 0 l 28 0 l 371 894 m 611 386 l 526 603 l 443 386 l 611 386 m 428 -64 l 626 -64 l 626 -244 l 428 -244 l 428 -64 z "},"À":{"ha":1056,"x_min":28,"x_max":1028,"o":"m 274 1256 l 506 1256 l 633 956 l 414 956 l 274 1256 m 371 894 l 683 894 l 1028 0 l 717 0 l 647 178 l 407 178 l 339 0 l 28 0 l 371 894 m 611 386 l 526 603 l 443 386 l 611 386 z "},"Ả":{"ha":1056,"x_min":28,"x_max":1028,"o":"m 418 1068 q 512 1086 485 1072 q 539 1125 539 1100 q 463 1168 539 1168 q 382 1156 422 1168 l 382 1275 q 553 1294 447 1294 q 702 1254 649 1294 q 756 1150 756 1214 q 728 1058 756 1090 q 640 1008 701 1026 l 640 956 l 418 956 l 418 1068 m 371 894 l 683 894 l 1028 0 l 717 0 l 647 178 l 407 178 l 339 0 l 28 0 l 371 894 m 611 386 l 526 603 l 443 386 l 611 386 z "},"Ā":{"ha":1056,"x_min":28,"x_max":1028,"o":"m 292 1146 l 763 1146 l 763 971 l 292 971 l 292 1146 m 371 894 l 683 894 l 1028 0 l 717 0 l 647 178 l 407 178 l 339 0 l 28 0 l 371 894 m 611 386 l 526 603 l 443 386 l 611 386 z "},"Ą":{"ha":1056,"x_min":28,"x_max":1028,"o":"m 863 -115 q 925 -164 863 -164 q 963 -160 943 -164 q 994 -149 982 -156 l 994 -282 q 927 -299 969 -292 q 840 -306 885 -306 q 698 -271 750 -306 q 646 -167 646 -236 q 674 -72 646 -115 q 750 0 703 -29 l 717 0 l 647 178 l 407 178 l 339 0 l 28 0 l 371 894 l 683 894 l 1028 0 l 936 0 q 863 -115 863 -57 m 611 386 l 526 603 l 443 386 l 611 386 z "},"Å":{"ha":1056,"x_min":28,"x_max":1028,"o":"m 1028 0 l 717 0 l 647 178 l 407 178 l 339 0 l 28 0 l 367 883 q 324 1008 324 935 q 378 1147 324 1093 q 526 1200 432 1200 q 676 1147 622 1200 q 731 1008 731 1093 q 688 883 731 935 l 1028 0 m 526 1082 q 470 1060 490 1082 q 450 1008 450 1039 q 470 957 450 978 q 526 936 490 936 q 583 957 563 936 q 603 1008 603 978 q 583 1060 603 1039 q 526 1082 563 1082 m 611 386 l 526 603 l 443 386 l 611 386 z "},"Ǻ":{"ha":1056,"x_min":28,"x_max":1028,"o":"m 624 1240 l 406 1240 l 533 1494 l 764 1494 l 624 1240 m 1028 0 l 717 0 l 647 178 l 407 178 l 339 0 l 28 0 l 367 883 q 324 1008 324 935 q 378 1147 324 1093 q 526 1200 432 1200 q 676 1147 622 1200 q 731 1008 731 1093 q 688 883 731 935 l 1028 0 m 526 1082 q 470 1060 490 1082 q 450 1008 450 1039 q 470 957 450 978 q 526 936 490 936 q 583 957 563 936 q 603 1008 603 978 q 583 1060 603 1039 q 526 1082 563 1082 m 611 386 l 526 603 l 443 386 l 611 386 z "},"Ã":{"ha":1056,"x_min":28,"x_max":1028,"o":"m 667 961 q 602 969 633 961 q 522 993 571 976 q 453 1014 479 1007 q 401 1021 428 1021 q 261 965 317 1021 l 261 1144 q 319 1178 282 1164 q 397 1192 357 1192 q 460 1184 431 1192 q 533 1161 490 1176 q 603 1139 575 1146 q 663 1132 632 1132 q 741 1148 707 1132 q 793 1189 775 1164 l 793 1008 q 744 975 779 989 q 667 961 708 961 m 371 894 l 683 894 l 1028 0 l 717 0 l 647 178 l 407 178 l 339 0 l 28 0 l 371 894 m 611 386 l 526 603 l 443 386 l 611 386 z "},"Æ":{"ha":1203,"x_min":28,"x_max":1175,"o":"m 371 894 l 1175 894 l 1175 674 l 849 674 l 849 560 l 1124 560 l 1124 333 l 849 333 l 849 221 l 1175 221 l 1175 0 l 560 0 l 560 179 l 410 179 l 340 0 l 28 0 l 371 894 m 560 394 l 560 674 l 551 674 l 453 394 l 560 394 z "},"Ǽ":{"ha":1203,"x_min":28,"x_max":1175,"o":"m 700 1256 l 931 1256 l 790 956 l 572 956 l 700 1256 m 371 894 l 1175 894 l 1175 674 l 849 674 l 849 560 l 1124 560 l 1124 333 l 849 333 l 849 221 l 1175 221 l 1175 0 l 560 0 l 560 179 l 410 179 l 340 0 l 28 0 l 371 894 m 560 394 l 560 674 l 551 674 l 453 394 l 560 394 z "},"B":{"ha":908,"x_min":56,"x_max":881,"o":"m 56 894 l 567 894 q 776 829 703 894 q 850 644 850 764 q 826 530 850 578 q 761 454 803 482 q 851 386 821 428 q 881 268 881 344 q 800 71 881 142 q 575 0 719 0 l 56 0 l 56 894 m 486 544 q 567 617 567 544 q 482 689 567 689 l 339 689 l 339 544 l 486 544 m 492 204 q 556 223 535 204 q 576 282 576 242 q 489 354 576 354 l 339 354 l 339 204 l 492 204 z "},"C":{"ha":850,"x_min":28,"x_max":822,"o":"m 544 -14 q 160 103 292 -14 q 28 444 28 221 q 158 790 28 672 q 542 908 288 908 q 689 897 624 908 q 819 860 754 885 l 819 600 q 563 656 694 656 q 390 606 447 656 q 332 444 332 556 q 391 288 332 336 q 565 239 450 239 q 822 293 700 239 l 822 32 q 692 -3 758 8 q 544 -14 625 -14 z "},"Ć":{"ha":850,"x_min":28,"x_max":822,"o":"m 535 1256 l 765 1256 l 625 956 l 407 956 l 535 1256 m 544 -14 q 160 103 292 -14 q 28 444 28 221 q 158 790 28 672 q 542 908 288 908 q 689 897 624 908 q 819 860 754 885 l 819 600 q 563 656 694 656 q 390 606 447 656 q 332 444 332 556 q 391 288 332 336 q 565 239 450 239 q 822 293 700 239 l 822 32 q 692 -3 758 8 q 544 -14 625 -14 z "},"Č":{"ha":850,"x_min":28,"x_max":836,"o":"m 201 1243 l 418 1243 l 519 1093 l 625 1243 l 836 1243 l 607 954 l 431 954 l 201 1243 m 544 -14 q 160 103 292 -14 q 28 444 28 221 q 158 790 28 672 q 542 908 288 908 q 689 897 624 908 q 819 860 754 885 l 819 600 q 563 656 694 656 q 390 606 447 656 q 332 444 332 556 q 391 288 332 336 q 565 239 450 239 q 822 293 700 239 l 822 32 q 692 -3 758 8 q 544 -14 625 -14 z "},"Ç":{"ha":850,"x_min":28,"x_max":822,"o":"m 822 32 q 606 -12 718 -6 l 590 -54 q 703 -91 664 -54 q 743 -186 743 -128 q 685 -294 743 -256 q 513 -333 626 -333 q 448 -330 486 -333 q 394 -322 410 -326 l 394 -218 q 476 -229 435 -229 q 549 -217 525 -229 q 572 -181 572 -206 q 556 -149 572 -157 q 510 -140 540 -140 l 414 -140 l 451 -10 q 135 127 243 11 q 28 444 28 243 q 158 790 28 672 q 542 908 288 908 q 689 897 624 908 q 819 860 754 885 l 819 600 q 563 656 694 656 q 390 606 447 656 q 332 444 332 556 q 391 288 332 336 q 565 239 450 239 q 822 293 700 239 l 822 32 z "},"Ĉ":{"ha":850,"x_min":28,"x_max":822,"o":"m 393 1243 l 569 1243 l 799 954 l 588 954 l 482 1104 l 381 954 l 164 954 l 393 1243 m 544 -14 q 160 103 292 -14 q 28 444 28 221 q 158 790 28 672 q 542 908 288 908 q 689 897 624 908 q 819 860 754 885 l 819 600 q 563 656 694 656 q 390 606 447 656 q 332 444 332 556 q 391 288 332 336 q 565 239 450 239 q 822 293 700 239 l 822 32 q 692 -3 758 8 q 544 -14 625 -14 z "},"Ċ":{"ha":850,"x_min":28,"x_max":822,"o":"m 406 1176 l 604 1176 l 604 994 l 406 994 l 406 1176 m 544 -14 q 160 103 292 -14 q 28 444 28 221 q 158 790 28 672 q 542 908 288 908 q 689 897 624 908 q 819 860 754 885 l 819 600 q 563 656 694 656 q 390 606 447 656 q 332 444 332 556 q 391 288 332 336 q 565 239 450 239 q 822 293 700 239 l 822 32 q 692 -3 758 8 q 544 -14 625 -14 z "},"D":{"ha":944,"x_min":56,"x_max":917,"o":"m 56 894 l 468 894 q 801 786 686 894 q 917 442 917 678 q 468 0 917 0 l 56 0 l 56 894 m 432 228 q 532 245 493 228 q 592 309 571 263 q 613 442 613 356 q 593 574 613 528 q 535 639 574 621 q 432 657 497 657 l 354 657 l 354 228 l 432 228 z "},"Ð":{"ha":1003,"x_min":0,"x_max":975,"o":"m 113 339 l 0 339 l 0 536 l 113 536 l 113 894 l 525 894 q 859 786 743 894 q 975 442 975 678 q 525 0 975 0 l 113 0 l 113 339 m 489 228 q 590 245 550 228 q 650 309 629 263 q 671 442 671 356 q 651 575 671 528 q 593 640 632 622 q 489 657 554 657 l 411 657 l 411 536 l 525 536 l 525 339 l 411 339 l 411 228 l 489 228 z "},"Ď":{"ha":944,"x_min":56,"x_max":917,"o":"m 100 1243 l 317 1243 l 418 1093 l 524 1243 l 735 1243 l 506 954 l 329 954 l 100 1243 m 56 894 l 468 894 q 801 786 686 894 q 917 442 917 678 q 468 0 917 0 l 56 0 l 56 894 m 432 228 q 532 245 493 228 q 592 309 571 263 q 613 442 613 356 q 593 574 613 528 q 535 639 574 621 q 432 657 497 657 l 354 657 l 354 228 l 432 228 z "},"Đ":{"ha":989,"x_min":-14,"x_max":961,"o":"m 99 339 l -14 339 l -14 536 l 99 536 l 99 894 l 511 894 q 845 786 729 894 q 961 442 961 678 q 511 0 961 0 l 99 0 l 99 339 m 475 228 q 576 245 536 228 q 636 309 615 263 q 657 442 657 356 q 638 575 657 528 q 579 640 618 622 q 475 657 540 657 l 397 657 l 397 536 l 511 536 l 511 339 l 397 339 l 397 228 l 475 228 z "},"Ḍ":{"ha":944,"x_min":56,"x_max":917,"o":"m 56 894 l 468 894 q 801 786 686 894 q 917 442 917 678 q 468 0 917 0 l 56 0 l 56 894 m 432 228 q 532 245 493 228 q 592 309 571 263 q 613 442 613 356 q 593 574 613 528 q 535 639 574 621 q 432 657 497 657 l 354 657 l 354 228 l 432 228 m 308 -104 l 507 -104 l 507 -285 l 308 -285 l 308 -104 z "},"Ḏ":{"ha":944,"x_min":56,"x_max":917,"o":"m 56 894 l 468 894 q 801 786 686 894 q 917 442 917 678 q 468 0 917 0 l 56 0 l 56 894 m 432 228 q 532 245 493 228 q 592 309 571 263 q 613 442 613 356 q 593 574 613 528 q 535 639 574 621 q 432 657 497 657 l 354 657 l 354 228 l 432 228 m 176 -69 l 647 -69 l 647 -244 l 176 -244 l 176 -69 z "},"E":{"ha":772,"x_min":56,"x_max":751,"o":"m 56 894 l 751 894 l 751 674 l 354 674 l 354 560 l 700 560 l 700 333 l 354 333 l 354 221 l 751 221 l 751 0 l 56 0 l 56 894 z "},"É":{"ha":772,"x_min":56,"x_max":751,"o":"m 390 1256 l 621 1256 l 481 956 l 263 956 l 390 1256 m 56 894 l 751 894 l 751 674 l 354 674 l 354 560 l 700 560 l 700 333 l 354 333 l 354 221 l 751 221 l 751 0 l 56 0 l 56 894 z "},"Ĕ":{"ha":772,"x_min":56,"x_max":751,"o":"m 406 956 q 199 1030 275 956 q 122 1239 122 1104 l 314 1239 q 335 1152 314 1185 q 406 1119 357 1119 q 499 1239 499 1119 l 692 1239 q 615 1030 692 1104 q 406 956 538 956 m 56 894 l 751 894 l 751 674 l 354 674 l 354 560 l 700 560 l 700 333 l 354 333 l 354 221 l 751 221 l 751 0 l 56 0 l 56 894 z "},"Ě":{"ha":772,"x_min":56,"x_max":751,"o":"m 93 1243 l 310 1243 l 411 1093 l 517 1243 l 728 1243 l 499 954 l 322 954 l 93 1243 m 56 894 l 751 894 l 751 674 l 354 674 l 354 560 l 700 560 l 700 333 l 354 333 l 354 221 l 751 221 l 751 0 l 56 0 l 56 894 z "},"Ê":{"ha":771,"x_min":56,"x_max":751,"o":"m 317 1244 l 493 1244 l 722 956 l 511 956 l 406 1106 l 304 956 l 88 956 l 317 1244 m 56 894 l 751 894 l 751 674 l 354 674 l 354 560 l 700 560 l 700 333 l 354 333 l 354 221 l 751 221 l 751 0 l 56 0 l 56 894 z "},"Ế":{"ha":772,"x_min":56,"x_max":897,"o":"m 679 1361 l 897 1361 l 786 1133 l 578 1133 l 679 1361 m 285 1178 l 501 1178 l 710 956 l 475 956 l 393 1063 l 314 956 l 76 956 l 285 1178 m 56 894 l 751 894 l 751 674 l 354 674 l 354 560 l 700 560 l 700 333 l 354 333 l 354 221 l 751 221 l 751 0 l 56 0 l 56 894 z "},"Ệ":{"ha":768,"x_min":56,"x_max":751,"o":"m 308 1244 l 485 1244 l 714 956 l 503 956 l 397 1106 l 296 956 l 79 956 l 308 1244 m 56 894 l 751 894 l 751 674 l 354 674 l 354 560 l 700 560 l 700 333 l 354 333 l 354 221 l 751 221 l 751 0 l 56 0 l 56 894 m 297 -64 l 496 -64 l 496 -244 l 297 -244 l 297 -64 z "},"Ề":{"ha":772,"x_min":-117,"x_max":751,"o":"m -117 1361 l 103 1361 l 204 1133 l -4 1133 l -117 1361 m 292 1178 l 510 1178 l 718 956 l 481 956 l 400 1063 l 318 956 l 83 956 l 292 1178 m 56 894 l 751 894 l 751 674 l 354 674 l 354 560 l 700 560 l 700 333 l 354 333 l 354 221 l 751 221 l 751 0 l 56 0 l 56 894 z "},"Ể":{"ha":772,"x_min":56,"x_max":886,"o":"m 592 1208 q 666 1219 646 1210 q 686 1246 686 1229 q 673 1265 686 1260 q 633 1271 660 1271 q 564 1260 603 1271 l 564 1374 q 714 1390 626 1390 q 842 1356 797 1390 q 886 1267 886 1322 q 788 1146 886 1164 l 788 1101 l 592 1101 l 592 1208 m 283 1178 l 501 1178 l 710 956 l 475 956 l 393 1063 l 313 956 l 75 956 l 283 1178 m 56 894 l 751 894 l 751 674 l 354 674 l 354 560 l 700 560 l 700 333 l 354 333 l 354 221 l 751 221 l 751 0 l 56 0 l 56 894 z "},"Ễ":{"ha":772,"x_min":56,"x_max":751,"o":"m 528 1192 q 468 1199 497 1192 q 396 1222 439 1207 q 334 1242 360 1235 q 283 1249 308 1249 q 151 1196 201 1249 l 151 1342 q 206 1374 171 1361 q 279 1386 240 1386 q 337 1379 310 1386 q 407 1357 364 1372 q 470 1336 443 1343 q 524 1329 497 1329 q 598 1344 565 1329 q 647 1383 631 1358 l 647 1236 q 600 1205 633 1218 q 528 1192 567 1192 m 290 1178 l 508 1178 l 717 956 l 482 956 l 400 1063 l 319 956 l 82 956 l 290 1178 m 56 894 l 751 894 l 751 674 l 354 674 l 354 560 l 700 560 l 700 333 l 354 333 l 354 221 l 751 221 l 751 0 l 56 0 l 56 894 z "},"Ë":{"ha":772,"x_min":56,"x_max":751,"o":"m 153 1176 l 353 1176 l 353 994 l 153 994 l 153 1176 m 467 1176 l 665 1176 l 665 994 l 467 994 l 467 1176 m 56 894 l 751 894 l 751 674 l 354 674 l 354 560 l 700 560 l 700 333 l 354 333 l 354 221 l 751 221 l 751 0 l 56 0 l 56 894 z "},"Ė":{"ha":772,"x_min":56,"x_max":751,"o":"m 299 1176 l 497 1176 l 497 994 l 299 994 l 299 1176 m 56 894 l 751 894 l 751 674 l 354 674 l 354 560 l 700 560 l 700 333 l 354 333 l 354 221 l 751 221 l 751 0 l 56 0 l 56 894 z "},"Ẹ":{"ha":772,"x_min":56,"x_max":751,"o":"m 56 894 l 751 894 l 751 674 l 354 674 l 354 560 l 700 560 l 700 333 l 354 333 l 354 221 l 751 221 l 751 0 l 56 0 l 56 894 m 289 -64 l 488 -64 l 488 -244 l 289 -244 l 289 -64 z "},"È":{"ha":772,"x_min":56,"x_max":751,"o":"m 178 1256 l 410 1256 l 538 956 l 318 956 l 178 1256 m 56 894 l 751 894 l 751 674 l 354 674 l 354 560 l 700 560 l 700 333 l 354 333 l 354 221 l 751 221 l 751 0 l 56 0 l 56 894 z "},"Ẻ":{"ha":772,"x_min":56,"x_max":751,"o":"m 288 1068 q 381 1086 354 1072 q 408 1125 408 1100 q 332 1168 408 1168 q 251 1156 292 1168 l 251 1275 q 422 1294 317 1294 q 572 1254 518 1294 q 625 1150 625 1214 q 598 1058 625 1090 q 510 1008 571 1026 l 510 956 l 288 956 l 288 1068 m 56 894 l 751 894 l 751 674 l 354 674 l 354 560 l 700 560 l 700 333 l 354 333 l 354 221 l 751 221 l 751 0 l 56 0 l 56 894 z "},"Ē":{"ha":772,"x_min":56,"x_max":751,"o":"m 150 1182 l 621 1182 l 621 1007 l 150 1007 l 150 1182 m 56 894 l 751 894 l 751 674 l 354 674 l 354 560 l 700 560 l 700 333 l 354 333 l 354 221 l 751 221 l 751 0 l 56 0 l 56 894 z "},"Ę":{"ha":772,"x_min":56,"x_max":751,"o":"m 354 674 l 354 560 l 700 560 l 700 333 l 354 333 l 354 221 l 751 221 l 751 0 l 682 0 q 608 -115 608 -57 q 671 -164 608 -164 q 708 -160 689 -164 q 740 -149 728 -156 l 740 -282 q 673 -299 715 -292 q 586 -306 631 -306 q 444 -271 496 -306 q 392 -167 392 -236 q 420 -72 392 -115 q 496 0 449 -29 l 56 0 l 56 894 l 751 894 l 751 674 l 354 674 z "},"Ẽ":{"ha":772,"x_min":56,"x_max":751,"o":"m 546 964 q 481 972 513 964 q 401 996 450 979 q 333 1017 358 1010 q 281 1024 307 1024 q 140 968 196 1024 l 140 1147 q 199 1181 161 1167 q 276 1194 236 1194 q 340 1187 310 1194 q 413 1164 369 1179 q 483 1142 454 1149 q 542 1135 511 1135 q 620 1151 586 1135 q 672 1192 654 1167 l 672 1011 q 623 978 658 992 q 546 964 588 964 m 56 894 l 751 894 l 751 674 l 354 674 l 354 560 l 700 560 l 700 333 l 354 333 l 354 221 l 751 221 l 751 0 l 56 0 l 56 894 z "},"F":{"ha":749,"x_min":56,"x_max":749,"o":"m 56 894 l 749 894 l 749 676 l 354 676 l 354 558 l 696 558 l 696 335 l 354 335 l 354 0 l 56 0 l 56 894 z "},"G":{"ha":913,"x_min":28,"x_max":885,"o":"m 532 -14 q 157 103 286 -14 q 28 443 28 219 q 163 789 28 669 q 553 908 297 908 q 836 868 715 908 l 836 614 q 574 656 725 656 q 394 605 456 656 q 332 443 332 554 q 381 287 332 335 q 531 239 431 239 q 636 253 590 239 l 636 344 l 474 344 l 474 526 l 885 526 l 885 71 q 736 10 825 33 q 532 -14 647 -14 z "},"Ğ":{"ha":913,"x_min":28,"x_max":885,"o":"m 529 956 q 322 1030 399 956 q 246 1239 246 1104 l 438 1239 q 459 1152 438 1185 q 529 1119 481 1119 q 622 1239 622 1119 l 815 1239 q 738 1030 815 1104 q 529 956 661 956 m 532 -14 q 157 103 286 -14 q 28 443 28 219 q 163 789 28 669 q 553 908 297 908 q 836 868 715 908 l 836 614 q 574 656 725 656 q 394 605 456 656 q 332 443 332 554 q 381 287 332 335 q 531 239 431 239 q 636 253 590 239 l 636 344 l 474 344 l 474 526 l 885 526 l 885 71 q 736 10 825 33 q 532 -14 647 -14 z "},"Ǧ":{"ha":913,"x_min":28,"x_max":885,"o":"m 206 1244 l 422 1244 l 524 1094 l 629 1244 l 840 1244 l 611 956 l 435 956 l 206 1244 m 532 -14 q 157 103 286 -14 q 28 443 28 219 q 163 789 28 669 q 553 908 297 908 q 836 868 715 908 l 836 614 q 574 656 725 656 q 394 605 456 656 q 332 443 332 554 q 381 287 332 335 q 531 239 431 239 q 636 253 590 239 l 636 344 l 474 344 l 474 526 l 885 526 l 885 71 q 736 10 825 33 q 532 -14 647 -14 z "},"Ĝ":{"ha":913,"x_min":28,"x_max":885,"o":"m 419 1243 l 596 1243 l 825 954 l 614 954 l 508 1104 l 407 954 l 190 954 l 419 1243 m 532 -14 q 157 103 286 -14 q 28 443 28 219 q 163 789 28 669 q 553 908 297 908 q 836 868 715 908 l 836 614 q 574 656 725 656 q 394 605 456 656 q 332 443 332 554 q 381 287 332 335 q 531 239 431 239 q 636 253 590 239 l 636 344 l 474 344 l 474 526 l 885 526 l 885 71 q 736 10 825 33 q 532 -14 647 -14 z "},"Ģ":{"ha":913,"x_min":28,"x_max":885,"o":"m 532 -14 q 157 103 286 -14 q 28 443 28 219 q 163 789 28 669 q 553 908 297 908 q 836 868 715 908 l 836 614 q 574 656 725 656 q 394 605 456 656 q 332 443 332 554 q 381 287 332 335 q 531 239 431 239 q 636 253 590 239 l 636 344 l 474 344 l 474 526 l 885 526 l 885 71 q 736 10 825 33 q 532 -14 647 -14 m 432 -51 l 663 -51 l 578 -381 l 383 -381 l 432 -51 z "},"Ġ":{"ha":913,"x_min":28,"x_max":885,"o":"m 446 1176 l 644 1176 l 644 994 l 446 994 l 446 1176 m 532 -14 q 157 103 286 -14 q 28 443 28 219 q 163 789 28 669 q 553 908 297 908 q 836 868 715 908 l 836 614 q 574 656 725 656 q 394 605 456 656 q 332 443 332 554 q 381 287 332 335 q 531 239 431 239 q 636 253 590 239 l 636 344 l 474 344 l 474 526 l 885 526 l 885 71 q 736 10 825 33 q 532 -14 647 -14 z "},"Ḡ":{"ha":913,"x_min":28,"x_max":885,"o":"m 299 1171 l 769 1171 l 769 996 l 299 996 l 299 1171 m 532 -14 q 157 103 286 -14 q 28 443 28 219 q 163 789 28 669 q 553 908 297 908 q 836 868 715 908 l 836 614 q 574 656 725 656 q 394 605 456 656 q 332 443 332 554 q 381 287 332 335 q 531 239 431 239 q 636 253 590 239 l 636 344 l 474 344 l 474 526 l 885 526 l 885 71 q 736 10 825 33 q 532 -14 647 -14 z "},"H":{"ha":974,"x_min":56,"x_max":918,"o":"m 56 894 l 354 894 l 354 582 l 619 582 l 619 894 l 918 894 l 918 0 l 619 0 l 619 313 l 354 313 l 354 0 l 56 0 l 56 894 z "},"Ħ":{"ha":989,"x_min":14,"x_max":975,"o":"m 63 651 l 14 651 l 14 818 l 63 818 l 63 894 l 361 894 l 361 818 l 628 818 l 628 894 l 926 894 l 926 818 l 975 818 l 975 651 l 926 651 l 926 0 l 628 0 l 628 313 l 361 313 l 361 0 l 63 0 l 63 651 m 628 582 l 628 651 l 361 651 l 361 582 l 628 582 z "},"Ḫ":{"ha":974,"x_min":56,"x_max":918,"o":"m 56 894 l 354 894 l 354 582 l 619 582 l 619 894 l 918 894 l 918 0 l 619 0 l 619 313 l 354 313 l 354 0 l 56 0 l 56 894 m 488 -346 q 281 -272 357 -346 q 204 -62 204 -197 l 396 -62 q 417 -149 396 -117 q 488 -182 439 -182 q 581 -62 581 -182 l 774 -62 q 697 -272 774 -197 q 488 -346 619 -346 z "},"Ĥ":{"ha":974,"x_min":56,"x_max":918,"o":"m 397 1243 l 574 1243 l 803 954 l 592 954 l 486 1104 l 385 954 l 168 954 l 397 1243 m 56 894 l 354 894 l 354 582 l 619 582 l 619 894 l 918 894 l 918 0 l 619 0 l 619 313 l 354 313 l 354 0 l 56 0 l 56 894 z "},"Ḥ":{"ha":974,"x_min":56,"x_max":918,"o":"m 56 894 l 354 894 l 354 582 l 619 582 l 619 894 l 918 894 l 918 0 l 619 0 l 619 313 l 354 313 l 354 0 l 56 0 l 56 894 m 386 -64 l 585 -64 l 585 -244 l 386 -244 l 386 -64 z "},"I":{"ha":410,"x_min":56,"x_max":354,"o":"m 56 894 l 354 894 l 354 0 l 56 0 l 56 894 z "},"Ĳ":{"ha":1033,"x_min":56,"x_max":985,"o":"m 56 894 l 354 894 l 354 0 l 56 0 l 56 894 m 621 -14 q 403 18 494 -14 l 403 265 q 560 239 468 239 q 657 267 628 239 q 686 360 686 294 l 686 894 l 985 894 l 985 299 q 892 67 985 147 q 621 -14 799 -14 z "},"Í":{"ha":410,"x_min":56,"x_max":447,"o":"m 217 1256 l 447 1256 l 307 956 l 89 956 l 217 1256 m 56 894 l 354 894 l 354 0 l 56 0 l 56 894 z "},"Ĭ":{"ha":410,"x_min":-79,"x_max":490,"o":"m 204 988 q -3 1062 74 988 q -79 1271 -79 1136 l 113 1271 q 134 1184 113 1217 q 204 1151 156 1151 q 297 1271 297 1151 l 490 1271 q 413 1062 490 1136 q 204 988 336 988 m 56 894 l 354 894 l 354 0 l 56 0 l 56 894 z "},"Ǐ":{"ha":410,"x_min":-112,"x_max":522,"o":"m -112 1244 l 104 1244 l 206 1094 l 311 1244 l 522 1244 l 293 956 l 117 956 l -112 1244 m 56 894 l 354 894 l 354 0 l 56 0 l 56 894 z "},"Î":{"ha":410,"x_min":-112,"x_max":522,"o":"m 117 1244 l 293 1244 l 522 956 l 311 956 l 206 1106 l 104 956 l -112 956 l 117 1244 m 56 894 l 354 894 l 354 0 l 56 0 l 56 894 z "},"Ï":{"ha":410,"x_min":-51,"x_max":461,"o":"m -51 1188 l 149 1188 l 149 1006 l -51 1006 l -51 1188 m 263 1188 l 461 1188 l 461 1006 l 263 1006 l 263 1188 m 56 894 l 354 894 l 354 0 l 56 0 l 56 894 z "},"İ":{"ha":410,"x_min":56,"x_max":354,"o":"m 106 1188 l 304 1188 l 304 1006 l 106 1006 l 106 1188 m 56 894 l 354 894 l 354 0 l 56 0 l 56 894 z "},"Ị":{"ha":410,"x_min":56,"x_max":354,"o":"m 56 894 l 354 894 l 354 0 l 56 0 l 56 894 m 106 -64 l 304 -64 l 304 -244 l 106 -244 l 106 -64 z "},"Ì":{"ha":410,"x_min":-44,"x_max":354,"o":"m -44 1256 l 188 1256 l 315 956 l 96 956 l -44 1256 m 56 894 l 354 894 l 354 0 l 56 0 l 56 894 z "},"Ỉ":{"ha":410,"x_min":50,"x_max":424,"o":"m 86 1068 q 180 1086 153 1072 q 207 1125 207 1100 q 131 1168 207 1168 q 50 1156 90 1168 l 50 1275 q 221 1294 115 1294 q 370 1254 317 1294 q 424 1150 424 1214 q 397 1058 424 1090 q 308 1008 369 1026 l 308 956 l 86 956 l 86 1068 m 56 894 l 354 894 l 354 0 l 56 0 l 56 894 z "},"Ī":{"ha":410,"x_min":-31,"x_max":439,"o":"m -31 1182 l 439 1182 l 439 1007 l -31 1007 l -31 1182 m 56 894 l 354 894 l 354 0 l 56 0 l 56 894 z "},"Į":{"ha":410,"x_min":7,"x_max":356,"o":"m 286 -164 q 324 -160 304 -164 q 356 -149 343 -156 l 356 -282 q 288 -299 331 -292 q 201 -306 246 -306 q 59 -271 111 -306 q 7 -167 7 -236 q 35 -72 7 -115 q 111 0 64 -29 l 56 0 l 56 894 l 354 894 l 354 0 l 297 0 q 224 -115 224 -57 q 286 -164 224 -164 z "},"Ĩ":{"ha":410,"x_min":-61,"x_max":471,"o":"m 344 996 q 280 1003 311 996 q 200 1028 249 1011 q 131 1049 157 1042 q 79 1056 106 1056 q -61 1000 -6 1056 l -61 1179 q -3 1213 -40 1199 q 75 1226 35 1226 q 138 1219 108 1226 q 211 1196 168 1211 q 281 1174 253 1181 q 340 1167 310 1167 q 419 1183 385 1167 q 471 1224 453 1199 l 471 1043 q 422 1010 457 1024 q 344 996 386 996 m 56 894 l 354 894 l 354 0 l 56 0 l 56 894 z "},"J":{"ha":631,"x_min":0,"x_max":582,"o":"m 218 -14 q 0 18 92 -14 l 0 265 q 157 239 65 239 q 254 267 225 239 q 283 360 283 294 l 283 894 l 582 894 l 582 299 q 489 67 582 147 q 218 -14 396 -14 z "},"Ĵ":{"ha":631,"x_min":0,"x_max":746,"o":"m 340 1244 l 517 1244 l 746 956 l 535 956 l 429 1106 l 328 956 l 111 956 l 340 1244 m 218 -14 q 0 18 92 -14 l 0 265 q 157 239 65 239 q 254 267 225 239 q 283 360 283 294 l 283 894 l 582 894 l 582 299 q 489 67 582 147 q 218 -14 396 -14 z "},"K":{"ha":978,"x_min":56,"x_max":950,"o":"m 56 894 l 354 894 l 354 611 l 588 894 l 925 894 l 615 525 l 950 0 l 633 0 l 432 336 l 354 246 l 354 0 l 56 0 l 56 894 z "},"Ķ":{"ha":978,"x_min":56,"x_max":950,"o":"m 56 894 l 354 894 l 354 611 l 588 894 l 925 894 l 615 525 l 950 0 l 633 0 l 432 336 l 354 246 l 354 0 l 56 0 l 56 894 m 386 -51 l 617 -51 l 532 -381 l 338 -381 l 386 -51 z "},"L":{"ha":738,"x_min":56,"x_max":738,"o":"m 56 894 l 354 894 l 354 228 l 738 228 l 738 0 l 56 0 l 56 894 z "},"Ĺ":{"ha":738,"x_min":56,"x_max":738,"o":"m 221 1256 l 451 1256 l 311 956 l 93 956 l 221 1256 m 56 894 l 354 894 l 354 228 l 738 228 l 738 0 l 56 0 l 56 894 z "},"Ľ":{"ha":738,"x_min":56,"x_max":738,"o":"m 139 1285 l 369 1285 l 285 956 l 90 956 l 139 1285 m 56 894 l 354 894 l 354 228 l 738 228 l 738 0 l 56 0 l 56 894 z "},"Ļ":{"ha":738,"x_min":56,"x_max":738,"o":"m 56 894 l 354 894 l 354 228 l 738 228 l 738 0 l 56 0 l 56 894 m 321 -51 l 551 -51 l 467 -381 l 272 -381 l 321 -51 z "},"Ŀ":{"ha":738,"x_min":56,"x_max":738,"o":"m 56 894 l 354 894 l 354 228 l 738 228 l 738 0 l 56 0 l 56 894 m 478 599 l 676 599 l 676 417 l 478 417 l 478 599 z "},"Ḷ":{"ha":738,"x_min":56,"x_max":738,"o":"m 56 894 l 354 894 l 354 228 l 738 228 l 738 0 l 56 0 l 56 894 m 285 -62 l 483 -62 l 483 -243 l 285 -243 l 285 -62 z "},"Ḹ":{"ha":740,"x_min":-31,"x_max":740,"o":"m -31 1171 l 440 1171 l 440 996 l -31 996 l -31 1171 m 58 894 l 357 894 l 357 228 l 740 228 l 740 0 l 58 0 l 58 894 m 286 -62 l 485 -62 l 485 -243 l 286 -243 l 286 -62 z "},"Ḻ":{"ha":738,"x_min":56,"x_max":738,"o":"m 56 894 l 354 894 l 354 228 l 738 228 l 738 0 l 56 0 l 56 894 m 151 -68 l 622 -68 l 622 -243 l 151 -243 l 151 -68 z "},"Ł":{"ha":767,"x_min":-14,"x_max":767,"o":"m 83 314 l -14 272 l -14 482 l 83 524 l 83 894 l 382 894 l 382 656 l 490 703 l 490 493 l 382 446 l 382 228 l 767 228 l 767 0 l 83 0 l 83 314 z "},"M":{"ha":1086,"x_min":56,"x_max":1031,"o":"m 56 894 l 342 894 l 544 482 l 744 894 l 1031 894 l 1031 0 l 732 0 l 732 381 l 621 153 l 465 153 l 354 381 l 354 0 l 56 0 l 56 894 z "},"Ṃ":{"ha":1086,"x_min":56,"x_max":1031,"o":"m 56 894 l 342 894 l 544 482 l 744 894 l 1031 894 l 1031 0 l 732 0 l 732 381 l 621 153 l 465 153 l 354 381 l 354 0 l 56 0 l 56 894 m 446 -64 l 644 -64 l 644 -244 l 446 -244 l 446 -64 z "},"N":{"ha":956,"x_min":56,"x_max":900,"o":"m 56 894 l 307 894 l 601 482 l 601 894 l 900 894 l 900 0 l 646 0 l 354 411 l 354 0 l 56 0 l 56 894 z "},"Ń":{"ha":956,"x_min":56,"x_max":900,"o":"m 458 1256 l 689 1256 l 549 956 l 331 956 l 458 1256 m 56 894 l 307 894 l 601 482 l 601 894 l 900 894 l 900 0 l 646 0 l 354 411 l 354 0 l 56 0 l 56 894 z "},"Ň":{"ha":956,"x_min":56,"x_max":900,"o":"m 154 1244 l 371 1244 l 472 1094 l 578 1244 l 789 1244 l 560 956 l 383 956 l 154 1244 m 56 894 l 307 894 l 601 482 l 601 894 l 900 894 l 900 0 l 646 0 l 354 411 l 354 0 l 56 0 l 56 894 z "},"Ņ":{"ha":956,"x_min":56,"x_max":900,"o":"m 56 894 l 307 894 l 601 482 l 601 894 l 900 894 l 900 0 l 646 0 l 354 411 l 354 0 l 56 0 l 56 894 m 382 -51 l 613 -51 l 528 -381 l 333 -381 l 382 -51 z "},"Ṅ":{"ha":956,"x_min":56,"x_max":900,"o":"m 375 1176 l 574 1176 l 574 994 l 375 994 l 375 1176 m 56 894 l 307 894 l 601 482 l 601 894 l 900 894 l 900 0 l 646 0 l 354 411 l 354 0 l 56 0 l 56 894 z "},"Ṇ":{"ha":956,"x_min":56,"x_max":900,"o":"m 56 894 l 307 894 l 601 482 l 601 894 l 900 894 l 900 0 l 646 0 l 354 411 l 354 0 l 56 0 l 56 894 m 382 -64 l 581 -64 l 581 -244 l 382 -244 l 382 -64 z "},"Ŋ":{"ha":956,"x_min":56,"x_max":900,"o":"m 632 -325 q 442 -292 524 -325 l 442 -103 q 525 -117 482 -117 q 600 -51 600 -117 l 600 64 l 354 411 l 354 0 l 56 0 l 56 894 l 307 894 l 600 482 l 600 894 l 900 894 l 900 -72 q 834 -257 900 -189 q 632 -325 768 -325 z "},"Ṉ":{"ha":956,"x_min":56,"x_max":900,"o":"m 56 894 l 307 894 l 601 482 l 601 894 l 900 894 l 900 0 l 646 0 l 354 411 l 354 0 l 56 0 l 56 894 m 246 -69 l 717 -69 l 717 -244 l 246 -244 l 246 -69 z "},"Ñ":{"ha":956,"x_min":56,"x_max":900,"o":"m 628 964 q 563 972 594 964 q 483 996 532 979 q 415 1017 440 1010 q 363 1024 389 1024 q 222 968 278 1024 l 222 1147 q 281 1181 243 1167 q 358 1194 318 1194 q 422 1187 392 1194 q 494 1164 451 1179 q 565 1142 536 1149 q 624 1135 593 1135 q 702 1151 668 1135 q 754 1192 736 1167 l 754 1011 q 705 978 740 992 q 628 964 669 964 m 56 894 l 307 894 l 601 482 l 601 894 l 900 894 l 900 0 l 646 0 l 354 411 l 354 0 l 56 0 l 56 894 z "},"O":{"ha":992,"x_min":28,"x_max":964,"o":"m 496 -14 q 146 95 264 -14 q 28 446 28 204 q 146 799 28 690 q 496 908 264 908 q 846 799 728 908 q 964 446 964 690 q 846 95 964 204 q 496 -14 728 -14 m 496 239 q 620 288 582 239 q 658 446 658 336 q 621 607 658 560 q 496 654 583 654 q 370 607 408 654 q 332 446 332 560 q 370 287 332 335 q 496 239 408 239 z "},"Ó":{"ha":992,"x_min":28,"x_max":964,"o":"m 492 1256 l 722 1256 l 582 956 l 364 956 l 492 1256 m 496 -14 q 146 95 264 -14 q 28 446 28 204 q 146 799 28 690 q 496 908 264 908 q 846 799 728 908 q 964 446 964 690 q 846 95 964 204 q 496 -14 728 -14 m 496 239 q 620 288 582 239 q 658 446 658 336 q 621 607 658 560 q 496 654 583 654 q 370 607 408 654 q 332 446 332 560 q 370 287 332 335 q 496 239 408 239 z "},"Ŏ":{"ha":992,"x_min":28,"x_max":964,"o":"m 494 956 q 288 1030 364 956 q 211 1239 211 1104 l 403 1239 q 424 1152 403 1185 q 494 1119 446 1119 q 588 1239 588 1119 l 781 1239 q 703 1030 781 1104 q 494 956 626 956 m 496 -14 q 146 95 264 -14 q 28 446 28 204 q 146 799 28 690 q 496 908 264 908 q 846 799 728 908 q 964 446 964 690 q 846 95 964 204 q 496 -14 728 -14 m 496 239 q 620 288 582 239 q 658 446 658 336 q 621 607 658 560 q 496 654 583 654 q 370 607 408 654 q 332 446 332 560 q 370 287 332 335 q 496 239 408 239 z "},"Ǒ":{"ha":992,"x_min":28,"x_max":964,"o":"m 178 1244 l 394 1244 l 496 1094 l 601 1244 l 813 1244 l 583 956 l 407 956 l 178 1244 m 496 -14 q 146 95 264 -14 q 28 446 28 204 q 146 799 28 690 q 496 908 264 908 q 846 799 728 908 q 964 446 964 690 q 846 95 964 204 q 496 -14 728 -14 m 496 239 q 620 288 582 239 q 658 446 658 336 q 621 607 658 560 q 496 654 583 654 q 370 607 408 654 q 332 446 332 560 q 370 287 332 335 q 496 239 408 239 z "},"Ô":{"ha":992,"x_min":28,"x_max":964,"o":"m 408 1244 l 585 1244 l 814 956 l 603 956 l 497 1106 l 396 956 l 179 956 l 408 1244 m 496 -14 q 146 95 264 -14 q 28 446 28 204 q 146 799 28 690 q 496 908 264 908 q 846 799 728 908 q 964 446 964 690 q 846 95 964 204 q 496 -14 728 -14 m 496 239 q 620 288 582 239 q 658 446 658 336 q 621 607 658 560 q 496 654 583 654 q 370 607 408 654 q 332 446 332 560 q 370 287 332 335 q 496 239 408 239 z "},"Ố":{"ha":992,"x_min":28,"x_max":996,"o":"m 778 1361 l 996 1361 l 885 1133 l 676 1133 l 778 1361 m 383 1178 l 600 1178 l 808 956 l 574 956 l 492 1063 l 413 956 l 175 956 l 383 1178 m 496 -14 q 146 95 264 -14 q 28 446 28 204 q 146 799 28 690 q 496 908 264 908 q 846 799 728 908 q 964 446 964 690 q 846 95 964 204 q 496 -14 728 -14 m 496 239 q 620 288 582 239 q 658 446 658 336 q 621 607 658 560 q 496 654 583 654 q 370 607 408 654 q 332 446 332 560 q 370 287 332 335 q 496 239 408 239 z "},"Ộ":{"ha":992,"x_min":28,"x_max":964,"o":"m 408 1244 l 585 1244 l 814 956 l 603 956 l 497 1106 l 396 956 l 179 956 l 408 1244 m 496 -14 q 146 95 264 -14 q 28 446 28 204 q 146 799 28 690 q 496 908 264 908 q 846 799 728 908 q 964 446 964 690 q 846 95 964 204 q 496 -14 728 -14 m 496 239 q 620 288 582 239 q 658 446 658 336 q 621 607 658 560 q 496 654 583 654 q 370 607 408 654 q 332 446 332 560 q 370 287 332 335 q 496 239 408 239 m 399 -64 l 597 -64 l 597 -244 l 399 -244 l 399 -64 z "},"Ồ":{"ha":992,"x_min":-8,"x_max":964,"o":"m -8 1361 l 211 1361 l 313 1133 l 104 1133 l -8 1361 m 388 1178 l 606 1178 l 814 956 l 576 956 l 496 1063 l 414 956 l 179 956 l 388 1178 m 496 -14 q 146 95 264 -14 q 28 446 28 204 q 146 799 28 690 q 496 908 264 908 q 846 799 728 908 q 964 446 964 690 q 846 95 964 204 q 496 -14 728 -14 m 496 239 q 620 288 582 239 q 658 446 658 336 q 621 607 658 560 q 496 654 583 654 q 370 607 408 654 q 332 446 332 560 q 370 287 332 335 q 496 239 408 239 z "},"Ổ":{"ha":992,"x_min":28,"x_max":985,"o":"m 690 1208 q 765 1219 744 1210 q 785 1246 785 1229 q 772 1265 785 1260 q 732 1271 758 1271 q 663 1260 701 1271 l 663 1374 q 813 1390 725 1390 q 940 1356 896 1390 q 985 1267 985 1322 q 886 1146 985 1164 l 886 1101 l 690 1101 l 690 1208 m 382 1178 l 600 1178 l 808 956 l 574 956 l 492 1063 l 411 956 l 174 956 l 382 1178 m 496 -14 q 146 95 264 -14 q 28 446 28 204 q 146 799 28 690 q 496 908 264 908 q 846 799 728 908 q 964 446 964 690 q 846 95 964 204 q 496 -14 728 -14 m 496 239 q 620 288 582 239 q 658 446 658 336 q 621 607 658 560 q 496 654 583 654 q 370 607 408 654 q 332 446 332 560 q 370 287 332 335 q 496 239 408 239 z "},"Ỗ":{"ha":992,"x_min":28,"x_max":964,"o":"m 626 1235 q 567 1242 596 1235 q 494 1265 538 1250 q 433 1285 458 1278 q 382 1292 407 1292 q 250 1239 300 1292 l 250 1385 q 304 1417 269 1404 q 378 1429 339 1429 q 435 1422 408 1429 q 506 1400 463 1415 q 569 1379 542 1386 q 622 1372 596 1372 q 697 1387 664 1372 q 746 1426 729 1401 l 746 1279 q 699 1248 732 1261 q 626 1235 665 1235 m 496 956 q 302 1017 372 956 q 232 1206 232 1079 l 397 1206 q 422 1128 397 1157 q 496 1100 447 1100 q 569 1128 544 1100 q 593 1206 593 1157 l 760 1206 q 689 1017 760 1079 q 496 956 618 956 m 496 -14 q 146 95 264 -14 q 28 446 28 204 q 146 799 28 690 q 496 908 264 908 q 846 799 728 908 q 964 446 964 690 q 846 95 964 204 q 496 -14 728 -14 m 496 239 q 620 288 582 239 q 658 446 658 336 q 621 607 658 560 q 496 654 583 654 q 370 607 408 654 q 332 446 332 560 q 370 287 332 335 q 496 239 408 239 z "},"Ö":{"ha":992,"x_min":28,"x_max":964,"o":"m 239 1176 l 439 1176 l 439 994 l 239 994 l 239 1176 m 553 1176 l 751 1176 l 751 994 l 553 994 l 553 1176 m 496 -14 q 146 95 264 -14 q 28 446 28 204 q 146 799 28 690 q 496 908 264 908 q 846 799 728 908 q 964 446 964 690 q 846 95 964 204 q 496 -14 728 -14 m 496 239 q 620 288 582 239 q 658 446 658 336 q 621 607 658 560 q 496 654 583 654 q 370 607 408 654 q 332 446 332 560 q 370 287 332 335 q 496 239 408 239 z "},"Ọ":{"ha":992,"x_min":28,"x_max":964,"o":"m 496 -14 q 146 95 264 -14 q 28 446 28 204 q 146 799 28 690 q 496 908 264 908 q 846 799 728 908 q 964 446 964 690 q 846 95 964 204 q 496 -14 728 -14 m 496 239 q 620 288 582 239 q 658 446 658 336 q 621 607 658 560 q 496 654 583 654 q 370 607 408 654 q 332 446 332 560 q 370 287 332 335 q 496 239 408 239 m 397 -64 l 596 -64 l 596 -244 l 397 -244 l 397 -64 z "},"Ò":{"ha":992,"x_min":28,"x_max":964,"o":"m 253 1256 l 485 1256 l 613 956 l 393 956 l 253 1256 m 496 -14 q 146 95 264 -14 q 28 446 28 204 q 146 799 28 690 q 496 908 264 908 q 846 799 728 908 q 964 446 964 690 q 846 95 964 204 q 496 -14 728 -14 m 496 239 q 620 288 582 239 q 658 446 658 336 q 621 607 658 560 q 496 654 583 654 q 370 607 408 654 q 332 446 332 560 q 370 287 332 335 q 496 239 408 239 z "},"Ỏ":{"ha":992,"x_min":28,"x_max":964,"o":"m 376 1068 q 470 1086 443 1072 q 497 1125 497 1100 q 421 1168 497 1168 q 340 1156 381 1168 l 340 1275 q 511 1294 406 1294 q 660 1254 607 1294 q 714 1150 714 1214 q 687 1058 714 1090 q 599 1008 660 1026 l 599 956 l 376 956 l 376 1068 m 496 -14 q 146 95 264 -14 q 28 446 28 204 q 146 799 28 690 q 496 908 264 908 q 846 799 728 908 q 964 446 964 690 q 846 95 964 204 q 496 -14 728 -14 m 496 239 q 620 288 582 239 q 658 446 658 336 q 621 607 658 560 q 496 654 583 654 q 370 607 408 654 q 332 446 332 560 q 370 287 332 335 q 496 239 408 239 z "},"Ơ":{"ha":1118,"x_min":28,"x_max":1104,"o":"m 28 446 q 146 799 28 690 q 496 908 264 908 q 821 821 707 908 q 897 858 875 828 q 919 956 919 888 l 1104 956 q 1063 756 1104 824 q 931 665 1022 689 q 964 446 964 576 q 846 95 964 204 q 496 -14 728 -14 q 146 95 264 -14 q 28 446 28 204 m 332 446 q 370 287 332 335 q 496 239 408 239 q 620 288 582 239 q 658 446 658 336 q 621 607 658 560 q 496 654 583 654 q 370 607 408 654 q 332 446 332 560 z "},"Ớ":{"ha":1118,"x_min":28,"x_max":1104,"o":"m 514 1256 l 744 1256 l 604 956 l 386 956 l 514 1256 m 28 446 q 146 799 28 690 q 496 908 264 908 q 821 821 707 908 q 897 858 875 828 q 919 956 919 888 l 1104 956 q 1063 756 1104 824 q 931 665 1022 689 q 964 446 964 576 q 846 95 964 204 q 496 -14 728 -14 q 146 95 264 -14 q 28 446 28 204 m 332 446 q 370 287 332 335 q 496 239 408 239 q 620 288 582 239 q 658 446 658 336 q 621 607 658 560 q 496 654 583 654 q 370 607 408 654 q 332 446 332 560 z "},"Ợ":{"ha":1118,"x_min":28,"x_max":1104,"o":"m 28 446 q 146 799 28 690 q 496 908 264 908 q 821 821 707 908 q 897 858 875 828 q 919 956 919 888 l 1104 956 q 1063 756 1104 824 q 931 665 1022 689 q 964 446 964 576 q 846 95 964 204 q 496 -14 728 -14 q 146 95 264 -14 q 28 446 28 204 m 332 446 q 370 287 332 335 q 496 239 408 239 q 620 288 582 239 q 658 446 658 336 q 621 607 658 560 q 496 654 583 654 q 370 607 408 654 q 332 446 332 560 m 396 -64 l 594 -64 l 594 -244 l 396 -244 l 396 -64 z "},"Ờ":{"ha":1118,"x_min":28,"x_max":1104,"o":"m 264 1256 l 496 1256 l 624 956 l 404 956 l 264 1256 m 28 446 q 146 799 28 690 q 496 908 264 908 q 821 821 707 908 q 897 858 875 828 q 919 956 919 888 l 1104 956 q 1063 756 1104 824 q 931 665 1022 689 q 964 446 964 576 q 846 95 964 204 q 496 -14 728 -14 q 146 95 264 -14 q 28 446 28 204 m 332 446 q 370 287 332 335 q 496 239 408 239 q 620 288 582 239 q 658 446 658 336 q 621 607 658 560 q 496 654 583 654 q 370 607 408 654 q 332 446 332 560 z "},"Ở":{"ha":1118,"x_min":28,"x_max":1104,"o":"m 379 1068 q 473 1086 446 1072 q 500 1125 500 1100 q 424 1168 500 1168 q 343 1156 383 1168 l 343 1275 q 514 1294 408 1294 q 663 1254 610 1294 q 717 1150 717 1214 q 690 1058 717 1090 q 601 1008 663 1026 l 601 956 l 379 956 l 379 1068 m 28 446 q 146 799 28 690 q 496 908 264 908 q 821 821 707 908 q 897 858 875 828 q 919 956 919 888 l 1104 956 q 1063 756 1104 824 q 931 665 1022 689 q 964 446 964 576 q 846 95 964 204 q 496 -14 728 -14 q 146 95 264 -14 q 28 446 28 204 m 332 446 q 370 287 332 335 q 496 239 408 239 q 620 288 582 239 q 658 446 658 336 q 621 607 658 560 q 496 654 583 654 q 370 607 408 654 q 332 446 332 560 z "},"Ỡ":{"ha":1118,"x_min":28,"x_max":1104,"o":"m 638 958 q 573 966 604 958 q 493 990 542 974 q 424 1011 450 1004 q 372 1018 399 1018 q 232 963 288 1018 l 232 1142 q 290 1175 253 1161 q 368 1189 328 1189 q 431 1181 401 1189 q 504 1158 461 1174 q 574 1136 546 1143 q 633 1129 603 1129 q 712 1145 678 1129 q 764 1186 746 1161 l 764 1006 q 715 972 750 986 q 638 958 679 958 m 28 446 q 146 799 28 690 q 496 908 264 908 q 821 821 707 908 q 897 858 875 828 q 919 956 919 888 l 1104 956 q 1063 756 1104 824 q 931 665 1022 689 q 964 446 964 576 q 846 95 964 204 q 496 -14 728 -14 q 146 95 264 -14 q 28 446 28 204 m 332 446 q 370 287 332 335 q 496 239 408 239 q 620 288 582 239 q 658 446 658 336 q 621 607 658 560 q 496 654 583 654 q 370 607 408 654 q 332 446 332 560 z "},"Ő":{"ha":992,"x_min":28,"x_max":964,"o":"m 286 1225 l 539 1225 l 389 956 l 161 956 l 286 1225 m 636 1225 l 889 1225 l 739 956 l 511 956 l 636 1225 m 496 -14 q 146 95 264 -14 q 28 446 28 204 q 146 799 28 690 q 496 908 264 908 q 846 799 728 908 q 964 446 964 690 q 846 95 964 204 q 496 -14 728 -14 m 496 239 q 620 288 582 239 q 658 446 658 336 q 621 607 658 560 q 496 654 583 654 q 370 607 408 654 q 332 446 332 560 q 370 287 332 335 q 496 239 408 239 z "},"Ō":{"ha":992,"x_min":28,"x_max":964,"o":"m 254 1183 l 725 1183 l 725 1008 l 254 1008 l 254 1183 m 496 -14 q 146 95 264 -14 q 28 446 28 204 q 146 799 28 690 q 496 908 264 908 q 846 799 728 908 q 964 446 964 690 q 846 95 964 204 q 496 -14 728 -14 m 496 239 q 620 288 582 239 q 658 446 658 336 q 621 607 658 560 q 496 654 583 654 q 370 607 408 654 q 332 446 332 560 q 370 287 332 335 q 496 239 408 239 z "},"Ø":{"ha":992,"x_min":28,"x_max":964,"o":"m 260 24 q 86 172 144 69 q 28 446 28 275 q 146 799 28 690 q 496 908 264 908 q 611 900 557 908 l 636 963 l 761 963 l 725 872 q 903 724 843 829 q 964 446 964 619 q 846 95 964 204 q 496 -14 728 -14 q 372 -6 431 -14 l 346 -74 l 221 -74 l 260 24 m 514 657 l 496 658 q 367 610 406 658 q 329 446 329 563 q 365 286 329 336 l 514 657 m 496 235 q 624 284 585 235 q 663 446 663 333 q 621 613 663 563 l 469 235 l 496 235 z "},"Ǿ":{"ha":992,"x_min":28,"x_max":964,"o":"m 478 1256 l 708 1256 l 568 956 l 350 956 l 478 1256 m 260 24 q 86 172 144 69 q 28 446 28 275 q 146 799 28 690 q 496 908 264 908 q 611 900 557 908 l 636 963 l 761 963 l 725 872 q 903 724 843 829 q 964 446 964 619 q 846 95 964 204 q 496 -14 728 -14 q 372 -6 431 -14 l 346 -74 l 221 -74 l 260 24 m 514 657 l 496 658 q 367 610 406 658 q 329 446 329 563 q 365 286 329 336 l 514 657 m 496 235 q 624 284 585 235 q 663 446 663 333 q 621 613 663 563 l 469 235 l 496 235 z "},"Õ":{"ha":992,"x_min":28,"x_max":964,"o":"m 636 989 q 572 997 603 989 q 492 1021 540 1004 q 423 1042 449 1035 q 371 1049 397 1049 q 231 993 286 1049 l 231 1172 q 289 1206 251 1192 q 367 1219 326 1219 q 430 1212 400 1219 q 503 1189 460 1204 q 573 1167 544 1174 q 632 1160 601 1160 q 710 1176 676 1160 q 763 1217 744 1192 l 763 1036 q 713 1003 749 1017 q 636 989 678 989 m 496 -14 q 146 95 264 -14 q 28 446 28 204 q 146 799 28 690 q 496 908 264 908 q 846 799 728 908 q 964 446 964 690 q 846 95 964 204 q 496 -14 728 -14 m 496 239 q 620 288 582 239 q 658 446 658 336 q 621 607 658 560 q 496 654 583 654 q 370 607 408 654 q 332 446 332 560 q 370 287 332 335 q 496 239 408 239 z "},"Œ":{"ha":1385,"x_min":28,"x_max":1357,"o":"m 960 674 l 960 560 l 1306 560 l 1306 333 l 960 333 l 960 221 l 1357 221 l 1357 0 l 661 0 l 661 3 q 496 -14 586 -14 q 146 95 264 -14 q 28 446 28 204 q 146 799 28 690 q 496 908 264 908 q 661 892 586 908 l 661 894 l 1357 894 l 1357 674 l 960 674 m 496 239 q 620 288 582 239 q 658 446 658 336 q 621 607 658 560 q 496 654 583 654 q 370 607 408 654 q 332 446 332 560 q 370 287 332 335 q 496 239 408 239 z "},"P":{"ha":868,"x_min":56,"x_max":868,"o":"m 56 894 l 538 894 q 720 849 646 894 q 831 728 794 804 q 868 556 868 651 q 826 383 868 460 q 708 263 785 307 q 532 219 632 219 l 354 219 l 354 0 l 56 0 l 56 894 m 463 451 q 538 479 511 451 q 564 556 564 507 q 540 635 564 607 q 468 663 517 663 l 354 663 l 354 451 l 463 451 z "},"Þ":{"ha":868,"x_min":56,"x_max":868,"o":"m 56 894 l 354 894 l 354 781 l 538 781 q 720 737 646 781 q 831 617 794 693 q 868 446 868 542 q 826 274 868 350 q 708 156 785 199 q 532 113 632 113 l 354 113 l 354 0 l 56 0 l 56 894 m 463 343 q 538 371 511 343 q 564 446 564 399 q 468 550 564 550 l 354 550 l 354 343 l 463 343 z "},"Q":{"ha":992,"x_min":28,"x_max":964,"o":"m 636 -239 q 440 -179 501 -239 q 375 -6 378 -119 q 115 128 203 19 q 28 446 28 238 q 146 799 28 690 q 496 908 264 908 q 846 799 728 908 q 964 446 964 690 q 874 128 964 238 q 611 -6 785 18 q 631 -50 614 -37 q 685 -62 649 -62 q 778 -47 732 -62 l 778 -221 q 713 -233 753 -228 q 636 -239 674 -239 m 496 239 q 620 288 582 239 q 658 446 658 336 q 621 607 658 560 q 496 654 583 654 q 370 607 408 654 q 332 446 332 560 q 370 287 332 335 q 496 239 408 239 z "},"R":{"ha":896,"x_min":56,"x_max":868,"o":"m 56 894 l 539 894 q 785 805 701 894 q 868 568 868 715 q 824 412 868 481 q 707 300 781 343 q 751 239 733 279 l 856 0 l 544 0 l 453 207 q 431 236 443 228 q 397 244 419 244 l 354 244 l 354 0 l 56 0 l 56 894 m 464 475 q 538 499 513 475 q 564 568 564 522 q 471 663 564 663 l 354 663 l 354 475 l 464 475 z "},"Ŕ":{"ha":896,"x_min":56,"x_max":868,"o":"m 393 1256 l 624 1256 l 483 956 l 265 956 l 393 1256 m 56 894 l 539 894 q 785 805 701 894 q 868 568 868 715 q 824 412 868 481 q 707 300 781 343 q 751 239 733 279 l 856 0 l 544 0 l 453 207 q 431 236 443 228 q 397 244 419 244 l 354 244 l 354 0 l 56 0 l 56 894 m 464 475 q 538 499 513 475 q 564 568 564 522 q 471 663 564 663 l 354 663 l 354 475 l 464 475 z "},"Ř":{"ha":896,"x_min":56,"x_max":868,"o":"m 79 1244 l 296 1244 l 397 1094 l 503 1244 l 714 1244 l 485 956 l 308 956 l 79 1244 m 56 894 l 539 894 q 785 805 701 894 q 868 568 868 715 q 824 412 868 481 q 707 300 781 343 q 751 239 733 279 l 856 0 l 544 0 l 453 207 q 431 236 443 228 q 397 244 419 244 l 354 244 l 354 0 l 56 0 l 56 894 m 464 475 q 538 499 513 475 q 564 568 564 522 q 471 663 564 663 l 354 663 l 354 475 l 464 475 z "},"Ŗ":{"ha":896,"x_min":56,"x_max":868,"o":"m 56 894 l 539 894 q 785 805 701 894 q 868 568 868 715 q 824 412 868 481 q 707 300 781 343 q 751 239 733 279 l 856 0 l 544 0 l 453 207 q 431 236 443 228 q 397 244 419 244 l 354 244 l 354 0 l 56 0 l 56 894 m 464 475 q 538 499 513 475 q 564 568 564 522 q 471 663 564 663 l 354 663 l 354 475 l 464 475 m 328 -51 l 558 -51 l 474 -381 l 279 -381 l 328 -51 z "},"Ṛ":{"ha":896,"x_min":56,"x_max":868,"o":"m 56 894 l 539 894 q 785 805 701 894 q 868 568 868 715 q 824 412 868 481 q 707 300 781 343 q 751 239 733 279 l 856 0 l 544 0 l 453 207 q 431 236 443 228 q 397 244 419 244 l 354 244 l 354 0 l 56 0 l 56 894 m 464 475 q 538 499 513 475 q 564 568 564 522 q 471 663 564 663 l 354 663 l 354 475 l 464 475 m 324 -62 l 522 -62 l 522 -243 l 324 -243 l 324 -62 z "},"Ṝ":{"ha":896,"x_min":56,"x_max":868,"o":"m 154 1171 l 625 1171 l 625 996 l 154 996 l 154 1171 m 56 894 l 539 894 q 785 805 701 894 q 868 568 868 715 q 824 412 868 481 q 707 300 781 343 q 751 239 733 279 l 856 0 l 544 0 l 453 207 q 431 236 443 228 q 397 244 419 244 l 354 244 l 354 0 l 56 0 l 56 894 m 464 475 q 538 499 513 475 q 564 568 564 522 q 471 663 564 663 l 354 663 l 354 475 l 464 475 m 317 -62 l 515 -62 l 515 -243 l 317 -243 l 317 -62 z "},"Ṟ":{"ha":896,"x_min":56,"x_max":868,"o":"m 56 894 l 539 894 q 785 805 701 894 q 868 568 868 715 q 824 412 868 481 q 707 300 781 343 q 751 239 733 279 l 856 0 l 544 0 l 453 207 q 431 236 443 228 q 397 244 419 244 l 354 244 l 354 0 l 56 0 l 56 894 m 464 475 q 538 499 513 475 q 564 568 564 522 q 471 663 564 663 l 354 663 l 354 475 l 464 475 m 189 -68 l 660 -68 l 660 -243 l 189 -243 l 189 -68 z "},"S":{"ha":774,"x_min":28,"x_max":746,"o":"m 357 -14 q 180 1 264 -14 q 38 44 96 17 l 38 278 q 182 228 103 247 q 325 208 261 208 q 412 220 383 208 q 440 261 440 232 q 414 302 440 288 q 315 340 388 317 q 263 357 294 346 q 122 423 172 388 q 50 508 72 458 q 28 633 28 558 q 410 908 28 908 q 560 896 478 908 q 697 867 642 883 l 697 632 q 460 683 568 683 q 366 674 400 683 q 332 636 332 664 q 347 607 332 618 q 388 588 361 596 q 483 561 415 579 q 647 490 590 532 q 725 394 704 449 q 746 263 746 340 q 647 60 746 135 q 357 -14 547 -14 z "},"Ś":{"ha":774,"x_min":28,"x_max":746,"o":"m 386 1256 l 617 1256 l 476 956 l 258 956 l 386 1256 m 357 -14 q 180 1 264 -14 q 38 44 96 17 l 38 278 q 182 228 103 247 q 325 208 261 208 q 412 220 383 208 q 440 261 440 232 q 414 302 440 288 q 315 340 388 317 q 263 357 294 346 q 122 423 172 388 q 50 508 72 458 q 28 633 28 558 q 410 908 28 908 q 560 896 478 908 q 697 867 642 883 l 697 632 q 460 683 568 683 q 366 674 400 683 q 332 636 332 664 q 347 607 332 618 q 388 588 361 596 q 483 561 415 579 q 647 490 590 532 q 725 394 704 449 q 746 263 746 340 q 647 60 746 135 q 357 -14 547 -14 z "},"Š":{"ha":774,"x_min":28,"x_max":746,"o":"m 65 1244 l 282 1244 l 383 1094 l 489 1244 l 700 1244 l 471 956 l 294 956 l 65 1244 m 357 -14 q 180 1 264 -14 q 38 44 96 17 l 38 278 q 182 228 103 247 q 325 208 261 208 q 412 220 383 208 q 440 261 440 232 q 414 302 440 288 q 315 340 388 317 q 263 357 294 346 q 122 423 172 388 q 50 508 72 458 q 28 633 28 558 q 410 908 28 908 q 560 896 478 908 q 697 867 642 883 l 697 632 q 460 683 568 683 q 366 674 400 683 q 332 636 332 664 q 347 607 332 618 q 388 588 361 596 q 483 561 415 579 q 647 490 590 532 q 725 394 704 449 q 746 263 746 340 q 647 60 746 135 q 357 -14 547 -14 z "},"Ş":{"ha":774,"x_min":28,"x_max":746,"o":"m 746 263 q 668 77 746 149 q 439 -10 590 6 l 424 -54 q 537 -91 497 -54 q 576 -186 576 -128 q 518 -294 576 -256 q 346 -333 460 -333 q 281 -330 319 -333 q 228 -322 243 -326 l 228 -218 q 310 -229 268 -229 q 382 -217 358 -229 q 406 -181 406 -206 q 390 -149 406 -157 q 343 -140 374 -140 l 247 -140 l 285 -11 q 38 44 133 -3 l 38 278 q 182 228 103 247 q 325 208 261 208 q 412 220 383 208 q 440 261 440 232 q 414 302 440 288 q 315 340 388 317 q 263 357 294 346 q 122 423 172 388 q 50 508 72 458 q 28 633 28 558 q 410 908 28 908 q 560 896 478 908 q 697 867 642 883 l 697 632 q 460 683 568 683 q 366 674 400 683 q 332 636 332 664 q 347 607 332 618 q 388 588 361 596 q 483 561 415 579 q 647 490 590 532 q 725 394 704 449 q 746 263 746 340 z "},"Ŝ":{"ha":774,"x_min":28,"x_max":746,"o":"m 293 1244 l 469 1244 l 699 956 l 488 956 l 382 1106 l 281 956 l 64 956 l 293 1244 m 357 -14 q 180 1 264 -14 q 38 44 96 17 l 38 278 q 182 228 103 247 q 325 208 261 208 q 412 220 383 208 q 440 261 440 232 q 414 302 440 288 q 315 340 388 317 q 263 357 294 346 q 122 423 172 388 q 50 508 72 458 q 28 633 28 558 q 410 908 28 908 q 560 896 478 908 q 697 867 642 883 l 697 632 q 460 683 568 683 q 366 674 400 683 q 332 636 332 664 q 347 607 332 618 q 388 588 361 596 q 483 561 415 579 q 647 490 590 532 q 725 394 704 449 q 746 263 746 340 q 647 60 746 135 q 357 -14 547 -14 z "},"Ș":{"ha":774,"x_min":28,"x_max":746,"o":"m 357 -14 q 180 1 264 -14 q 38 44 96 17 l 38 278 q 182 228 103 247 q 325 208 261 208 q 412 220 383 208 q 440 261 440 232 q 414 302 440 288 q 315 340 388 317 q 263 357 294 346 q 122 423 172 388 q 50 508 72 458 q 28 633 28 558 q 410 908 28 908 q 560 896 478 908 q 697 867 642 883 l 697 632 q 460 683 568 683 q 366 674 400 683 q 332 636 332 664 q 347 607 332 618 q 388 588 361 596 q 483 561 415 579 q 647 490 590 532 q 725 394 704 449 q 746 263 746 340 q 647 60 746 135 q 357 -14 547 -14 m 276 -56 l 519 -56 l 451 -331 l 231 -331 l 276 -56 z "},"Ṡ":{"ha":774,"x_min":28,"x_max":746,"o":"m 279 1176 l 478 1176 l 478 994 l 279 994 l 279 1176 m 357 -14 q 180 1 264 -14 q 38 44 96 17 l 38 278 q 182 228 103 247 q 325 208 261 208 q 412 220 383 208 q 440 261 440 232 q 414 302 440 288 q 315 340 388 317 q 263 357 294 346 q 122 423 172 388 q 50 508 72 458 q 28 633 28 558 q 410 908 28 908 q 560 896 478 908 q 697 867 642 883 l 697 632 q 460 683 568 683 q 366 674 400 683 q 332 636 332 664 q 347 607 332 618 q 388 588 361 596 q 483 561 415 579 q 647 490 590 532 q 725 394 704 449 q 746 263 746 340 q 647 60 746 135 q 357 -14 547 -14 z "},"Ṣ":{"ha":774,"x_min":28,"x_max":746,"o":"m 357 -14 q 180 1 264 -14 q 38 44 96 17 l 38 278 q 182 228 103 247 q 325 208 261 208 q 412 220 383 208 q 440 261 440 232 q 414 302 440 288 q 315 340 388 317 q 263 357 294 346 q 122 423 172 388 q 50 508 72 458 q 28 633 28 558 q 410 908 28 908 q 560 896 478 908 q 697 867 642 883 l 697 632 q 460 683 568 683 q 366 674 400 683 q 332 636 332 664 q 347 607 332 618 q 388 588 361 596 q 483 561 415 579 q 647 490 590 532 q 725 394 704 449 q 746 263 746 340 q 647 60 746 135 q 357 -14 547 -14 m 281 -64 l 479 -64 l 479 -244 l 281 -244 l 281 -64 z "},"ẞ":{"ha":900,"x_min":49,"x_max":872,"o":"m 568 -14 q 464 -6 514 -14 q 383 17 414 3 l 383 214 q 433 201 404 206 q 486 196 463 196 q 549 212 531 196 q 568 263 568 228 q 547 304 568 290 q 482 318 526 318 l 394 318 l 394 469 l 564 608 q 449 661 564 661 q 329 554 329 661 l 329 0 l 49 0 l 49 563 q 97 745 49 667 q 236 866 146 824 q 449 908 326 908 q 743 816 644 908 q 842 576 842 724 l 672 436 l 692 436 q 822 382 772 436 q 872 236 872 328 q 792 50 872 114 q 568 -14 713 -14 z "},"Ə":{"ha":967,"x_min":28,"x_max":939,"o":"m 476 -14 q 145 93 263 -14 q 28 393 28 200 l 28 554 l 663 554 q 622 648 653 614 q 534 697 592 682 q 381 711 476 711 q 218 692 314 711 q 72 651 122 674 l 72 843 q 243 890 144 871 q 444 908 342 908 q 706 850 594 908 q 878 685 818 792 q 939 433 939 578 q 824 104 939 222 q 476 -14 708 -14 m 476 171 q 619 219 575 171 q 663 360 663 267 l 288 360 l 288 324 q 335 214 288 257 q 476 171 383 171 z "},"T":{"ha":778,"x_min":0,"x_max":778,"o":"m 239 676 l 0 676 l 0 894 l 778 894 l 778 676 l 538 676 l 538 0 l 239 0 l 239 676 z "},"Ŧ":{"ha":778,"x_min":0,"x_max":778,"o":"m 239 350 l 118 350 l 118 544 l 239 544 l 239 676 l 0 676 l 0 894 l 778 894 l 778 676 l 538 676 l 538 544 l 651 544 l 651 350 l 538 350 l 538 0 l 239 0 l 239 350 z "},"Ť":{"ha":778,"x_min":0,"x_max":778,"o":"m 72 1244 l 289 1244 l 390 1094 l 496 1244 l 707 1244 l 478 956 l 301 956 l 72 1244 m 239 676 l 0 676 l 0 894 l 778 894 l 778 676 l 538 676 l 538 0 l 239 0 l 239 676 z "},"Ţ":{"ha":778,"x_min":0,"x_max":778,"o":"m 465 0 l 446 -54 q 559 -91 519 -54 q 599 -186 599 -128 q 540 -294 599 -256 q 368 -333 482 -333 q 303 -330 342 -333 q 250 -322 265 -326 l 250 -218 q 332 -229 290 -229 q 404 -217 381 -229 q 428 -181 428 -206 q 412 -149 428 -157 q 365 -140 396 -140 l 269 -140 l 310 0 l 239 0 l 239 676 l 0 676 l 0 894 l 778 894 l 778 676 l 538 676 l 538 0 l 465 0 z "},"Ț":{"ha":778,"x_min":0,"x_max":778,"o":"m 239 676 l 0 676 l 0 894 l 778 894 l 778 676 l 538 676 l 538 0 l 239 0 l 239 676 m 269 -56 l 500 -56 l 415 -385 l 221 -385 l 269 -56 z "},"Ṭ":{"ha":778,"x_min":0,"x_max":778,"o":"m 239 676 l 0 676 l 0 894 l 778 894 l 778 676 l 538 676 l 538 0 l 239 0 l 239 676 m 292 -64 l 490 -64 l 490 -244 l 292 -244 l 292 -64 z "},"Ṯ":{"ha":778,"x_min":0,"x_max":778,"o":"m 239 676 l 0 676 l 0 894 l 778 894 l 778 676 l 538 676 l 538 0 l 239 0 l 239 676 m 154 -69 l 625 -69 l 625 -244 l 154 -244 l 154 -69 z "},"U":{"ha":967,"x_min":49,"x_max":918,"o":"m 483 -14 q 258 28 356 -14 q 104 151 160 69 q 49 349 49 233 l 49 894 l 347 894 l 347 383 q 483 239 347 239 q 619 383 619 239 l 619 894 l 918 894 l 918 349 q 863 151 918 233 q 709 28 807 69 q 483 -14 611 -14 z "},"Ú":{"ha":967,"x_min":49,"x_max":918,"o":"m 501 1256 l 732 1256 l 592 956 l 374 956 l 501 1256 m 483 -14 q 258 28 356 -14 q 104 151 160 69 q 49 349 49 233 l 49 894 l 347 894 l 347 383 q 483 239 347 239 q 619 383 619 239 l 619 894 l 918 894 l 918 349 q 863 151 918 233 q 709 28 807 69 q 483 -14 611 -14 z "},"Ŭ":{"ha":967,"x_min":49,"x_max":918,"o":"m 482 956 q 275 1030 351 956 q 199 1239 199 1104 l 390 1239 q 412 1152 390 1185 q 482 1119 433 1119 q 575 1239 575 1119 l 768 1239 q 691 1030 768 1104 q 482 956 614 956 m 483 -14 q 258 28 356 -14 q 104 151 160 69 q 49 349 49 233 l 49 894 l 347 894 l 347 383 q 483 239 347 239 q 619 383 619 239 l 619 894 l 918 894 l 918 349 q 863 151 918 233 q 709 28 807 69 q 483 -14 611 -14 z "},"Ǔ":{"ha":967,"x_min":49,"x_max":918,"o":"m 165 1244 l 382 1244 l 483 1094 l 589 1244 l 800 1244 l 571 956 l 394 956 l 165 1244 m 483 -14 q 258 28 356 -14 q 104 151 160 69 q 49 349 49 233 l 49 894 l 347 894 l 347 383 q 483 239 347 239 q 619 383 619 239 l 619 894 l 918 894 l 918 349 q 863 151 918 233 q 709 28 807 69 q 483 -14 611 -14 z "},"Û":{"ha":967,"x_min":49,"x_max":918,"o":"m 396 1244 l 572 1244 l 801 956 l 590 956 l 485 1106 l 383 956 l 167 956 l 396 1244 m 483 -14 q 258 28 356 -14 q 104 151 160 69 q 49 349 49 233 l 49 894 l 347 894 l 347 383 q 483 239 347 239 q 619 383 619 239 l 619 894 l 918 894 l 918 349 q 863 151 918 233 q 709 28 807 69 q 483 -14 611 -14 z "},"Ü":{"ha":967,"x_min":49,"x_max":918,"o":"m 226 1176 l 426 1176 l 426 994 l 226 994 l 226 1176 m 540 1176 l 739 1176 l 739 994 l 540 994 l 540 1176 m 483 -14 q 258 28 356 -14 q 104 151 160 69 q 49 349 49 233 l 49 894 l 347 894 l 347 383 q 483 239 347 239 q 619 383 619 239 l 619 894 l 918 894 l 918 349 q 863 151 918 233 q 709 28 807 69 q 483 -14 611 -14 z "},"Ǘ":{"ha":967,"x_min":49,"x_max":918,"o":"m 457 1371 l 678 1371 l 578 1175 l 378 1175 l 457 1371 m 232 1136 l 426 1136 l 426 965 l 232 965 l 232 1136 m 540 1136 l 735 1136 l 735 965 l 540 965 l 540 1136 m 483 -14 q 258 28 356 -14 q 104 151 160 69 q 49 349 49 233 l 49 894 l 347 894 l 347 383 q 483 239 347 239 q 619 383 619 239 l 619 894 l 918 894 l 918 349 q 863 151 918 233 q 709 28 807 69 q 483 -14 611 -14 z "},"Ǚ":{"ha":967,"x_min":49,"x_max":918,"o":"m 190 1367 l 408 1367 l 483 1265 l 563 1367 l 776 1367 l 585 1174 l 381 1174 l 190 1367 m 226 1136 l 421 1136 l 421 965 l 226 965 l 226 1136 m 535 1136 l 729 1136 l 729 965 l 535 965 l 535 1136 m 483 -14 q 258 28 356 -14 q 104 151 160 69 q 49 349 49 233 l 49 894 l 347 894 l 347 383 q 483 239 347 239 q 619 383 619 239 l 619 894 l 918 894 l 918 349 q 863 151 918 233 q 709 28 807 69 q 483 -14 611 -14 z "},"Ǜ":{"ha":967,"x_min":49,"x_max":918,"o":"m 289 1407 l 510 1407 l 589 1211 l 389 1211 l 289 1407 m 232 1172 l 426 1172 l 426 1001 l 232 1001 l 232 1172 m 540 1172 l 735 1172 l 735 1001 l 540 1001 l 540 1172 m 483 -14 q 258 28 356 -14 q 104 151 160 69 q 49 349 49 233 l 49 894 l 347 894 l 347 383 q 483 239 347 239 q 619 383 619 239 l 619 894 l 918 894 l 918 349 q 863 151 918 233 q 709 28 807 69 q 483 -14 611 -14 z "},"Ǖ":{"ha":967,"x_min":49,"x_max":918,"o":"m 247 1397 l 718 1397 l 718 1222 l 247 1222 l 247 1397 m 226 1150 l 426 1150 l 426 968 l 226 968 l 226 1150 m 540 1150 l 739 1150 l 739 968 l 540 968 l 540 1150 m 483 -14 q 258 28 356 -14 q 104 151 160 69 q 49 349 49 233 l 49 894 l 347 894 l 347 383 q 483 239 347 239 q 619 383 619 239 l 619 894 l 918 894 l 918 349 q 863 151 918 233 q 709 28 807 69 q 483 -14 611 -14 z "},"Ụ":{"ha":967,"x_min":49,"x_max":918,"o":"m 483 -14 q 258 28 356 -14 q 104 151 160 69 q 49 349 49 233 l 49 894 l 347 894 l 347 383 q 483 239 347 239 q 619 383 619 239 l 619 894 l 918 894 l 918 349 q 863 151 918 233 q 709 28 807 69 q 483 -14 611 -14 m 383 -64 l 582 -64 l 582 -244 l 383 -244 l 383 -64 z "},"Ù":{"ha":967,"x_min":49,"x_max":918,"o":"m 238 1256 l 469 1256 l 597 956 l 378 956 l 238 1256 m 483 -14 q 258 28 356 -14 q 104 151 160 69 q 49 349 49 233 l 49 894 l 347 894 l 347 383 q 483 239 347 239 q 619 383 619 239 l 619 894 l 918 894 l 918 349 q 863 151 918 233 q 709 28 807 69 q 483 -14 611 -14 z "},"Ủ":{"ha":967,"x_min":49,"x_max":918,"o":"m 371 1068 q 465 1086 438 1072 q 492 1125 492 1100 q 415 1168 492 1168 q 335 1156 375 1168 l 335 1275 q 506 1294 400 1294 q 655 1254 601 1294 q 708 1150 708 1214 q 681 1058 708 1090 q 593 1008 654 1026 l 593 956 l 371 956 l 371 1068 m 483 -14 q 258 28 356 -14 q 104 151 160 69 q 49 349 49 233 l 49 894 l 347 894 l 347 383 q 483 239 347 239 q 619 383 619 239 l 619 894 l 918 894 l 918 349 q 863 151 918 233 q 709 28 807 69 q 483 -14 611 -14 z "},"Ư":{"ha":1217,"x_min":49,"x_max":1203,"o":"m 49 894 l 347 894 l 347 383 q 483 239 347 239 q 619 383 619 239 l 619 894 l 918 894 l 918 821 q 995 858 972 828 q 1018 956 1018 888 l 1203 956 q 1174 780 1203 844 q 1085 685 1146 715 q 918 650 1024 654 l 918 349 q 863 151 918 233 q 709 28 807 69 q 483 -14 611 -14 q 258 28 356 -14 q 104 151 160 69 q 49 349 49 233 l 49 894 z "},"Ứ":{"ha":1217,"x_min":49,"x_max":1203,"o":"m 497 1256 l 728 1256 l 588 956 l 369 956 l 497 1256 m 49 894 l 347 894 l 347 383 q 483 239 347 239 q 619 383 619 239 l 619 894 l 918 894 l 918 821 q 995 858 972 828 q 1018 956 1018 888 l 1203 956 q 1174 780 1203 844 q 1085 685 1146 715 q 918 650 1024 654 l 918 349 q 863 151 918 233 q 709 28 807 69 q 483 -14 611 -14 q 258 28 356 -14 q 104 151 160 69 q 49 349 49 233 l 49 894 z "},"Ự":{"ha":1217,"x_min":49,"x_max":1203,"o":"m 49 894 l 347 894 l 347 383 q 483 239 347 239 q 619 383 619 239 l 619 894 l 918 894 l 918 821 q 995 858 972 828 q 1018 956 1018 888 l 1203 956 q 1174 780 1203 844 q 1085 685 1146 715 q 918 650 1024 654 l 918 349 q 863 151 918 233 q 709 28 807 69 q 483 -14 611 -14 q 258 28 356 -14 q 104 151 160 69 q 49 349 49 233 l 49 894 m 388 -64 l 586 -64 l 586 -244 l 388 -244 l 388 -64 z "},"Ừ":{"ha":1217,"x_min":49,"x_max":1203,"o":"m 243 1256 l 475 1256 l 603 956 l 383 956 l 243 1256 m 49 894 l 347 894 l 347 383 q 483 239 347 239 q 619 383 619 239 l 619 894 l 918 894 l 918 821 q 995 858 972 828 q 1018 956 1018 888 l 1203 956 q 1174 780 1203 844 q 1085 685 1146 715 q 918 650 1024 654 l 918 349 q 863 151 918 233 q 709 28 807 69 q 483 -14 611 -14 q 258 28 356 -14 q 104 151 160 69 q 49 349 49 233 l 49 894 z "},"Ử":{"ha":1217,"x_min":49,"x_max":1203,"o":"m 351 1068 q 445 1086 418 1072 q 472 1125 472 1100 q 396 1168 472 1168 q 315 1156 356 1168 l 315 1275 q 486 1294 381 1294 q 635 1254 582 1294 q 689 1150 689 1214 q 662 1058 689 1090 q 574 1008 635 1026 l 574 956 l 351 956 l 351 1068 m 49 894 l 347 894 l 347 383 q 483 239 347 239 q 619 383 619 239 l 619 894 l 918 894 l 918 821 q 995 858 972 828 q 1018 956 1018 888 l 1203 956 q 1174 780 1203 844 q 1085 685 1146 715 q 918 650 1024 654 l 918 349 q 863 151 918 233 q 709 28 807 69 q 483 -14 611 -14 q 258 28 356 -14 q 104 151 160 69 q 49 349 49 233 l 49 894 z "},"Ữ":{"ha":1217,"x_min":49,"x_max":1203,"o":"m 629 958 q 565 966 596 958 q 485 990 533 974 q 416 1011 442 1004 q 364 1018 390 1018 q 224 963 279 1018 l 224 1142 q 282 1175 244 1161 q 360 1189 319 1189 q 423 1181 393 1189 q 496 1158 453 1174 q 566 1136 538 1143 q 625 1129 594 1129 q 703 1145 669 1129 q 756 1186 738 1161 l 756 1006 q 706 972 742 986 q 629 958 671 958 m 49 894 l 347 894 l 347 383 q 483 239 347 239 q 619 383 619 239 l 619 894 l 918 894 l 918 821 q 995 858 972 828 q 1018 956 1018 888 l 1203 956 q 1174 780 1203 844 q 1085 685 1146 715 q 918 650 1024 654 l 918 349 q 863 151 918 233 q 709 28 807 69 q 483 -14 611 -14 q 258 28 356 -14 q 104 151 160 69 q 49 349 49 233 l 49 894 z "},"Ű":{"ha":967,"x_min":49,"x_max":918,"o":"m 294 1225 l 547 1225 l 397 956 l 169 956 l 294 1225 m 644 1225 l 897 1225 l 747 956 l 519 956 l 644 1225 m 483 -14 q 258 28 356 -14 q 104 151 160 69 q 49 349 49 233 l 49 894 l 347 894 l 347 383 q 483 239 347 239 q 619 383 619 239 l 619 894 l 918 894 l 918 349 q 863 151 918 233 q 709 28 807 69 q 483 -14 611 -14 z "},"Ū":{"ha":967,"x_min":49,"x_max":918,"o":"m 247 1182 l 718 1182 l 718 1007 l 247 1007 l 247 1182 m 483 -14 q 258 28 356 -14 q 104 151 160 69 q 49 349 49 233 l 49 894 l 347 894 l 347 383 q 483 239 347 239 q 619 383 619 239 l 619 894 l 918 894 l 918 349 q 863 151 918 233 q 709 28 807 69 q 483 -14 611 -14 z "},"Ų":{"ha":967,"x_min":49,"x_max":918,"o":"m 918 894 l 918 349 q 826 106 918 199 q 578 -7 733 14 q 514 -115 514 -61 q 576 -164 514 -164 q 614 -160 594 -164 q 646 -149 633 -156 l 646 -282 q 578 -299 621 -292 q 492 -306 536 -306 q 349 -271 401 -306 q 297 -167 297 -236 q 322 -78 297 -119 q 389 -7 347 -36 q 141 106 233 14 q 49 349 49 199 l 49 894 l 347 894 l 347 383 q 483 239 347 239 q 619 383 619 239 l 619 894 l 918 894 z "},"Ů":{"ha":967,"x_min":49,"x_max":918,"o":"m 482 956 q 333 1009 388 956 q 279 1146 279 1063 q 333 1284 279 1231 q 482 1338 388 1338 q 632 1284 578 1338 q 686 1146 686 1231 q 632 1009 686 1063 q 482 956 578 956 m 482 1074 q 538 1094 518 1074 q 558 1146 558 1115 q 538 1198 558 1176 q 482 1219 518 1219 q 426 1198 446 1219 q 406 1146 406 1176 q 426 1094 406 1115 q 482 1074 446 1074 m 483 -14 q 258 28 356 -14 q 104 151 160 69 q 49 349 49 233 l 49 894 l 347 894 l 347 383 q 483 239 347 239 q 619 383 619 239 l 619 894 l 918 894 l 918 349 q 863 151 918 233 q 709 28 807 69 q 483 -14 611 -14 z "},"Ũ":{"ha":967,"x_min":49,"x_max":918,"o":"m 622 964 q 558 972 589 964 q 478 996 526 979 q 409 1017 435 1010 q 357 1024 383 1024 q 217 968 272 1024 l 217 1147 q 275 1181 238 1167 q 353 1194 313 1194 q 416 1187 386 1194 q 489 1164 446 1179 q 559 1142 531 1149 q 618 1135 588 1135 q 697 1151 663 1135 q 749 1192 731 1167 l 749 1011 q 699 978 735 992 q 622 964 664 964 m 483 -14 q 258 28 356 -14 q 104 151 160 69 q 49 349 49 233 l 49 894 l 347 894 l 347 383 q 483 239 347 239 q 619 383 619 239 l 619 894 l 918 894 l 918 349 q 863 151 918 233 q 709 28 807 69 q 483 -14 611 -14 z "},"V":{"ha":1056,"x_min":28,"x_max":1028,"o":"m 28 894 l 339 894 l 526 350 l 715 894 l 1028 894 l 683 0 l 371 0 l 28 894 z "},"W":{"ha":1251,"x_min":28,"x_max":1224,"o":"m 28 894 l 319 894 l 404 486 l 479 751 l 479 894 l 722 894 l 840 485 l 932 894 l 1224 894 l 1017 0 l 751 0 l 631 407 l 500 0 l 236 0 l 28 894 z "},"Ẃ":{"ha":1251,"x_min":28,"x_max":1224,"o":"m 613 1256 l 843 1256 l 703 956 l 485 956 l 613 1256 m 28 894 l 319 894 l 404 486 l 479 751 l 479 894 l 722 894 l 840 485 l 932 894 l 1224 894 l 1017 0 l 751 0 l 631 407 l 500 0 l 236 0 l 28 894 z "},"Ŵ":{"ha":1251,"x_min":28,"x_max":1224,"o":"m 543 1244 l 719 1244 l 949 956 l 738 956 l 632 1106 l 531 956 l 314 956 l 543 1244 m 28 894 l 319 894 l 404 486 l 479 751 l 479 894 l 722 894 l 840 485 l 932 894 l 1224 894 l 1017 0 l 751 0 l 631 407 l 500 0 l 236 0 l 28 894 z "},"Ẅ":{"ha":1251,"x_min":28,"x_max":1224,"o":"m 375 1176 l 575 1176 l 575 994 l 375 994 l 375 1176 m 689 1176 l 888 1176 l 888 994 l 689 994 l 689 1176 m 28 894 l 319 894 l 404 486 l 479 751 l 479 894 l 722 894 l 840 485 l 932 894 l 1224 894 l 1017 0 l 751 0 l 631 407 l 500 0 l 236 0 l 28 894 z "},"Ẁ":{"ha":1251,"x_min":28,"x_max":1224,"o":"m 357 1256 l 589 1256 l 717 956 l 497 956 l 357 1256 m 28 894 l 319 894 l 404 486 l 479 751 l 479 894 l 722 894 l 840 485 l 932 894 l 1224 894 l 1017 0 l 751 0 l 631 407 l 500 0 l 236 0 l 28 894 z "},"X":{"ha":1085,"x_min":35,"x_max":1011,"o":"m 365 453 l 47 894 l 358 894 l 522 660 l 688 894 l 999 894 l 681 453 l 1011 0 l 696 0 l 522 243 l 350 0 l 35 0 l 365 453 z "},"Y":{"ha":1000,"x_min":28,"x_max":972,"o":"m 350 326 l 28 894 l 339 894 l 500 583 l 661 894 l 972 894 l 649 326 l 649 0 l 350 0 l 350 326 z "},"Ý":{"ha":1000,"x_min":28,"x_max":972,"o":"m 515 1256 l 746 1256 l 606 956 l 388 956 l 515 1256 m 350 326 l 28 894 l 339 894 l 500 583 l 661 894 l 972 894 l 649 326 l 649 0 l 350 0 l 350 326 z "},"Ŷ":{"ha":1000,"x_min":28,"x_max":972,"o":"m 413 1244 l 589 1244 l 818 956 l 607 956 l 501 1106 l 400 956 l 183 956 l 413 1244 m 350 326 l 28 894 l 339 894 l 500 583 l 661 894 l 972 894 l 649 326 l 649 0 l 350 0 l 350 326 z "},"Ÿ":{"ha":1000,"x_min":28,"x_max":972,"o":"m 244 1176 l 444 1176 l 444 994 l 244 994 l 244 1176 m 558 1176 l 757 1176 l 757 994 l 558 994 l 558 1176 m 350 326 l 28 894 l 339 894 l 500 583 l 661 894 l 972 894 l 649 326 l 649 0 l 350 0 l 350 326 z "},"Ẏ":{"ha":1000,"x_min":28,"x_max":972,"o":"m 400 1176 l 599 1176 l 599 994 l 400 994 l 400 1176 m 350 326 l 28 894 l 339 894 l 500 583 l 661 894 l 972 894 l 649 326 l 649 0 l 350 0 l 350 326 z "},"Ỵ":{"ha":1000,"x_min":28,"x_max":972,"o":"m 350 326 l 28 894 l 339 894 l 500 583 l 661 894 l 972 894 l 649 326 l 649 0 l 350 0 l 350 326 m 401 -62 l 600 -62 l 600 -243 l 401 -243 l 401 -62 z "},"Ỳ":{"ha":1000,"x_min":28,"x_max":972,"o":"m 247 1256 l 479 1256 l 607 956 l 388 956 l 247 1256 m 350 326 l 28 894 l 339 894 l 500 583 l 661 894 l 972 894 l 649 326 l 649 0 l 350 0 l 350 326 z "},"Ỷ":{"ha":1000,"x_min":28,"x_max":972,"o":"m 386 1068 q 480 1086 453 1072 q 507 1125 507 1100 q 431 1168 507 1168 q 350 1156 390 1168 l 350 1275 q 521 1294 415 1294 q 670 1254 617 1294 q 724 1150 724 1214 q 697 1058 724 1090 q 608 1008 669 1026 l 608 956 l 386 956 l 386 1068 m 350 326 l 28 894 l 339 894 l 500 583 l 661 894 l 972 894 l 649 326 l 649 0 l 350 0 l 350 326 z "},"Ỹ":{"ha":1000,"x_min":28,"x_max":972,"o":"m 639 964 q 574 972 606 964 q 494 996 543 979 q 426 1017 451 1010 q 374 1024 400 1024 q 233 968 289 1024 l 233 1147 q 292 1181 254 1167 q 369 1194 329 1194 q 433 1187 403 1194 q 506 1164 463 1179 q 576 1142 547 1149 q 635 1135 604 1135 q 713 1151 679 1135 q 765 1192 747 1167 l 765 1011 q 716 978 751 992 q 639 964 681 964 m 350 326 l 28 894 l 339 894 l 500 583 l 661 894 l 972 894 l 649 326 l 649 0 l 350 0 l 350 326 z "},"Z":{"ha":808,"x_min":28,"x_max":788,"o":"m 28 147 l 386 657 l 47 657 l 47 894 l 779 894 l 779 731 l 425 228 l 788 228 l 788 0 l 28 0 l 28 147 z "},"Ź":{"ha":808,"x_min":28,"x_max":788,"o":"m 406 1256 l 636 1256 l 496 956 l 278 956 l 406 1256 m 28 147 l 386 657 l 47 657 l 47 894 l 779 894 l 779 731 l 425 228 l 788 228 l 788 0 l 28 0 l 28 147 z "},"Ž":{"ha":811,"x_min":28,"x_max":788,"o":"m 110 1244 l 326 1244 l 428 1094 l 533 1244 l 744 1244 l 515 956 l 339 956 l 110 1244 m 28 147 l 386 657 l 47 657 l 47 894 l 779 894 l 779 731 l 425 228 l 788 228 l 788 0 l 28 0 l 28 147 z "},"Ż":{"ha":811,"x_min":28,"x_max":788,"o":"m 315 1176 l 514 1176 l 514 994 l 315 994 l 315 1176 m 28 147 l 386 657 l 47 657 l 47 894 l 779 894 l 779 731 l 425 228 l 788 228 l 788 0 l 28 0 l 28 147 z "},"Ẓ":{"ha":808,"x_min":28,"x_max":788,"o":"m 28 147 l 386 657 l 47 657 l 47 894 l 779 894 l 779 731 l 425 228 l 788 228 l 788 0 l 28 0 l 28 147 m 317 -64 l 515 -64 l 515 -244 l 317 -244 l 317 -64 z "},"a":{"ha":804,"x_min":28,"x_max":753,"o":"m 260 -14 q 93 40 158 -14 q 28 201 28 93 q 98 367 28 310 q 310 424 168 424 l 469 424 l 469 433 q 338 490 469 490 q 224 481 283 490 q 110 456 164 472 l 110 624 q 240 659 161 646 q 397 672 319 672 q 658 604 564 672 q 753 399 753 536 l 753 0 l 492 0 l 479 50 q 260 -14 404 -14 m 368 154 q 469 196 431 154 l 469 267 l 375 267 q 319 253 338 267 q 301 210 301 240 q 368 154 301 154 z "},"á":{"ha":804,"x_min":28,"x_max":753,"o":"m 421 1025 l 651 1025 l 511 725 l 293 725 l 421 1025 m 260 -14 q 93 40 158 -14 q 28 201 28 93 q 98 367 28 310 q 310 424 168 424 l 469 424 l 469 433 q 338 490 469 490 q 224 481 283 490 q 110 456 164 472 l 110 624 q 240 659 161 646 q 397 672 319 672 q 658 604 564 672 q 753 399 753 536 l 753 0 l 492 0 l 479 50 q 260 -14 404 -14 m 368 154 q 469 196 431 154 l 469 267 l 375 267 q 319 253 338 267 q 301 210 301 240 q 368 154 301 154 z "},"ă":{"ha":804,"x_min":28,"x_max":753,"o":"m 414 725 q 207 799 283 725 q 131 1008 131 874 l 322 1008 q 344 922 322 954 q 414 889 365 889 q 507 1008 507 889 l 700 1008 q 623 799 700 874 q 414 725 546 725 m 260 -14 q 93 40 158 -14 q 28 201 28 93 q 98 367 28 310 q 310 424 168 424 l 469 424 l 469 433 q 338 490 469 490 q 224 481 283 490 q 110 456 164 472 l 110 624 q 240 659 161 646 q 397 672 319 672 q 658 604 564 672 q 753 399 753 536 l 753 0 l 492 0 l 479 50 q 260 -14 404 -14 m 368 154 q 469 196 431 154 l 469 267 l 375 267 q 319 253 338 267 q 301 210 301 240 q 368 154 301 154 z "},"ắ":{"ha":804,"x_min":28,"x_max":753,"o":"m 415 1214 l 611 1214 l 500 1008 l 322 1008 l 415 1214 m 413 725 q 219 787 290 725 q 149 975 149 849 l 315 975 q 340 898 315 926 q 413 869 364 869 q 486 898 461 869 q 511 975 511 926 l 676 975 q 606 787 676 849 q 413 725 536 725 m 260 -14 q 93 40 158 -14 q 28 201 28 93 q 98 367 28 310 q 310 424 168 424 l 469 424 l 469 433 q 338 490 469 490 q 224 481 283 490 q 110 456 164 472 l 110 624 q 240 659 161 646 q 397 672 319 672 q 658 604 564 672 q 753 399 753 536 l 753 0 l 492 0 l 479 50 q 260 -14 404 -14 m 368 154 q 469 196 431 154 l 469 267 l 375 267 q 319 253 338 267 q 301 210 301 240 q 368 154 301 154 z "},"ặ":{"ha":804,"x_min":28,"x_max":753,"o":"m 431 725 q 224 799 300 725 q 147 1008 147 874 l 339 1008 q 360 922 339 954 q 431 889 382 889 q 524 1008 524 889 l 717 1008 q 640 799 717 874 q 431 725 563 725 m 260 -14 q 93 40 158 -14 q 28 201 28 93 q 98 367 28 310 q 310 424 168 424 l 469 424 l 469 433 q 338 490 469 490 q 224 481 283 490 q 110 456 164 472 l 110 624 q 240 659 161 646 q 397 672 319 672 q 658 604 564 672 q 753 399 753 536 l 753 0 l 492 0 l 479 50 q 260 -14 404 -14 m 368 154 q 469 196 431 154 l 469 267 l 375 267 q 319 253 338 267 q 301 210 301 240 q 368 154 301 154 m 336 -64 l 535 -64 l 535 -244 l 336 -244 l 336 -64 z "},"ằ":{"ha":804,"x_min":28,"x_max":753,"o":"m 218 1214 l 414 1214 l 507 1008 l 329 1008 l 218 1214 m 417 725 q 223 787 293 725 q 153 975 153 849 l 318 975 q 343 898 318 926 q 417 869 368 869 q 490 898 465 869 q 514 975 514 926 l 681 975 q 610 787 681 849 q 417 725 539 725 m 260 -14 q 93 40 158 -14 q 28 201 28 93 q 98 367 28 310 q 310 424 168 424 l 469 424 l 469 433 q 338 490 469 490 q 224 481 283 490 q 110 456 164 472 l 110 624 q 240 659 161 646 q 397 672 319 672 q 658 604 564 672 q 753 399 753 536 l 753 0 l 492 0 l 479 50 q 260 -14 404 -14 m 368 154 q 469 196 431 154 l 469 267 l 375 267 q 319 253 338 267 q 301 210 301 240 q 368 154 301 154 z "},"ẳ":{"ha":804,"x_min":28,"x_max":753,"o":"m 326 1079 q 426 1125 426 1083 q 412 1152 426 1144 q 365 1160 397 1160 q 300 1146 333 1160 l 300 1246 q 366 1259 326 1254 q 444 1264 406 1264 q 565 1230 521 1264 q 608 1144 608 1196 q 585 1073 608 1099 q 511 1033 563 1047 l 511 994 l 326 994 l 326 1079 m 419 725 q 226 787 296 725 q 156 975 156 849 l 321 975 q 346 898 321 926 q 419 869 371 869 q 492 898 468 869 q 517 975 517 926 l 683 975 q 613 787 683 849 q 419 725 542 725 m 260 -14 q 93 40 158 -14 q 28 201 28 93 q 98 367 28 310 q 310 424 168 424 l 469 424 l 469 433 q 338 490 469 490 q 224 481 283 490 q 110 456 164 472 l 110 624 q 240 659 161 646 q 397 672 319 672 q 658 604 564 672 q 753 399 753 536 l 753 0 l 492 0 l 479 50 q 260 -14 404 -14 m 368 154 q 469 196 431 154 l 469 267 l 375 267 q 319 253 338 267 q 301 210 301 240 q 368 154 301 154 z "},"ẵ":{"ha":804,"x_min":28,"x_max":753,"o":"m 544 1004 q 485 1012 514 1004 q 413 1035 456 1019 q 351 1054 376 1047 q 300 1061 325 1061 q 168 1008 218 1061 l 168 1154 q 222 1186 188 1174 q 296 1199 257 1199 q 353 1192 326 1199 q 424 1169 381 1185 q 487 1149 460 1156 q 540 1142 514 1142 q 615 1156 582 1142 q 664 1196 647 1171 l 664 1049 q 617 1017 650 1031 q 544 1004 583 1004 m 414 725 q 220 787 290 725 q 150 975 150 849 l 315 975 q 340 898 315 926 q 414 869 365 869 q 487 898 463 869 q 511 975 511 926 l 678 975 q 607 787 678 849 q 414 725 536 725 m 260 -14 q 93 40 158 -14 q 28 201 28 93 q 98 367 28 310 q 310 424 168 424 l 469 424 l 469 433 q 338 490 469 490 q 224 481 283 490 q 110 456 164 472 l 110 624 q 240 659 161 646 q 397 672 319 672 q 658 604 564 672 q 753 399 753 536 l 753 0 l 492 0 l 479 50 q 260 -14 404 -14 m 368 154 q 469 196 431 154 l 469 267 l 375 267 q 319 253 338 267 q 301 210 301 240 q 368 154 301 154 z "},"ǎ":{"ha":804,"x_min":28,"x_max":753,"o":"m 92 1013 l 308 1013 l 410 863 l 515 1013 l 726 1013 l 497 724 l 321 724 l 92 1013 m 260 -14 q 93 40 158 -14 q 28 201 28 93 q 98 367 28 310 q 310 424 168 424 l 469 424 l 469 433 q 338 490 469 490 q 224 481 283 490 q 110 456 164 472 l 110 624 q 240 659 161 646 q 397 672 319 672 q 658 604 564 672 q 753 399 753 536 l 753 0 l 492 0 l 479 50 q 260 -14 404 -14 m 368 154 q 469 196 431 154 l 469 267 l 375 267 q 319 253 338 267 q 301 210 301 240 q 368 154 301 154 z "},"â":{"ha":804,"x_min":28,"x_max":753,"o":"m 325 1014 l 501 1014 l 731 725 l 519 725 l 414 875 l 313 725 l 96 725 l 325 1014 m 260 -14 q 93 40 158 -14 q 28 201 28 93 q 98 367 28 310 q 310 424 168 424 l 469 424 l 469 433 q 338 490 469 490 q 224 481 283 490 q 110 456 164 472 l 110 624 q 240 659 161 646 q 397 672 319 672 q 658 604 564 672 q 753 399 753 536 l 753 0 l 492 0 l 479 50 q 260 -14 404 -14 m 368 154 q 469 196 431 154 l 469 267 l 375 267 q 319 253 338 267 q 301 210 301 240 q 368 154 301 154 z "},"ấ":{"ha":804,"x_min":28,"x_max":918,"o":"m 700 1131 l 918 1131 l 807 903 l 599 903 l 700 1131 m 306 947 l 522 947 l 731 725 l 496 725 l 414 832 l 335 725 l 97 725 l 306 947 m 260 -14 q 93 40 158 -14 q 28 201 28 93 q 98 367 28 310 q 310 424 168 424 l 469 424 l 469 433 q 338 490 469 490 q 224 481 283 490 q 110 456 164 472 l 110 624 q 240 659 161 646 q 397 672 319 672 q 658 604 564 672 q 753 399 753 536 l 753 0 l 492 0 l 479 50 q 260 -14 404 -14 m 368 154 q 469 196 431 154 l 469 267 l 375 267 q 319 253 338 267 q 301 210 301 240 q 368 154 301 154 z "},"ậ":{"ha":804,"x_min":28,"x_max":753,"o":"m 329 1014 l 506 1014 l 735 725 l 524 725 l 418 875 l 317 725 l 100 725 l 329 1014 m 260 -14 q 93 40 158 -14 q 28 201 28 93 q 98 367 28 310 q 310 424 168 424 l 469 424 l 469 433 q 338 490 469 490 q 224 481 283 490 q 110 456 164 472 l 110 624 q 240 659 161 646 q 397 672 319 672 q 658 604 564 672 q 753 399 753 536 l 753 0 l 492 0 l 479 50 q 260 -14 404 -14 m 368 154 q 469 196 431 154 l 469 267 l 375 267 q 319 253 338 267 q 301 210 301 240 q 368 154 301 154 m 319 -64 l 518 -64 l 518 -244 l 319 -244 l 319 -64 z "},"ầ":{"ha":804,"x_min":-97,"x_max":753,"o":"m -97 1131 l 122 1131 l 224 903 l 15 903 l -97 1131 m 299 947 l 517 947 l 725 725 l 488 725 l 407 832 l 325 725 l 90 725 l 299 947 m 260 -14 q 93 40 158 -14 q 28 201 28 93 q 98 367 28 310 q 310 424 168 424 l 469 424 l 469 433 q 338 490 469 490 q 224 481 283 490 q 110 456 164 472 l 110 624 q 240 659 161 646 q 397 672 319 672 q 658 604 564 672 q 753 399 753 536 l 753 0 l 492 0 l 479 50 q 260 -14 404 -14 m 368 154 q 469 196 431 154 l 469 267 l 375 267 q 319 253 338 267 q 301 210 301 240 q 368 154 301 154 z "},"ẩ":{"ha":804,"x_min":28,"x_max":903,"o":"m 608 978 q 683 989 663 979 q 703 1015 703 999 q 690 1035 703 1029 q 650 1040 676 1040 q 581 1029 619 1040 l 581 1143 q 731 1160 643 1160 q 858 1126 814 1160 q 903 1036 903 1092 q 804 915 903 933 l 804 871 l 608 871 l 608 978 m 300 947 l 518 947 l 726 725 l 492 725 l 410 832 l 329 725 l 92 725 l 300 947 m 260 -14 q 93 40 158 -14 q 28 201 28 93 q 98 367 28 310 q 310 424 168 424 l 469 424 l 469 433 q 338 490 469 490 q 224 481 283 490 q 110 456 164 472 l 110 624 q 240 659 161 646 q 397 672 319 672 q 658 604 564 672 q 753 399 753 536 l 753 0 l 492 0 l 479 50 q 260 -14 404 -14 m 368 154 q 469 196 431 154 l 469 267 l 375 267 q 319 253 338 267 q 301 210 301 240 q 368 154 301 154 z "},"ẫ":{"ha":804,"x_min":28,"x_max":753,"o":"m 538 960 q 478 967 507 960 q 406 990 449 975 q 344 1010 369 1003 q 293 1017 318 1017 q 161 964 211 1017 l 161 1110 q 215 1142 181 1129 q 289 1154 250 1154 q 347 1147 319 1154 q 417 1125 374 1140 q 480 1104 453 1111 q 533 1097 507 1097 q 608 1112 575 1097 q 657 1151 640 1126 l 657 1004 q 610 973 643 986 q 538 960 576 960 m 300 946 l 518 946 l 726 724 l 492 724 l 410 831 l 329 724 l 92 724 l 300 946 m 260 -14 q 93 40 158 -14 q 28 201 28 93 q 98 367 28 310 q 310 424 168 424 l 469 424 l 469 433 q 338 490 469 490 q 224 481 283 490 q 110 456 164 472 l 110 624 q 240 659 161 646 q 397 672 319 672 q 658 604 564 672 q 753 399 753 536 l 753 0 l 492 0 l 479 50 q 260 -14 404 -14 m 368 154 q 469 196 431 154 l 469 267 l 375 267 q 319 253 338 267 q 301 210 301 240 q 368 154 301 154 z "},"ä":{"ha":804,"x_min":28,"x_max":753,"o":"m 172 946 l 372 946 l 372 764 l 172 764 l 172 946 m 486 946 l 685 946 l 685 764 l 486 764 l 486 946 m 260 -14 q 93 40 158 -14 q 28 201 28 93 q 98 367 28 310 q 310 424 168 424 l 469 424 l 469 433 q 338 490 469 490 q 224 481 283 490 q 110 456 164 472 l 110 624 q 240 659 161 646 q 397 672 319 672 q 658 604 564 672 q 753 399 753 536 l 753 0 l 492 0 l 479 50 q 260 -14 404 -14 m 368 154 q 469 196 431 154 l 469 267 l 375 267 q 319 253 338 267 q 301 210 301 240 q 368 154 301 154 z "},"ạ":{"ha":804,"x_min":28,"x_max":753,"o":"m 260 -14 q 93 40 158 -14 q 28 201 28 93 q 98 367 28 310 q 310 424 168 424 l 469 424 l 469 433 q 338 490 469 490 q 224 481 283 490 q 110 456 164 472 l 110 624 q 240 659 161 646 q 397 672 319 672 q 658 604 564 672 q 753 399 753 536 l 753 0 l 492 0 l 479 50 q 260 -14 404 -14 m 368 154 q 469 196 431 154 l 469 267 l 375 267 q 319 253 338 267 q 301 210 301 240 q 368 154 301 154 m 318 -64 l 517 -64 l 517 -244 l 318 -244 l 318 -64 z "},"à":{"ha":804,"x_min":28,"x_max":753,"o":"m 167 1025 l 399 1025 l 526 725 l 307 725 l 167 1025 m 260 -14 q 93 40 158 -14 q 28 201 28 93 q 98 367 28 310 q 310 424 168 424 l 469 424 l 469 433 q 338 490 469 490 q 224 481 283 490 q 110 456 164 472 l 110 624 q 240 659 161 646 q 397 672 319 672 q 658 604 564 672 q 753 399 753 536 l 753 0 l 492 0 l 479 50 q 260 -14 404 -14 m 368 154 q 469 196 431 154 l 469 267 l 375 267 q 319 253 338 267 q 301 210 301 240 q 368 154 301 154 z "},"ả":{"ha":804,"x_min":28,"x_max":753,"o":"m 293 838 q 387 856 360 842 q 414 894 414 869 q 338 938 414 938 q 257 925 297 938 l 257 1044 q 428 1064 322 1064 q 577 1024 524 1064 q 631 919 631 983 q 603 828 631 860 q 515 778 576 796 l 515 725 l 293 725 l 293 838 m 260 -14 q 93 40 158 -14 q 28 201 28 93 q 98 367 28 310 q 310 424 168 424 l 469 424 l 469 433 q 338 490 469 490 q 224 481 283 490 q 110 456 164 472 l 110 624 q 240 659 161 646 q 397 672 319 672 q 658 604 564 672 q 753 399 753 536 l 753 0 l 492 0 l 479 50 q 260 -14 404 -14 m 368 154 q 469 196 431 154 l 469 267 l 375 267 q 319 253 338 267 q 301 210 301 240 q 368 154 301 154 z "},"ɑ":{"ha":853,"x_min":28,"x_max":801,"o":"m 328 -14 q 108 67 189 -14 q 28 303 28 149 q 70 500 28 417 q 185 628 113 583 q 346 672 257 672 q 503 624 444 672 l 503 658 l 801 658 l 801 0 l 543 0 l 529 47 q 441 1 489 17 q 328 -14 393 -14 m 422 200 q 503 231 479 200 l 503 429 q 431 457 475 457 q 357 417 382 457 q 332 303 332 378 q 354 223 332 246 q 422 200 376 200 z "},"ā":{"ha":804,"x_min":28,"x_max":753,"o":"m 176 915 l 647 915 l 647 740 l 176 740 l 176 915 m 260 -14 q 93 40 158 -14 q 28 201 28 93 q 98 367 28 310 q 310 424 168 424 l 469 424 l 469 433 q 338 490 469 490 q 224 481 283 490 q 110 456 164 472 l 110 624 q 240 659 161 646 q 397 672 319 672 q 658 604 564 672 q 753 399 753 536 l 753 0 l 492 0 l 479 50 q 260 -14 404 -14 m 368 154 q 469 196 431 154 l 469 267 l 375 267 q 319 253 338 267 q 301 210 301 240 q 368 154 301 154 z "},"ą":{"ha":804,"x_min":28,"x_max":753,"o":"m 690 0 q 617 -115 617 -57 q 679 -164 617 -164 q 717 -160 697 -164 q 749 -149 736 -156 l 749 -282 q 681 -299 724 -292 q 594 -306 639 -306 q 452 -271 504 -306 q 400 -167 400 -236 q 428 -72 400 -115 q 504 0 457 -29 l 492 0 l 479 50 q 260 -14 404 -14 q 93 40 158 -14 q 28 201 28 93 q 98 367 28 310 q 310 424 168 424 l 469 424 l 469 433 q 338 490 469 490 q 224 481 283 490 q 110 456 164 472 l 110 624 q 240 659 161 646 q 397 672 319 672 q 658 604 564 672 q 753 399 753 536 l 753 0 l 690 0 m 469 267 l 375 267 q 319 253 338 267 q 301 210 301 240 q 368 154 301 154 q 469 196 431 154 l 469 267 z "},"å":{"ha":804,"x_min":28,"x_max":753,"o":"m 429 725 q 281 778 335 725 q 226 915 226 832 q 281 1053 226 1000 q 429 1107 335 1107 q 579 1053 525 1107 q 633 915 633 1000 q 579 778 633 832 q 429 725 525 725 m 429 843 q 485 864 465 843 q 506 915 506 885 q 485 967 506 946 q 429 989 465 989 q 373 967 393 989 q 353 915 353 946 q 373 864 353 885 q 429 843 393 843 m 260 -14 q 93 40 158 -14 q 28 201 28 93 q 98 367 28 310 q 310 424 168 424 l 469 424 l 469 433 q 338 490 469 490 q 224 481 283 490 q 110 456 164 472 l 110 624 q 240 659 161 646 q 397 672 319 672 q 658 604 564 672 q 753 399 753 536 l 753 0 l 492 0 l 479 50 q 260 -14 404 -14 m 368 154 q 469 196 431 154 l 469 267 l 375 267 q 319 253 338 267 q 301 210 301 240 q 368 154 301 154 z "},"ǻ":{"ha":804,"x_min":28,"x_max":753,"o":"m 422 1368 l 653 1368 l 513 1129 l 294 1129 l 422 1368 m 429 725 q 281 778 335 725 q 226 915 226 832 q 281 1053 226 1000 q 429 1107 335 1107 q 579 1053 525 1107 q 633 915 633 1000 q 579 778 633 832 q 429 725 525 725 m 429 843 q 485 864 465 843 q 506 915 506 885 q 485 967 506 946 q 429 989 465 989 q 373 967 393 989 q 353 915 353 946 q 373 864 353 885 q 429 843 393 843 m 260 -14 q 93 40 158 -14 q 28 201 28 93 q 98 367 28 310 q 310 424 168 424 l 469 424 l 469 433 q 338 490 469 490 q 224 481 283 490 q 110 456 164 472 l 110 624 q 240 659 161 646 q 397 672 319 672 q 658 604 564 672 q 753 399 753 536 l 753 0 l 492 0 l 479 50 q 260 -14 404 -14 m 368 154 q 469 196 431 154 l 469 267 l 375 267 q 319 253 338 267 q 301 210 301 240 q 368 154 301 154 z "},"ã":{"ha":804,"x_min":28,"x_max":753,"o":"m 569 733 q 505 741 536 733 q 425 765 474 749 q 356 786 382 779 q 304 793 331 793 q 164 738 219 793 l 164 917 q 222 950 185 936 q 300 964 260 964 q 363 956 333 964 q 436 933 393 949 q 506 911 478 918 q 565 904 535 904 q 644 920 610 904 q 696 961 678 936 l 696 781 q 647 747 682 761 q 569 733 611 733 m 260 -14 q 93 40 158 -14 q 28 201 28 93 q 98 367 28 310 q 310 424 168 424 l 469 424 l 469 433 q 338 490 469 490 q 224 481 283 490 q 110 456 164 472 l 110 624 q 240 659 161 646 q 397 672 319 672 q 658 604 564 672 q 753 399 753 536 l 753 0 l 492 0 l 479 50 q 260 -14 404 -14 m 368 154 q 469 196 431 154 l 469 267 l 375 267 q 319 253 338 267 q 301 210 301 240 q 368 154 301 154 z "},"æ":{"ha":1229,"x_min":28,"x_max":1201,"o":"m 297 -14 q 103 40 178 -14 q 28 201 28 93 q 98 367 28 310 q 310 424 168 424 l 469 424 l 469 433 q 338 490 469 490 q 224 481 283 490 q 110 456 164 472 l 110 624 q 240 659 161 646 q 397 672 319 672 q 619 611 535 672 q 720 656 661 639 q 844 672 779 672 q 1106 589 1010 672 q 1201 358 1201 506 l 1201 244 l 754 244 q 822 187 772 206 q 957 168 872 168 q 1072 178 1014 168 q 1167 203 1131 189 l 1167 33 q 885 -14 1068 -14 q 733 13 806 -14 q 619 85 661 39 q 485 12 560 38 q 297 -14 410 -14 m 946 400 l 946 418 q 924 469 946 450 q 854 489 903 489 q 754 400 754 489 l 946 400 m 368 154 q 469 193 433 154 l 469 267 l 392 267 q 322 255 343 267 q 301 210 301 243 q 368 154 301 154 z "},"ǽ":{"ha":1229,"x_min":28,"x_max":1201,"o":"m 610 1025 l 840 1025 l 700 725 l 482 725 l 610 1025 m 297 -14 q 103 40 178 -14 q 28 201 28 93 q 98 367 28 310 q 310 424 168 424 l 469 424 l 469 433 q 338 490 469 490 q 224 481 283 490 q 110 456 164 472 l 110 624 q 240 659 161 646 q 397 672 319 672 q 619 611 535 672 q 720 656 661 639 q 844 672 779 672 q 1106 589 1010 672 q 1201 358 1201 506 l 1201 244 l 754 244 q 822 187 772 206 q 957 168 872 168 q 1072 178 1014 168 q 1167 203 1131 189 l 1167 33 q 885 -14 1068 -14 q 733 13 806 -14 q 619 85 661 39 q 485 12 560 38 q 297 -14 410 -14 m 946 400 l 946 418 q 924 469 946 450 q 854 489 903 489 q 754 400 754 489 l 946 400 m 368 154 q 469 193 433 154 l 469 267 l 392 267 q 322 255 343 267 q 301 210 301 243 q 368 154 301 154 z "},"b":{"ha":857,"x_min":56,"x_max":829,"o":"m 521 -14 q 415 1 461 -14 q 328 47 368 17 l 314 0 l 56 0 l 56 936 l 354 936 l 354 640 q 426 663 383 654 q 510 672 469 672 q 747 592 665 672 q 829 335 829 511 q 747 74 829 163 q 521 -14 665 -14 m 435 200 q 503 231 481 200 q 525 331 525 261 q 503 428 525 400 q 435 457 481 457 q 354 429 386 457 l 354 231 q 435 200 389 200 z "},"c":{"ha":713,"x_min":28,"x_max":685,"o":"m 428 -14 q 134 72 240 -14 q 28 329 28 158 q 135 585 28 499 q 426 672 242 672 q 566 661 504 672 q 682 625 628 650 l 682 417 q 493 457 597 457 q 372 428 411 457 q 332 329 332 399 q 372 231 332 261 q 494 201 411 201 q 685 250 592 201 l 685 32 q 428 -14 582 -14 z "},"ć":{"ha":713,"x_min":28,"x_max":685,"o":"m 418 1025 l 649 1025 l 508 725 l 290 725 l 418 1025 m 428 -14 q 134 72 240 -14 q 28 329 28 158 q 135 585 28 499 q 426 672 242 672 q 566 661 504 672 q 682 625 628 650 l 682 417 q 493 457 597 457 q 372 428 411 457 q 332 329 332 399 q 372 231 332 261 q 494 201 411 201 q 685 250 592 201 l 685 32 q 428 -14 582 -14 z "},"č":{"ha":713,"x_min":28,"x_max":707,"o":"m 72 1013 l 289 1013 l 390 863 l 496 1013 l 707 1013 l 478 724 l 301 724 l 72 1013 m 428 -14 q 134 72 240 -14 q 28 329 28 158 q 135 585 28 499 q 426 672 242 672 q 566 661 504 672 q 682 625 628 650 l 682 417 q 493 457 597 457 q 372 428 411 457 q 332 329 332 399 q 372 231 332 261 q 494 201 411 201 q 685 250 592 201 l 685 32 q 428 -14 582 -14 z "},"ç":{"ha":713,"x_min":28,"x_max":685,"o":"m 685 32 q 490 -12 606 -4 l 475 -54 q 588 -91 549 -54 q 628 -186 628 -128 q 569 -294 628 -256 q 397 -333 511 -333 q 333 -330 371 -333 q 279 -322 294 -326 l 279 -218 q 361 -229 319 -229 q 433 -217 410 -229 q 457 -181 457 -206 q 441 -149 457 -157 q 394 -140 425 -140 l 299 -140 l 336 -8 q 109 96 190 11 q 28 329 28 181 q 135 585 28 499 q 426 672 242 672 q 566 661 504 672 q 682 625 628 650 l 682 417 q 493 457 597 457 q 372 428 411 457 q 332 329 332 399 q 372 231 332 261 q 494 201 411 201 q 685 250 592 201 l 685 32 z "},"ĉ":{"ha":713,"x_min":28,"x_max":694,"o":"m 289 1013 l 465 1013 l 694 724 l 483 724 l 378 874 l 276 724 l 60 724 l 289 1013 m 428 -14 q 134 72 240 -14 q 28 329 28 158 q 135 585 28 499 q 426 672 242 672 q 566 661 504 672 q 682 625 628 650 l 682 417 q 493 457 597 457 q 372 428 411 457 q 332 329 332 399 q 372 231 332 261 q 494 201 411 201 q 685 250 592 201 l 685 32 q 428 -14 582 -14 z "},"ċ":{"ha":713,"x_min":28,"x_max":685,"o":"m 288 946 l 486 946 l 486 764 l 288 764 l 288 946 m 428 -14 q 134 72 240 -14 q 28 329 28 158 q 135 585 28 499 q 426 672 242 672 q 566 661 504 672 q 682 625 628 650 l 682 417 q 493 457 597 457 q 372 428 411 457 q 332 329 332 399 q 372 231 332 261 q 494 201 411 201 q 685 250 592 201 l 685 32 q 428 -14 582 -14 z "},"d":{"ha":857,"x_min":28,"x_max":801,"o":"m 336 -14 q 28 310 28 -14 q 72 508 28 426 q 189 631 115 590 q 354 672 263 672 q 434 664 394 672 q 503 640 474 656 l 503 936 l 801 936 l 801 0 l 543 0 l 529 47 q 442 1 489 17 q 336 -14 396 -14 m 422 200 q 503 231 468 200 l 503 429 q 422 457 471 457 q 353 419 375 457 q 332 308 332 382 q 342 238 332 261 q 370 208 351 215 q 422 200 389 200 z "},"ð":{"ha":844,"x_min":28,"x_max":803,"o":"m 411 -14 q 119 62 210 -14 q 28 282 28 138 q 111 496 28 425 q 349 567 194 567 q 442 555 393 567 q 522 525 492 543 l 522 550 q 504 653 522 615 l 369 596 l 369 674 l 446 707 q 350 722 408 722 q 146 678 247 722 l 146 867 q 401 908 251 908 q 683 810 578 908 l 803 861 l 803 782 l 732 751 q 800 503 800 650 l 800 354 q 411 -14 800 -14 m 408 179 q 494 207 467 179 q 522 297 522 235 l 522 353 q 407 386 458 386 q 319 360 346 386 q 293 282 293 335 q 408 179 293 179 z "},"ď":{"ha":1154,"x_min":28,"x_max":1224,"o":"m 979 960 l 1224 960 l 1071 635 l 840 635 l 979 960 m 336 -14 q 110 71 192 -14 q 28 326 28 156 q 112 588 28 503 q 347 672 196 672 q 431 663 388 672 q 503 640 474 654 l 503 936 l 801 936 l 801 0 l 543 0 l 529 47 q 442 1 489 17 q 336 -14 396 -14 m 422 200 q 503 231 468 200 l 503 429 q 422 457 471 457 q 355 425 378 457 q 332 324 332 393 q 353 227 332 254 q 422 200 375 200 z "},"đ":{"ha":860,"x_min":28,"x_max":846,"o":"m 336 -14 q 110 71 192 -14 q 28 326 28 156 q 112 588 28 503 q 347 672 196 672 q 431 663 388 672 q 503 640 474 654 l 503 710 l 331 710 l 331 882 l 503 882 l 503 936 l 801 936 l 801 882 l 846 882 l 846 710 l 801 710 l 801 0 l 543 0 l 529 47 q 442 1 489 17 q 336 -14 396 -14 m 422 200 q 503 231 468 200 l 503 429 q 422 457 471 457 q 355 425 378 457 q 332 324 332 393 q 353 227 332 254 q 422 200 375 200 z "},"ḍ":{"ha":857,"x_min":28,"x_max":801,"o":"m 336 -14 q 28 310 28 -14 q 72 508 28 426 q 189 631 115 590 q 354 672 263 672 q 434 664 394 672 q 503 640 474 656 l 503 936 l 801 936 l 801 0 l 543 0 l 529 47 q 442 1 489 17 q 336 -14 396 -14 m 422 200 q 503 231 468 200 l 503 429 q 422 457 471 457 q 353 419 375 457 q 332 308 332 382 q 342 238 332 261 q 370 208 351 215 q 422 200 389 200 m 331 -64 l 529 -64 l 529 -244 l 331 -244 l 331 -64 z "},"ḏ":{"ha":857,"x_min":28,"x_max":801,"o":"m 336 -14 q 28 310 28 -14 q 72 508 28 426 q 189 631 115 590 q 354 672 263 672 q 434 664 394 672 q 503 640 474 656 l 503 936 l 801 936 l 801 0 l 543 0 l 529 47 q 442 1 489 17 q 336 -14 396 -14 m 422 200 q 503 231 468 200 l 503 429 q 422 457 471 457 q 353 419 375 457 q 332 308 332 382 q 342 238 332 261 q 370 208 351 215 q 422 200 389 200 m 204 -69 l 675 -69 l 675 -244 l 204 -244 l 204 -69 z "},"e":{"ha":776,"x_min":28,"x_max":749,"o":"m 428 -14 q 219 25 310 -14 q 78 140 129 64 q 28 326 28 217 q 121 580 28 488 q 392 672 214 672 q 653 589 557 672 q 749 358 749 506 l 749 244 l 301 244 q 369 187 319 206 q 504 168 419 168 q 619 178 561 168 q 714 203 678 189 l 714 33 q 428 -14 615 -14 m 493 400 l 493 418 q 472 469 493 450 q 401 489 450 489 q 325 466 349 489 q 301 400 301 443 l 493 400 z "},"é":{"ha":776,"x_min":28,"x_max":749,"o":"m 421 1025 l 651 1025 l 511 725 l 293 725 l 421 1025 m 428 -14 q 219 25 310 -14 q 78 140 129 64 q 28 326 28 217 q 121 580 28 488 q 392 672 214 672 q 653 589 557 672 q 749 358 749 506 l 749 244 l 301 244 q 369 187 319 206 q 504 168 419 168 q 619 178 561 168 q 714 203 678 189 l 714 33 q 428 -14 615 -14 m 493 400 l 493 418 q 472 469 493 450 q 401 489 450 489 q 325 466 349 489 q 301 400 301 443 l 493 400 z "},"ĕ":{"ha":776,"x_min":28,"x_max":749,"o":"m 400 725 q 193 799 269 725 q 117 1008 117 874 l 308 1008 q 330 922 308 954 q 400 889 351 889 q 493 1008 493 889 l 686 1008 q 609 799 686 874 q 400 725 532 725 m 428 -14 q 219 25 310 -14 q 78 140 129 64 q 28 326 28 217 q 121 580 28 488 q 392 672 214 672 q 653 589 557 672 q 749 358 749 506 l 749 244 l 301 244 q 369 187 319 206 q 504 168 419 168 q 619 178 561 168 q 714 203 678 189 l 714 33 q 428 -14 615 -14 m 493 400 l 493 418 q 472 469 493 450 q 401 489 450 489 q 325 466 349 489 q 301 400 301 443 l 493 400 z "},"ě":{"ha":776,"x_min":28,"x_max":749,"o":"m 89 1013 l 306 1013 l 407 863 l 513 1013 l 724 1013 l 494 724 l 318 724 l 89 1013 m 428 -14 q 219 25 310 -14 q 78 140 129 64 q 28 326 28 217 q 121 580 28 488 q 392 672 214 672 q 653 589 557 672 q 749 358 749 506 l 749 244 l 301 244 q 369 187 319 206 q 504 168 419 168 q 619 178 561 168 q 714 203 678 189 l 714 33 q 428 -14 615 -14 m 493 400 l 493 418 q 472 469 493 450 q 401 489 450 489 q 325 466 349 489 q 301 400 301 443 l 493 400 z "},"ê":{"ha":776,"x_min":28,"x_max":749,"o":"m 308 1014 l 485 1014 l 714 725 l 503 725 l 397 875 l 296 725 l 79 725 l 308 1014 m 428 -14 q 219 25 310 -14 q 78 140 129 64 q 28 326 28 217 q 121 580 28 488 q 392 672 214 672 q 653 589 557 672 q 749 358 749 506 l 749 244 l 301 244 q 369 187 319 206 q 504 168 419 168 q 619 178 561 168 q 714 203 678 189 l 714 33 q 428 -14 615 -14 m 493 400 l 493 418 q 472 469 493 450 q 401 489 450 489 q 325 466 349 489 q 301 400 301 443 l 493 400 z "},"ế":{"ha":776,"x_min":28,"x_max":904,"o":"m 686 1131 l 904 1131 l 793 903 l 585 903 l 686 1131 m 292 947 l 508 947 l 717 725 l 482 725 l 400 832 l 321 725 l 83 725 l 292 947 m 428 -14 q 219 25 310 -14 q 78 140 129 64 q 28 326 28 217 q 121 580 28 488 q 392 672 214 672 q 653 589 557 672 q 749 358 749 506 l 749 244 l 301 244 q 369 187 319 206 q 504 168 419 168 q 619 178 561 168 q 714 203 678 189 l 714 33 q 428 -14 615 -14 m 493 400 l 493 418 q 472 469 493 450 q 401 489 450 489 q 325 466 349 489 q 301 400 301 443 l 493 400 z "},"ệ":{"ha":776,"x_min":28,"x_max":749,"o":"m 304 1014 l 481 1014 l 710 725 l 499 725 l 393 875 l 292 725 l 75 725 l 304 1014 m 428 -14 q 219 25 310 -14 q 78 140 129 64 q 28 326 28 217 q 121 580 28 488 q 392 672 214 672 q 653 589 557 672 q 749 358 749 506 l 749 244 l 301 244 q 369 187 319 206 q 504 168 419 168 q 619 178 561 168 q 714 203 678 189 l 714 33 q 428 -14 615 -14 m 493 400 l 493 418 q 472 469 493 450 q 401 489 450 489 q 325 466 349 489 q 301 400 301 443 l 493 400 m 293 -64 l 492 -64 l 492 -244 l 293 -244 l 293 -64 z "},"ề":{"ha":776,"x_min":-107,"x_max":749,"o":"m -107 1131 l 113 1131 l 214 903 l 6 903 l -107 1131 m 289 947 l 507 947 l 715 725 l 478 725 l 397 832 l 315 725 l 81 725 l 289 947 m 428 -14 q 219 25 310 -14 q 78 140 129 64 q 28 326 28 217 q 121 580 28 488 q 392 672 214 672 q 653 589 557 672 q 749 358 749 506 l 749 244 l 301 244 q 369 187 319 206 q 504 168 419 168 q 619 178 561 168 q 714 203 678 189 l 714 33 q 428 -14 615 -14 m 493 400 l 493 418 q 472 469 493 450 q 401 489 450 489 q 325 466 349 489 q 301 400 301 443 l 493 400 z "},"ể":{"ha":776,"x_min":28,"x_max":890,"o":"m 596 978 q 670 989 650 979 q 690 1015 690 999 q 677 1035 690 1029 q 638 1040 664 1040 q 568 1029 607 1040 l 568 1143 q 718 1160 631 1160 q 846 1126 801 1160 q 890 1036 890 1092 q 792 915 890 933 l 792 871 l 596 871 l 596 978 m 288 947 l 506 947 l 714 725 l 479 725 l 397 832 l 317 725 l 79 725 l 288 947 m 428 -14 q 219 25 310 -14 q 78 140 129 64 q 28 326 28 217 q 121 580 28 488 q 392 672 214 672 q 653 589 557 672 q 749 358 749 506 l 749 244 l 301 244 q 369 187 319 206 q 504 168 419 168 q 619 178 561 168 q 714 203 678 189 l 714 33 q 428 -14 615 -14 m 493 400 l 493 418 q 472 469 493 450 q 401 489 450 489 q 325 466 349 489 q 301 400 301 443 l 493 400 z "},"ễ":{"ha":776,"x_min":28,"x_max":749,"o":"m 525 961 q 465 969 494 961 q 393 992 436 976 q 331 1011 357 1004 q 281 1018 306 1018 q 149 965 199 1018 l 149 1111 q 203 1143 168 1131 q 276 1156 238 1156 q 334 1149 307 1156 q 404 1126 361 1142 q 467 1106 440 1113 q 521 1099 494 1099 q 595 1113 563 1099 q 644 1153 628 1128 l 644 1006 q 597 974 631 988 q 525 961 564 961 m 288 947 l 506 947 l 714 725 l 479 725 l 397 832 l 317 725 l 79 725 l 288 947 m 428 -14 q 219 25 310 -14 q 78 140 129 64 q 28 326 28 217 q 121 580 28 488 q 392 672 214 672 q 653 589 557 672 q 749 358 749 506 l 749 244 l 301 244 q 369 187 319 206 q 504 168 419 168 q 619 178 561 168 q 714 203 678 189 l 714 33 q 428 -14 615 -14 m 493 400 l 493 418 q 472 469 493 450 q 401 489 450 489 q 325 466 349 489 q 301 400 301 443 l 493 400 z "},"ë":{"ha":776,"x_min":28,"x_max":749,"o":"m 140 946 l 340 946 l 340 764 l 140 764 l 140 946 m 454 946 l 653 946 l 653 764 l 454 764 l 454 946 m 428 -14 q 219 25 310 -14 q 78 140 129 64 q 28 326 28 217 q 121 580 28 488 q 392 672 214 672 q 653 589 557 672 q 749 358 749 506 l 749 244 l 301 244 q 369 187 319 206 q 504 168 419 168 q 619 178 561 168 q 714 203 678 189 l 714 33 q 428 -14 615 -14 m 493 400 l 493 418 q 472 469 493 450 q 401 489 450 489 q 325 466 349 489 q 301 400 301 443 l 493 400 z "},"ė":{"ha":776,"x_min":28,"x_max":749,"o":"m 300 946 l 499 946 l 499 764 l 300 764 l 300 946 m 428 -14 q 219 25 310 -14 q 78 140 129 64 q 28 326 28 217 q 121 580 28 488 q 392 672 214 672 q 653 589 557 672 q 749 358 749 506 l 749 244 l 301 244 q 369 187 319 206 q 504 168 419 168 q 619 178 561 168 q 714 203 678 189 l 714 33 q 428 -14 615 -14 m 493 400 l 493 418 q 472 469 493 450 q 401 489 450 489 q 325 466 349 489 q 301 400 301 443 l 493 400 z "},"ẹ":{"ha":776,"x_min":28,"x_max":749,"o":"m 428 -14 q 219 25 310 -14 q 78 140 129 64 q 28 326 28 217 q 121 580 28 488 q 392 672 214 672 q 653 589 557 672 q 749 358 749 506 l 749 244 l 301 244 q 369 187 319 206 q 504 168 419 168 q 619 178 561 168 q 714 203 678 189 l 714 33 q 428 -14 615 -14 m 493 400 l 493 418 q 472 469 493 450 q 401 489 450 489 q 325 466 349 489 q 301 400 301 443 l 493 400 m 307 -64 l 506 -64 l 506 -244 l 307 -244 l 307 -64 z "},"è":{"ha":776,"x_min":28,"x_max":749,"o":"m 147 1025 l 379 1025 l 507 725 l 288 725 l 147 1025 m 428 -14 q 219 25 310 -14 q 78 140 129 64 q 28 326 28 217 q 121 580 28 488 q 392 672 214 672 q 653 589 557 672 q 749 358 749 506 l 749 244 l 301 244 q 369 187 319 206 q 504 168 419 168 q 619 178 561 168 q 714 203 678 189 l 714 33 q 428 -14 615 -14 m 493 400 l 493 418 q 472 469 493 450 q 401 489 450 489 q 325 466 349 489 q 301 400 301 443 l 493 400 z "},"ẻ":{"ha":776,"x_min":28,"x_max":749,"o":"m 286 838 q 380 856 353 842 q 407 894 407 869 q 331 938 407 938 q 250 925 290 938 l 250 1044 q 421 1064 315 1064 q 570 1024 517 1064 q 624 919 624 983 q 597 828 624 860 q 508 778 569 796 l 508 725 l 286 725 l 286 838 m 428 -14 q 219 25 310 -14 q 78 140 129 64 q 28 326 28 217 q 121 580 28 488 q 392 672 214 672 q 653 589 557 672 q 749 358 749 506 l 749 244 l 301 244 q 369 187 319 206 q 504 168 419 168 q 619 178 561 168 q 714 203 678 189 l 714 33 q 428 -14 615 -14 m 493 400 l 493 418 q 472 469 493 450 q 401 489 450 489 q 325 466 349 489 q 301 400 301 443 l 493 400 z "},"ē":{"ha":776,"x_min":28,"x_max":749,"o":"m 158 951 l 629 951 l 629 776 l 158 776 l 158 951 m 428 -14 q 219 25 310 -14 q 78 140 129 64 q 28 326 28 217 q 121 580 28 488 q 392 672 214 672 q 653 589 557 672 q 749 358 749 506 l 749 244 l 301 244 q 369 187 319 206 q 504 168 419 168 q 619 178 561 168 q 714 203 678 189 l 714 33 q 428 -14 615 -14 m 493 400 l 493 418 q 472 469 493 450 q 401 489 450 489 q 325 466 349 489 q 301 400 301 443 l 493 400 z "},"ę":{"ha":776,"x_min":28,"x_max":749,"o":"m 749 244 l 301 244 q 369 187 319 206 q 504 168 419 168 q 619 178 561 168 q 714 203 678 189 l 714 33 q 576 -4 658 7 q 508 -115 508 -61 q 571 -164 508 -164 q 608 -160 589 -164 q 640 -149 628 -156 l 640 -282 q 573 -299 615 -292 q 486 -306 531 -306 q 344 -271 396 -306 q 292 -167 292 -236 q 315 -81 292 -119 q 378 -12 338 -42 q 123 88 218 0 q 28 326 28 175 q 121 580 28 488 q 392 672 214 672 q 653 589 557 672 q 749 358 749 506 l 749 244 m 493 418 q 472 469 493 450 q 401 489 450 489 q 325 466 349 489 q 301 400 301 443 l 493 400 l 493 418 z "},"ẽ":{"ha":776,"x_min":28,"x_max":749,"o":"m 549 733 q 484 741 515 733 q 404 765 453 749 q 335 786 361 779 q 283 793 310 793 q 143 738 199 793 l 143 917 q 201 950 164 936 q 279 964 239 964 q 342 956 313 964 q 415 933 372 949 q 485 911 457 918 q 544 904 514 904 q 623 920 589 904 q 675 961 657 936 l 675 781 q 626 747 661 761 q 549 733 590 733 m 428 -14 q 219 25 310 -14 q 78 140 129 64 q 28 326 28 217 q 121 580 28 488 q 392 672 214 672 q 653 589 557 672 q 749 358 749 506 l 749 244 l 301 244 q 369 187 319 206 q 504 168 419 168 q 619 178 561 168 q 714 203 678 189 l 714 33 q 428 -14 615 -14 m 493 400 l 493 418 q 472 469 493 450 q 401 489 450 489 q 325 466 349 489 q 301 400 301 443 l 493 400 z "},"f":{"ha":511,"x_min":0,"x_max":539,"o":"m 81 440 l 0 440 l 0 658 l 81 658 l 81 690 q 149 885 81 811 q 349 958 218 958 q 539 924 454 958 l 539 735 q 456 749 499 749 q 397 733 415 749 q 379 683 379 717 l 379 658 l 529 658 l 517 440 l 379 440 l 379 0 l 81 0 l 81 440 z "},"g":{"ha":799,"x_min":29,"x_max":789,"o":"m 354 -244 q 182 -236 269 -244 q 49 -211 94 -228 l 49 -32 q 183 -59 101 -50 q 336 -68 264 -68 q 482 -39 482 -68 q 468 -22 482 -26 q 419 -18 454 -18 l 254 -18 q 32 111 32 -18 q 59 190 32 157 q 138 240 86 224 q 55 313 81 269 q 29 424 29 356 q 119 611 29 550 q 378 672 208 672 q 457 667 411 672 q 525 658 503 663 l 789 658 l 783 479 l 703 479 q 719 419 719 453 q 661 258 719 315 q 479 201 603 201 q 404 206 471 201 q 342 174 342 200 q 352 157 342 161 q 383 153 363 153 l 517 153 q 681 106 621 153 q 740 -33 740 58 q 645 -189 740 -133 q 354 -244 550 -244 m 381 364 q 449 380 431 364 q 468 436 468 396 q 448 494 468 476 q 381 511 428 511 q 313 493 333 511 q 292 436 292 475 q 312 381 292 399 q 381 364 332 364 z "},"ğ":{"ha":799,"x_min":29,"x_max":789,"o":"m 406 725 q 199 799 275 725 q 122 1008 122 874 l 314 1008 q 335 922 314 954 q 406 889 357 889 q 499 1008 499 889 l 692 1008 q 615 799 692 874 q 406 725 538 725 m 354 -244 q 182 -236 269 -244 q 49 -211 94 -228 l 49 -32 q 183 -59 101 -50 q 336 -68 264 -68 q 482 -39 482 -68 q 468 -22 482 -26 q 419 -18 454 -18 l 254 -18 q 32 111 32 -18 q 59 190 32 157 q 138 240 86 224 q 55 313 81 269 q 29 424 29 356 q 119 611 29 550 q 378 672 208 672 q 457 667 411 672 q 525 658 503 663 l 789 658 l 783 479 l 703 479 q 719 419 719 453 q 661 258 719 315 q 479 201 603 201 q 404 206 471 201 q 342 174 342 200 q 352 157 342 161 q 383 153 363 153 l 517 153 q 681 106 621 153 q 740 -33 740 58 q 645 -189 740 -133 q 354 -244 550 -244 m 381 364 q 449 380 431 364 q 468 436 468 396 q 448 494 468 476 q 381 511 428 511 q 313 493 333 511 q 292 436 292 475 q 312 381 292 399 q 381 364 332 364 z "},"ǧ":{"ha":799,"x_min":29,"x_max":789,"o":"m 90 1013 l 307 1013 l 408 863 l 514 1013 l 725 1013 l 496 724 l 319 724 l 90 1013 m 354 -244 q 182 -236 269 -244 q 49 -211 94 -228 l 49 -32 q 183 -59 101 -50 q 336 -68 264 -68 q 482 -39 482 -68 q 468 -22 482 -26 q 419 -18 454 -18 l 254 -18 q 32 111 32 -18 q 59 190 32 157 q 138 240 86 224 q 55 313 81 269 q 29 424 29 356 q 119 611 29 550 q 378 672 208 672 q 457 667 411 672 q 525 658 503 663 l 789 658 l 783 479 l 703 479 q 719 419 719 453 q 661 258 719 315 q 479 201 603 201 q 404 206 471 201 q 342 174 342 200 q 352 157 342 161 q 383 153 363 153 l 517 153 q 681 106 621 153 q 740 -33 740 58 q 645 -189 740 -133 q 354 -244 550 -244 m 381 364 q 449 380 431 364 q 468 436 468 396 q 448 494 468 476 q 381 511 428 511 q 313 493 333 511 q 292 436 292 475 q 312 381 292 399 q 381 364 332 364 z "},"ĝ":{"ha":799,"x_min":29,"x_max":789,"o":"m 321 1013 l 497 1013 l 726 724 l 515 724 l 410 874 l 308 724 l 92 724 l 321 1013 m 354 -244 q 182 -236 269 -244 q 49 -211 94 -228 l 49 -32 q 183 -59 101 -50 q 336 -68 264 -68 q 482 -39 482 -68 q 468 -22 482 -26 q 419 -18 454 -18 l 254 -18 q 32 111 32 -18 q 59 190 32 157 q 138 240 86 224 q 55 313 81 269 q 29 424 29 356 q 119 611 29 550 q 378 672 208 672 q 457 667 411 672 q 525 658 503 663 l 789 658 l 783 479 l 703 479 q 719 419 719 453 q 661 258 719 315 q 479 201 603 201 q 404 206 471 201 q 342 174 342 200 q 352 157 342 161 q 383 153 363 153 l 517 153 q 681 106 621 153 q 740 -33 740 58 q 645 -189 740 -133 q 354 -244 550 -244 m 381 364 q 449 380 431 364 q 468 436 468 396 q 448 494 468 476 q 381 511 428 511 q 313 493 333 511 q 292 436 292 475 q 312 381 292 399 q 381 364 332 364 z "},"ģ":{"ha":799,"x_min":29,"x_max":789,"o":"m 361 1054 l 556 1054 l 507 725 l 276 725 l 361 1054 m 354 -244 q 182 -236 269 -244 q 49 -211 94 -228 l 49 -32 q 183 -59 101 -50 q 336 -68 264 -68 q 482 -39 482 -68 q 468 -22 482 -26 q 419 -18 454 -18 l 254 -18 q 32 111 32 -18 q 59 190 32 157 q 138 240 86 224 q 55 313 81 269 q 29 424 29 356 q 119 611 29 550 q 378 672 208 672 q 457 667 411 672 q 525 658 503 663 l 789 658 l 783 479 l 703 479 q 719 419 719 453 q 661 258 719 315 q 479 201 603 201 q 404 206 471 201 q 342 174 342 200 q 352 157 342 161 q 383 153 363 153 l 517 153 q 681 106 621 153 q 740 -33 740 58 q 645 -189 740 -133 q 354 -244 550 -244 m 381 364 q 449 380 431 364 q 468 436 468 396 q 448 494 468 476 q 381 511 428 511 q 313 493 333 511 q 292 436 292 475 q 312 381 292 399 q 381 364 332 364 z "},"ġ":{"ha":799,"x_min":29,"x_max":789,"o":"m 294 921 l 493 921 l 493 739 l 294 739 l 294 921 m 354 -244 q 182 -236 269 -244 q 49 -211 94 -228 l 49 -32 q 183 -59 101 -50 q 336 -68 264 -68 q 482 -39 482 -68 q 468 -22 482 -26 q 419 -18 454 -18 l 254 -18 q 32 111 32 -18 q 59 190 32 157 q 138 240 86 224 q 55 313 81 269 q 29 424 29 356 q 119 611 29 550 q 378 672 208 672 q 457 667 411 672 q 525 658 503 663 l 789 658 l 783 479 l 703 479 q 719 419 719 453 q 661 258 719 315 q 479 201 603 201 q 404 206 471 201 q 342 174 342 200 q 352 157 342 161 q 383 153 363 153 l 517 153 q 681 106 621 153 q 740 -33 740 58 q 645 -189 740 -133 q 354 -244 550 -244 m 381 364 q 449 380 431 364 q 468 436 468 396 q 448 494 468 476 q 381 511 428 511 q 313 493 333 511 q 292 436 292 475 q 312 381 292 399 q 381 364 332 364 z "},"ḡ":{"ha":799,"x_min":29,"x_max":789,"o":"m 154 940 l 625 940 l 625 765 l 154 765 l 154 940 m 354 -244 q 182 -236 269 -244 q 49 -211 94 -228 l 49 -32 q 183 -59 101 -50 q 336 -68 264 -68 q 482 -39 482 -68 q 468 -22 482 -26 q 419 -18 454 -18 l 254 -18 q 32 111 32 -18 q 59 190 32 157 q 138 240 86 224 q 55 313 81 269 q 29 424 29 356 q 119 611 29 550 q 378 672 208 672 q 457 667 411 672 q 525 658 503 663 l 789 658 l 783 479 l 703 479 q 719 419 719 453 q 661 258 719 315 q 479 201 603 201 q 404 206 471 201 q 342 174 342 200 q 352 157 342 161 q 383 153 363 153 l 517 153 q 681 106 621 153 q 740 -33 740 58 q 645 -189 740 -133 q 354 -244 550 -244 m 381 364 q 449 380 431 364 q 468 436 468 396 q 448 494 468 476 q 381 511 428 511 q 313 493 333 511 q 292 436 292 475 q 312 381 292 399 q 381 364 332 364 z "},"h":{"ha":854,"x_min":56,"x_max":806,"o":"m 56 936 l 354 936 l 354 625 q 437 659 388 646 q 539 672 486 672 q 741 608 676 672 q 806 410 806 543 l 806 0 l 506 0 l 506 386 q 491 437 506 422 q 440 451 476 451 q 394 440 418 451 q 354 414 369 429 l 354 0 l 56 0 l 56 936 z "},"ħ":{"ha":861,"x_min":10,"x_max":813,"o":"m 63 719 l 10 719 l 10 864 l 63 864 l 63 936 l 361 936 l 361 864 l 499 864 l 499 719 l 361 719 l 361 625 q 444 659 394 646 q 546 672 493 672 q 748 608 683 672 q 813 410 813 543 l 813 0 l 513 0 l 513 386 q 498 437 513 422 q 447 451 483 451 q 401 440 425 451 q 361 414 376 429 l 361 0 l 63 0 l 63 719 z "},"ḫ":{"ha":854,"x_min":56,"x_max":806,"o":"m 56 936 l 354 936 l 354 625 q 437 659 388 646 q 539 672 486 672 q 741 608 676 672 q 806 410 806 543 l 806 0 l 506 0 l 506 386 q 491 437 506 422 q 440 451 476 451 q 394 440 418 451 q 354 414 369 429 l 354 0 l 56 0 l 56 936 m 432 -346 q 225 -272 301 -346 q 149 -62 149 -197 l 340 -62 q 362 -149 340 -117 q 432 -182 383 -182 q 525 -62 525 -182 l 718 -62 q 641 -272 718 -197 q 432 -346 564 -346 z "},"ĥ":{"ha":854,"x_min":56,"x_max":806,"o":"m 292 1274 l 468 1274 l 697 985 l 486 985 l 381 1135 l 279 985 l 63 985 l 292 1274 m 56 936 l 354 936 l 354 625 q 437 659 388 646 q 539 672 486 672 q 741 608 676 672 q 806 410 806 543 l 806 0 l 506 0 l 506 386 q 491 437 506 422 q 440 451 476 451 q 394 440 418 451 q 354 414 369 429 l 354 0 l 56 0 l 56 936 z "},"ḥ":{"ha":854,"x_min":56,"x_max":806,"o":"m 56 936 l 354 936 l 354 625 q 437 659 388 646 q 539 672 486 672 q 741 608 676 672 q 806 410 806 543 l 806 0 l 506 0 l 506 386 q 491 437 506 422 q 440 451 476 451 q 394 440 418 451 q 354 414 369 429 l 354 0 l 56 0 l 56 936 m 328 -64 l 526 -64 l 526 -244 l 328 -244 l 328 -64 z "},"i":{"ha":503,"x_min":56,"x_max":447,"o":"m 126 939 l 447 939 l 447 729 l 126 729 l 126 939 m 149 442 l 56 442 l 81 658 l 447 658 l 447 0 l 149 0 l 149 442 z "},"ı":{"ha":503,"x_min":56,"x_max":447,"o":"m 149 442 l 56 442 l 81 658 l 447 658 l 447 0 l 149 0 l 149 442 z "},"í":{"ha":503,"x_min":56,"x_max":518,"o":"m 288 1025 l 518 1025 l 378 725 l 160 725 l 288 1025 m 149 442 l 56 442 l 81 658 l 447 658 l 447 0 l 149 0 l 149 442 z "},"ĭ":{"ha":503,"x_min":-25,"x_max":544,"o":"m 258 725 q 51 799 128 725 q -25 1008 -25 874 l 167 1008 q 188 922 167 954 q 258 889 210 889 q 351 1008 351 889 l 544 1008 q 467 799 544 874 q 258 725 390 725 m 149 442 l 56 442 l 81 658 l 447 658 l 447 0 l 149 0 l 149 442 z "},"ǐ":{"ha":503,"x_min":-51,"x_max":583,"o":"m -51 1013 l 165 1013 l 267 863 l 372 1013 l 583 1013 l 354 724 l 178 724 l -51 1013 m 149 442 l 56 442 l 81 658 l 447 658 l 447 0 l 149 0 l 149 442 z "},"î":{"ha":503,"x_min":-54,"x_max":581,"o":"m 175 1014 l 351 1014 l 581 725 l 369 725 l 264 875 l 163 725 l -54 725 l 175 1014 m 149 442 l 56 442 l 81 658 l 447 658 l 447 0 l 149 0 l 149 442 z "},"ï":{"ha":503,"x_min":1,"x_max":514,"o":"m 1 946 l 201 946 l 201 764 l 1 764 l 1 946 m 315 946 l 514 946 l 514 764 l 315 764 l 315 946 m 149 442 l 56 442 l 81 658 l 447 658 l 447 0 l 149 0 l 149 442 z "},"ị":{"ha":503,"x_min":56,"x_max":447,"o":"m 126 939 l 447 939 l 447 729 l 126 729 l 126 939 m 149 442 l 56 442 l 81 658 l 447 658 l 447 0 l 149 0 l 149 442 m 196 -64 l 394 -64 l 394 -244 l 196 -244 l 196 -64 z "},"ì":{"ha":503,"x_min":39,"x_max":447,"o":"m 39 1025 l 271 1025 l 399 725 l 179 725 l 39 1025 m 149 442 l 56 442 l 81 658 l 447 658 l 447 0 l 149 0 l 149 442 z "},"ỉ":{"ha":503,"x_min":56,"x_max":483,"o":"m 146 838 q 240 856 213 842 q 267 894 267 869 q 190 938 267 938 q 110 925 150 938 l 110 1044 q 281 1064 175 1064 q 430 1024 376 1064 q 483 919 483 983 q 456 828 483 860 q 368 778 429 796 l 368 725 l 146 725 l 146 838 m 149 442 l 56 442 l 81 658 l 447 658 l 447 0 l 149 0 l 149 442 z "},"ĳ":{"ha":929,"x_min":56,"x_max":874,"o":"m 126 939 l 447 939 l 447 729 l 126 729 l 126 939 m 553 939 l 874 939 l 874 729 l 553 729 l 553 939 m 149 442 l 56 442 l 81 658 l 447 658 l 447 0 l 149 0 l 149 442 m 607 -325 q 415 -292 497 -325 l 415 -100 q 499 -114 457 -114 q 575 -51 575 -114 l 575 442 l 482 442 l 507 658 l 874 658 l 874 -72 q 808 -257 874 -189 q 607 -325 742 -325 z "},"ī":{"ha":503,"x_min":21,"x_max":490,"o":"m 21 986 l 490 986 l 490 811 l 21 811 l 21 986 m 149 442 l 56 442 l 81 658 l 447 658 l 447 0 l 149 0 l 149 442 z "},"į":{"ha":503,"x_min":56,"x_max":450,"o":"m 447 729 l 126 729 l 126 939 l 447 939 l 447 729 m 381 -164 q 418 -160 399 -164 q 450 -149 438 -156 l 450 -282 q 383 -299 425 -292 q 296 -306 340 -306 q 153 -271 206 -306 q 101 -167 101 -236 q 130 -72 101 -115 q 206 0 158 -29 l 149 0 l 149 442 l 56 442 l 81 658 l 447 658 l 447 0 l 392 0 q 318 -115 318 -57 q 381 -164 318 -164 z "},"ĩ":{"ha":503,"x_min":-12,"x_max":519,"o":"m 393 763 q 328 770 360 763 q 249 794 297 778 q 180 815 206 808 q 128 822 154 822 q -12 767 43 822 l -12 946 q 46 979 8 965 q 124 993 83 993 q 187 985 157 993 q 260 963 217 978 q 330 940 301 947 q 389 933 358 933 q 467 949 433 933 q 519 990 501 965 l 519 810 q 470 776 506 790 q 393 763 435 763 m 149 442 l 56 442 l 81 658 l 447 658 l 447 0 l 149 0 l 149 442 z "},"j":{"ha":504,"x_min":-11,"x_max":447,"o":"m 126 939 l 447 939 l 447 729 l 126 729 l 126 939 m 181 -325 q -11 -292 71 -325 l -11 -100 q 72 -114 31 -114 q 149 -51 149 -114 l 149 442 l 56 442 l 81 658 l 447 658 l 447 -72 q 381 -257 447 -189 q 181 -325 315 -325 z "},"ȷ":{"ha":503,"x_min":-12,"x_max":446,"o":"m 178 -325 q -12 -292 69 -325 l -12 -100 q 71 -114 28 -114 q 147 -51 147 -114 l 147 442 l 53 442 l 78 658 l 446 658 l 446 -72 q 380 -257 446 -189 q 178 -325 314 -325 z "},"ĵ":{"ha":503,"x_min":-53,"x_max":582,"o":"m 176 1013 l 353 1013 l 582 724 l 371 724 l 265 874 l 164 724 l -53 724 l 176 1013 m 178 -325 q -12 -292 69 -325 l -12 -100 q 71 -114 28 -114 q 147 -51 147 -114 l 147 442 l 53 442 l 78 658 l 446 658 l 446 -72 q 380 -257 446 -189 q 178 -325 314 -325 z "},"k":{"ha":885,"x_min":56,"x_max":857,"o":"m 56 936 l 354 936 l 354 500 l 506 658 l 843 658 l 582 376 l 857 0 l 540 0 l 396 221 l 354 176 l 354 0 l 56 0 l 56 936 z "},"ķ":{"ha":885,"x_min":56,"x_max":857,"o":"m 56 936 l 354 936 l 354 500 l 506 658 l 843 658 l 582 376 l 857 0 l 540 0 l 396 221 l 354 176 l 354 0 l 56 0 l 56 936 m 308 -51 l 539 -51 l 454 -381 l 260 -381 l 308 -51 z "},"ĸ":{"ha":885,"x_min":56,"x_max":857,"o":"m 56 658 l 354 658 l 354 483 l 506 658 l 843 658 l 582 363 l 857 0 l 540 0 l 396 206 l 354 160 l 354 0 l 56 0 l 56 658 z "},"l":{"ha":476,"x_min":56,"x_max":472,"o":"m 299 -14 q 111 40 167 -14 q 56 211 56 93 l 56 936 l 354 936 l 354 249 q 365 209 354 221 q 404 197 376 197 q 472 208 444 197 l 472 18 q 394 -7 431 0 q 299 -14 357 -14 z "},"ĺ":{"ha":476,"x_min":56,"x_max":472,"o":"m 222 1343 l 453 1343 l 313 1043 l 94 1043 l 222 1343 m 299 -14 q 111 40 167 -14 q 56 211 56 93 l 56 936 l 354 936 l 354 249 q 365 209 354 221 q 404 197 376 197 q 472 208 444 197 l 472 18 q 394 -7 431 0 q 299 -14 357 -14 z "},"ľ":{"ha":476,"x_min":56,"x_max":472,"o":"m 154 1315 l 385 1315 l 300 986 l 106 986 l 154 1315 m 299 -14 q 111 40 167 -14 q 56 211 56 93 l 56 936 l 354 936 l 354 249 q 365 209 354 221 q 404 197 376 197 q 472 208 444 197 l 472 18 q 394 -7 431 0 q 299 -14 357 -14 z "},"ļ":{"ha":476,"x_min":56,"x_max":472,"o":"m 299 -14 q 111 40 167 -14 q 56 211 56 93 l 56 936 l 354 936 l 354 249 q 365 209 354 221 q 404 197 376 197 q 472 208 444 197 l 472 18 q 394 -7 431 0 q 299 -14 357 -14 m 176 -51 l 407 -51 l 322 -381 l 128 -381 l 176 -51 z "},"ŀ":{"ha":588,"x_min":56,"x_max":644,"o":"m 299 -14 q 111 40 167 -14 q 56 211 56 93 l 56 936 l 354 936 l 354 249 q 365 209 354 221 q 404 197 376 197 q 472 208 444 197 l 472 18 q 394 -7 431 0 q 299 -14 357 -14 m 446 601 l 644 601 l 644 419 l 446 419 l 446 601 z "},"ḷ":{"ha":476,"x_min":56,"x_max":472,"o":"m 299 -14 q 111 40 167 -14 q 56 211 56 93 l 56 936 l 354 936 l 354 249 q 365 209 354 221 q 404 197 376 197 q 472 208 444 197 l 472 18 q 394 -7 431 0 q 299 -14 357 -14 m 171 -64 l 369 -64 l 369 -244 l 171 -244 l 171 -64 z "},"ḹ":{"ha":476,"x_min":-28,"x_max":472,"o":"m -28 1185 l 443 1185 l 443 1010 l -28 1010 l -28 1185 m 299 -14 q 111 40 167 -14 q 56 211 56 93 l 56 936 l 354 936 l 354 249 q 365 209 354 221 q 404 197 376 197 q 472 208 444 197 l 472 18 q 394 -7 431 0 q 299 -14 357 -14 m 156 -62 l 354 -62 l 354 -243 l 156 -243 l 156 -62 z "},"ḻ":{"ha":476,"x_min":25,"x_max":496,"o":"m 299 -14 q 111 40 167 -14 q 56 211 56 93 l 56 936 l 354 936 l 354 249 q 365 209 354 221 q 404 197 376 197 q 472 208 444 197 l 472 18 q 394 -7 431 0 q 299 -14 357 -14 m 25 -69 l 496 -69 l 496 -244 l 25 -244 l 25 -69 z "},"ł":{"ha":476,"x_min":-43,"x_max":472,"o":"m 299 -14 q 111 40 167 -14 q 56 211 56 93 l 56 329 l -43 286 l -43 496 l 56 539 l 56 936 l 354 936 l 354 669 l 453 713 l 453 503 l 354 460 l 354 249 q 365 209 354 221 q 404 197 376 197 q 472 208 444 197 l 472 18 q 394 -7 431 0 q 299 -14 357 -14 z "},"m":{"ha":1201,"x_min":56,"x_max":1153,"o":"m 56 658 l 332 658 l 339 611 q 547 672 435 672 q 642 656 606 672 q 700 606 678 639 q 929 672 799 672 q 1099 611 1044 672 q 1153 425 1153 550 l 1153 0 l 860 0 l 860 390 q 847 438 860 424 q 801 451 833 451 q 738 424 763 451 q 739 347 739 397 l 739 0 l 463 0 l 463 396 q 452 439 463 426 q 414 451 442 451 q 343 415 376 451 l 343 0 l 56 0 l 56 658 z "},"ṃ":{"ha":1201,"x_min":56,"x_max":1153,"o":"m 56 658 l 332 658 l 339 611 q 547 672 435 672 q 642 656 606 672 q 700 606 678 639 q 929 672 799 672 q 1099 611 1044 672 q 1153 425 1153 550 l 1153 0 l 860 0 l 860 390 q 847 438 860 424 q 801 451 833 451 q 738 424 763 451 q 739 347 739 397 l 739 0 l 463 0 l 463 396 q 452 439 463 426 q 414 451 442 451 q 343 415 376 451 l 343 0 l 56 0 l 56 658 m 508 -62 l 707 -62 l 707 -243 l 508 -243 l 508 -62 z "},"n":{"ha":854,"x_min":56,"x_max":806,"o":"m 56 658 l 335 658 l 342 614 q 444 656 381 639 q 574 672 507 672 q 749 611 693 672 q 806 422 806 550 l 806 0 l 507 0 l 507 388 q 492 437 507 422 q 440 451 476 451 q 394 440 418 451 q 354 414 369 429 l 354 0 l 56 0 l 56 658 z "},"ń":{"ha":854,"x_min":56,"x_max":806,"o":"m 397 1025 l 628 1025 l 488 725 l 269 725 l 397 1025 m 56 658 l 335 658 l 342 614 q 444 656 381 639 q 574 672 507 672 q 749 611 693 672 q 806 422 806 550 l 806 0 l 507 0 l 507 388 q 492 437 507 422 q 440 451 476 451 q 394 440 418 451 q 354 414 369 429 l 354 0 l 56 0 l 56 658 z "},"ŉ":{"ha":974,"x_min":-94,"x_max":925,"o":"m -46 890 l 185 890 l 100 561 l -94 561 l -46 890 m 175 658 l 454 658 l 461 614 q 563 656 500 639 q 693 672 626 672 q 869 611 813 672 q 925 422 925 550 l 925 0 l 626 0 l 626 388 q 611 437 626 422 q 560 451 596 451 q 513 440 538 451 q 474 414 489 429 l 474 0 l 175 0 l 175 658 z "},"ň":{"ha":854,"x_min":56,"x_max":806,"o":"m 85 1013 l 301 1013 l 403 863 l 508 1013 l 719 1013 l 490 724 l 314 724 l 85 1013 m 56 658 l 335 658 l 342 614 q 444 656 381 639 q 574 672 507 672 q 749 611 693 672 q 806 422 806 550 l 806 0 l 507 0 l 507 388 q 492 437 507 422 q 440 451 476 451 q 394 440 418 451 q 354 414 369 429 l 354 0 l 56 0 l 56 658 z "},"ņ":{"ha":836,"x_min":38,"x_max":788,"o":"m 38 658 l 317 658 l 324 614 q 426 656 363 639 q 556 672 489 672 q 731 611 675 672 q 788 422 788 550 l 788 0 l 489 0 l 489 388 q 474 437 489 422 q 422 451 458 451 q 376 440 400 451 q 336 414 351 429 l 336 0 l 38 0 l 38 658 m 313 -51 l 543 -51 l 458 -381 l 264 -381 l 313 -51 z "},"ṅ":{"ha":854,"x_min":56,"x_max":806,"o":"m 325 946 l 524 946 l 524 764 l 325 764 l 325 946 m 56 658 l 335 658 l 342 614 q 444 656 381 639 q 574 672 507 672 q 749 611 693 672 q 806 422 806 550 l 806 0 l 507 0 l 507 388 q 492 437 507 422 q 440 451 476 451 q 394 440 418 451 q 354 414 369 429 l 354 0 l 56 0 l 56 658 z "},"ṇ":{"ha":854,"x_min":56,"x_max":806,"o":"m 56 658 l 335 658 l 342 614 q 444 656 381 639 q 574 672 507 672 q 749 611 693 672 q 806 422 806 550 l 806 0 l 507 0 l 507 388 q 492 437 507 422 q 440 451 476 451 q 394 440 418 451 q 354 414 369 429 l 354 0 l 56 0 l 56 658 m 335 -64 l 533 -64 l 533 -244 l 335 -244 l 335 -64 z "},"ŋ":{"ha":854,"x_min":56,"x_max":806,"o":"m 538 -325 q 347 -292 429 -325 l 347 -103 q 431 -117 388 -117 q 506 -51 506 -117 l 506 388 q 490 437 506 422 q 440 451 475 451 q 394 440 418 451 q 354 414 369 429 l 354 0 l 56 0 l 56 658 l 335 658 l 342 614 q 444 656 381 639 q 574 672 507 672 q 749 611 693 672 q 806 422 806 550 l 806 -72 q 740 -257 806 -189 q 538 -325 674 -325 z "},"ṉ":{"ha":854,"x_min":56,"x_max":806,"o":"m 56 658 l 335 658 l 342 614 q 444 656 381 639 q 574 672 507 672 q 749 611 693 672 q 806 422 806 550 l 806 0 l 507 0 l 507 388 q 492 437 507 422 q 440 451 476 451 q 394 440 418 451 q 354 414 369 429 l 354 0 l 56 0 l 56 658 m 199 -69 l 669 -69 l 669 -244 l 199 -244 l 199 -69 z "},"ñ":{"ha":854,"x_min":56,"x_max":806,"o":"m 565 733 q 501 741 532 733 q 421 765 469 749 q 352 786 378 779 q 300 793 326 793 q 160 738 215 793 l 160 917 q 218 950 181 936 q 296 964 256 964 q 359 956 329 964 q 432 933 389 949 q 502 911 474 918 q 561 904 531 904 q 640 920 606 904 q 692 961 674 936 l 692 781 q 642 747 678 761 q 565 733 607 733 m 56 658 l 335 658 l 342 614 q 444 656 381 639 q 574 672 507 672 q 749 611 693 672 q 806 422 806 550 l 806 0 l 507 0 l 507 388 q 492 437 507 422 q 440 451 476 451 q 394 440 418 451 q 354 414 369 429 l 354 0 l 56 0 l 56 658 z "},"o":{"ha":856,"x_min":28,"x_max":828,"o":"m 426 -14 q 126 72 225 -14 q 28 329 28 158 q 426 672 28 672 q 828 329 828 672 q 426 -14 828 -14 m 426 201 q 501 231 478 201 q 524 329 524 260 q 500 427 524 397 q 426 457 476 457 q 354 427 376 457 q 332 329 332 397 q 354 231 332 260 q 426 201 376 201 z "},"ó":{"ha":856,"x_min":28,"x_max":828,"o":"m 421 1025 l 651 1025 l 511 725 l 293 725 l 421 1025 m 426 -14 q 126 72 225 -14 q 28 329 28 158 q 426 672 28 672 q 828 329 828 672 q 426 -14 828 -14 m 426 201 q 501 231 478 201 q 524 329 524 260 q 500 427 524 397 q 426 457 476 457 q 354 427 376 457 q 332 329 332 397 q 354 231 332 260 q 426 201 376 201 z "},"ŏ":{"ha":856,"x_min":28,"x_max":828,"o":"m 426 725 q 219 799 296 725 q 143 1008 143 874 l 335 1008 q 356 922 335 954 q 426 889 378 889 q 519 1008 519 889 l 713 1008 q 635 799 713 874 q 426 725 558 725 m 426 -14 q 126 72 225 -14 q 28 329 28 158 q 426 672 28 672 q 828 329 828 672 q 426 -14 828 -14 m 426 201 q 501 231 478 201 q 524 329 524 260 q 500 427 524 397 q 426 457 476 457 q 354 427 376 457 q 332 329 332 397 q 354 231 332 260 q 426 201 376 201 z "},"ǒ":{"ha":856,"x_min":28,"x_max":828,"o":"m 110 1013 l 326 1013 l 428 863 l 533 1013 l 744 1013 l 515 724 l 339 724 l 110 1013 m 426 -14 q 126 72 225 -14 q 28 329 28 158 q 426 672 28 672 q 828 329 828 672 q 426 -14 828 -14 m 426 201 q 501 231 478 201 q 524 329 524 260 q 500 427 524 397 q 426 457 476 457 q 354 427 376 457 q 332 329 332 397 q 354 231 332 260 q 426 201 376 201 z "},"ô":{"ha":856,"x_min":28,"x_max":828,"o":"m 339 1014 l 515 1014 l 744 725 l 533 725 l 428 875 l 326 725 l 110 725 l 339 1014 m 426 -14 q 126 72 225 -14 q 28 329 28 158 q 426 672 28 672 q 828 329 828 672 q 426 -14 828 -14 m 426 201 q 501 231 478 201 q 524 329 524 260 q 500 427 524 397 q 426 457 476 457 q 354 427 376 457 q 332 329 332 397 q 354 231 332 260 q 426 201 376 201 z "},"ố":{"ha":868,"x_min":28,"x_max":922,"o":"m 704 1131 l 922 1131 l 811 903 l 603 903 l 704 1131 m 310 947 l 526 947 l 735 725 l 500 725 l 418 832 l 339 725 l 101 725 l 310 947 m 426 -14 q 126 72 225 -14 q 28 329 28 158 q 426 672 28 672 q 828 329 828 672 q 426 -14 828 -14 m 426 201 q 501 231 478 201 q 524 329 524 260 q 500 427 524 397 q 426 457 476 457 q 354 427 376 457 q 332 329 332 397 q 354 231 332 260 q 426 201 376 201 z "},"ộ":{"ha":856,"x_min":28,"x_max":828,"o":"m 340 1014 l 517 1014 l 746 725 l 535 725 l 429 875 l 328 725 l 111 725 l 340 1014 m 426 -14 q 126 72 225 -14 q 28 329 28 158 q 426 672 28 672 q 828 329 828 672 q 426 -14 828 -14 m 426 201 q 501 231 478 201 q 524 329 524 260 q 500 427 524 397 q 426 457 476 457 q 354 427 376 457 q 332 329 332 397 q 354 231 332 260 q 426 201 376 201 m 329 -64 l 528 -64 l 528 -244 l 329 -244 l 329 -64 z "},"ồ":{"ha":856,"x_min":-79,"x_max":828,"o":"m -79 1131 l 140 1131 l 242 903 l 33 903 l -79 1131 m 317 947 l 535 947 l 743 725 l 506 725 l 425 832 l 343 725 l 108 725 l 317 947 m 426 -14 q 126 72 225 -14 q 28 329 28 158 q 426 672 28 672 q 828 329 828 672 q 426 -14 828 -14 m 426 201 q 501 231 478 201 q 524 329 524 260 q 500 427 524 397 q 426 457 476 457 q 354 427 376 457 q 332 329 332 397 q 354 231 332 260 q 426 201 376 201 z "},"ổ":{"ha":856,"x_min":28,"x_max":913,"o":"m 618 978 q 692 989 672 979 q 713 1015 713 999 q 699 1035 713 1029 q 660 1040 686 1040 q 590 1029 629 1040 l 590 1143 q 740 1160 653 1160 q 868 1126 824 1160 q 913 1036 913 1092 q 814 915 913 933 l 814 871 l 618 871 l 618 978 m 310 947 l 528 947 l 736 725 l 501 725 l 419 832 l 339 725 l 101 725 l 310 947 m 426 -14 q 126 72 225 -14 q 28 329 28 158 q 426 672 28 672 q 828 329 828 672 q 426 -14 828 -14 m 426 201 q 501 231 478 201 q 524 329 524 260 q 500 427 524 397 q 426 457 476 457 q 354 427 376 457 q 332 329 332 397 q 354 231 332 260 q 426 201 376 201 z "},"ỗ":{"ha":856,"x_min":28,"x_max":828,"o":"m 558 1004 q 499 1012 528 1004 q 426 1035 469 1019 q 365 1054 390 1047 q 314 1061 339 1061 q 182 1008 232 1061 l 182 1154 q 236 1186 201 1174 q 310 1199 271 1199 q 367 1192 340 1199 q 438 1169 394 1185 q 501 1149 474 1156 q 554 1142 528 1142 q 628 1156 596 1142 q 678 1196 661 1171 l 678 1049 q 631 1017 664 1031 q 558 1004 597 1004 m 428 725 q 234 787 304 725 q 164 975 164 849 l 329 975 q 354 898 329 926 q 428 869 379 869 q 501 898 476 869 q 525 975 525 926 l 692 975 q 621 787 692 849 q 428 725 550 725 m 426 -14 q 126 72 225 -14 q 28 329 28 158 q 426 672 28 672 q 828 329 828 672 q 426 -14 828 -14 m 426 201 q 501 231 478 201 q 524 329 524 260 q 500 427 524 397 q 426 457 476 457 q 354 427 376 457 q 332 329 332 397 q 354 231 332 260 q 426 201 376 201 z "},"ö":{"ha":856,"x_min":28,"x_max":828,"o":"m 171 946 l 371 946 l 371 764 l 171 764 l 171 946 m 485 946 l 683 946 l 683 764 l 485 764 l 485 946 m 426 -14 q 126 72 225 -14 q 28 329 28 158 q 426 672 28 672 q 828 329 828 672 q 426 -14 828 -14 m 426 201 q 501 231 478 201 q 524 329 524 260 q 500 427 524 397 q 426 457 476 457 q 354 427 376 457 q 332 329 332 397 q 354 231 332 260 q 426 201 376 201 z "},"ọ":{"ha":856,"x_min":28,"x_max":828,"o":"m 426 -14 q 126 72 225 -14 q 28 329 28 158 q 426 672 28 672 q 828 329 828 672 q 426 -14 828 -14 m 426 201 q 501 231 478 201 q 524 329 524 260 q 500 427 524 397 q 426 457 476 457 q 354 427 376 457 q 332 329 332 397 q 354 231 332 260 q 426 201 376 201 m 329 -64 l 528 -64 l 528 -244 l 329 -244 l 329 -64 z "},"ò":{"ha":856,"x_min":28,"x_max":828,"o":"m 175 1025 l 407 1025 l 535 725 l 315 725 l 175 1025 m 426 -14 q 126 72 225 -14 q 28 329 28 158 q 426 672 28 672 q 828 329 828 672 q 426 -14 828 -14 m 426 201 q 501 231 478 201 q 524 329 524 260 q 500 427 524 397 q 426 457 476 457 q 354 427 376 457 q 332 329 332 397 q 354 231 332 260 q 426 201 376 201 z "},"ỏ":{"ha":856,"x_min":28,"x_max":828,"o":"m 310 838 q 403 856 376 842 q 431 894 431 869 q 354 938 431 938 q 274 925 314 938 l 274 1044 q 444 1064 339 1064 q 594 1024 540 1064 q 647 919 647 983 q 620 828 647 860 q 532 778 593 796 l 532 725 l 310 725 l 310 838 m 426 -14 q 126 72 225 -14 q 28 329 28 158 q 426 672 28 672 q 828 329 828 672 q 426 -14 828 -14 m 426 201 q 501 231 478 201 q 524 329 524 260 q 500 427 524 397 q 426 457 476 457 q 354 427 376 457 q 332 329 332 397 q 354 231 332 260 q 426 201 376 201 z "},"ơ":{"ha":1021,"x_min":35,"x_max":1007,"o":"m 419 -14 q 35 329 35 -14 q 131 585 35 497 q 419 672 226 672 q 692 599 594 672 q 795 631 768 599 q 822 744 822 664 l 1007 744 q 957 528 1007 600 q 794 436 907 456 q 807 329 807 389 q 419 -14 807 -14 m 419 176 q 512 213 483 176 q 540 329 540 249 q 512 445 540 408 q 419 482 483 482 q 329 445 357 482 q 301 329 301 408 q 329 213 301 249 q 419 176 357 176 z "},"ớ":{"ha":1021,"x_min":35,"x_max":1007,"o":"m 436 1025 l 667 1025 l 526 725 l 308 725 l 436 1025 m 419 -14 q 35 329 35 -14 q 131 585 35 497 q 419 672 226 672 q 692 599 594 672 q 795 631 768 599 q 822 744 822 664 l 1007 744 q 957 528 1007 600 q 794 436 907 456 q 807 329 807 389 q 419 -14 807 -14 m 419 176 q 512 213 483 176 q 540 329 540 249 q 512 445 540 408 q 419 482 483 482 q 329 445 357 482 q 301 329 301 408 q 329 213 301 249 q 419 176 357 176 z "},"ợ":{"ha":1021,"x_min":35,"x_max":1007,"o":"m 419 -14 q 35 329 35 -14 q 131 585 35 497 q 419 672 226 672 q 692 599 594 672 q 795 631 768 599 q 822 744 822 664 l 1007 744 q 957 528 1007 600 q 794 436 907 456 q 807 329 807 389 q 419 -14 807 -14 m 419 176 q 512 213 483 176 q 540 329 540 249 q 512 445 540 408 q 419 482 483 482 q 329 445 357 482 q 301 329 301 408 q 329 213 301 249 q 419 176 357 176 m 326 -64 l 525 -64 l 525 -244 l 326 -244 l 326 -64 z "},"ờ":{"ha":1021,"x_min":35,"x_max":1007,"o":"m 182 1025 l 414 1025 l 542 725 l 322 725 l 182 1025 m 419 -14 q 35 329 35 -14 q 131 585 35 497 q 419 672 226 672 q 692 599 594 672 q 795 631 768 599 q 822 744 822 664 l 1007 744 q 957 528 1007 600 q 794 436 907 456 q 807 329 807 389 q 419 -14 807 -14 m 419 176 q 512 213 483 176 q 540 329 540 249 q 512 445 540 408 q 419 482 483 482 q 329 445 357 482 q 301 329 301 408 q 329 213 301 249 q 419 176 357 176 z "},"ở":{"ha":1021,"x_min":35,"x_max":1007,"o":"m 308 838 q 402 856 375 842 q 429 894 429 869 q 353 938 429 938 q 272 925 313 938 l 272 1044 q 443 1064 338 1064 q 592 1024 539 1064 q 646 919 646 983 q 619 828 646 860 q 531 778 592 796 l 531 725 l 308 725 l 308 838 m 419 -14 q 35 329 35 -14 q 131 585 35 497 q 419 672 226 672 q 692 599 594 672 q 795 631 768 599 q 822 744 822 664 l 1007 744 q 957 528 1007 600 q 794 436 907 456 q 807 329 807 389 q 419 -14 807 -14 m 419 176 q 512 213 483 176 q 540 329 540 249 q 512 445 540 408 q 419 482 483 482 q 329 445 357 482 q 301 329 301 408 q 329 213 301 249 q 419 176 357 176 z "},"ỡ":{"ha":1021,"x_min":35,"x_max":1007,"o":"m 574 728 q 509 735 540 728 q 429 760 478 743 q 360 781 386 774 q 308 788 335 788 q 168 732 224 788 l 168 911 q 226 944 189 931 q 304 958 264 958 q 367 951 338 958 q 440 928 397 943 q 510 906 482 913 q 569 899 539 899 q 648 915 614 899 q 700 956 682 931 l 700 775 q 651 742 686 756 q 574 728 615 728 m 419 -14 q 35 329 35 -14 q 131 585 35 497 q 419 672 226 672 q 692 599 594 672 q 795 631 768 599 q 822 744 822 664 l 1007 744 q 957 528 1007 600 q 794 436 907 456 q 807 329 807 389 q 419 -14 807 -14 m 419 176 q 512 213 483 176 q 540 329 540 249 q 512 445 540 408 q 419 482 483 482 q 329 445 357 482 q 301 329 301 408 q 329 213 301 249 q 419 176 357 176 z "},"ő":{"ha":856,"x_min":28,"x_max":828,"o":"m 224 993 l 476 993 l 326 724 l 99 724 l 224 993 m 574 993 l 826 993 l 676 724 l 449 724 l 574 993 m 426 -14 q 126 72 225 -14 q 28 329 28 158 q 426 672 28 672 q 828 329 828 672 q 426 -14 828 -14 m 426 201 q 501 231 478 201 q 524 329 524 260 q 500 427 524 397 q 426 457 476 457 q 354 427 376 457 q 332 329 332 397 q 354 231 332 260 q 426 201 376 201 z "},"ō":{"ha":856,"x_min":28,"x_max":828,"o":"m 185 951 l 656 951 l 656 776 l 185 776 l 185 951 m 426 -14 q 126 72 225 -14 q 28 329 28 158 q 426 672 28 672 q 828 329 828 672 q 426 -14 828 -14 m 426 201 q 501 231 478 201 q 524 329 524 260 q 500 427 524 397 q 426 457 476 457 q 354 427 376 457 q 332 329 332 397 q 354 231 332 260 q 426 201 376 201 z "},"ø":{"ha":856,"x_min":28,"x_max":828,"o":"m 239 11 q 28 329 28 76 q 426 672 28 672 q 501 668 467 672 l 528 733 l 649 733 l 614 647 q 828 329 828 579 q 426 -14 828 -14 q 350 -10 386 -14 l 325 -75 l 206 -75 l 239 11 m 425 475 q 339 439 368 474 q 310 329 310 404 q 328 233 310 268 l 425 475 m 428 183 q 515 218 485 183 q 546 329 546 253 q 525 425 546 392 l 428 183 z "},"ǿ":{"ha":856,"x_min":28,"x_max":828,"o":"m 385 1025 l 615 1025 l 475 725 l 257 725 l 385 1025 m 239 11 q 28 329 28 76 q 426 672 28 672 q 501 668 467 672 l 528 733 l 649 733 l 614 647 q 828 329 828 579 q 426 -14 828 -14 q 350 -10 386 -14 l 325 -75 l 206 -75 l 239 11 m 425 475 q 339 439 368 474 q 310 329 310 404 q 328 233 310 268 l 425 475 m 428 183 q 515 218 485 183 q 546 329 546 253 q 525 425 546 392 l 428 183 z "},"õ":{"ha":856,"x_min":28,"x_max":828,"o":"m 567 758 q 502 766 533 758 q 422 790 471 774 q 353 811 379 804 q 301 818 328 818 q 161 763 217 818 l 161 942 q 219 975 182 961 q 297 989 257 989 q 360 981 331 989 q 433 958 390 974 q 503 936 475 943 q 563 929 532 929 q 641 945 607 929 q 693 986 675 961 l 693 806 q 644 772 679 786 q 567 758 608 758 m 426 -14 q 126 72 225 -14 q 28 329 28 158 q 426 672 28 672 q 828 329 828 672 q 426 -14 828 -14 m 426 201 q 501 231 478 201 q 524 329 524 260 q 500 427 524 397 q 426 457 476 457 q 354 427 376 457 q 332 329 332 397 q 354 231 332 260 q 426 201 376 201 z "},"œ":{"ha":1310,"x_min":28,"x_max":1281,"o":"m 1281 244 l 833 244 q 901 187 851 206 q 1036 168 951 168 q 1151 178 1093 168 q 1246 203 1210 189 l 1246 33 q 960 -14 1147 -14 q 701 51 804 -14 q 426 -14 603 -14 q 126 72 225 -14 q 28 329 28 158 q 426 672 28 672 q 692 613 593 672 q 924 672 782 672 q 1185 589 1089 672 q 1281 358 1281 506 l 1281 244 m 1025 418 q 1003 469 1025 450 q 933 489 982 489 q 857 466 881 489 q 833 400 833 443 l 1025 400 l 1025 418 m 426 201 q 501 231 478 201 q 524 329 524 260 q 500 427 524 397 q 426 457 476 457 q 354 427 376 457 q 332 329 332 397 q 354 231 332 260 q 426 201 376 201 z "},"p":{"ha":857,"x_min":56,"x_max":829,"o":"m 56 658 l 314 658 l 328 610 q 415 656 368 640 q 521 672 461 672 q 751 591 672 672 q 829 336 829 510 q 745 74 829 163 q 508 -14 661 -14 q 425 -6 467 -14 q 354 17 383 3 l 354 -289 l 56 -289 l 56 658 m 433 201 q 502 232 479 201 q 525 333 525 263 q 503 429 525 401 q 435 457 481 457 q 354 426 389 457 l 354 228 q 390 208 372 214 q 433 201 408 201 z "},"þ":{"ha":857,"x_min":56,"x_max":829,"o":"m 56 972 l 354 972 l 354 640 q 428 663 383 654 q 515 672 474 672 q 748 587 667 672 q 829 328 829 501 q 746 71 829 156 q 508 -14 663 -14 q 425 -6 467 -14 q 354 17 383 3 l 354 -300 l 56 -300 l 56 972 m 433 201 q 502 232 479 201 q 525 333 525 263 q 503 429 525 401 q 435 457 481 457 q 354 426 389 457 l 354 228 q 390 208 372 214 q 433 201 408 201 z "},"q":{"ha":931,"x_min":28,"x_max":917,"o":"m 743 -336 q 560 -281 618 -336 q 503 -108 503 -226 l 503 17 q 431 -6 474 3 q 349 -14 389 -14 q 110 64 193 -14 q 28 313 28 142 q 112 579 28 486 q 340 672 196 672 q 444 656 400 672 q 528 610 488 640 l 543 658 l 801 658 l 801 -71 q 812 -114 801 -101 q 850 -126 822 -126 q 917 -114 886 -126 l 917 -304 q 838 -329 875 -322 q 743 -336 801 -336 m 424 201 q 467 208 449 201 q 503 228 486 214 l 503 426 q 467 450 485 443 q 426 457 450 457 q 356 420 381 457 q 332 314 332 383 q 353 224 332 246 q 424 201 375 201 z "},"r":{"ha":576,"x_min":56,"x_max":576,"o":"m 56 658 l 346 658 l 353 613 q 454 653 393 636 q 576 672 515 671 l 576 451 q 456 438 521 449 q 354 413 392 428 l 354 0 l 56 0 l 56 658 z "},"ŕ":{"ha":576,"x_min":56,"x_max":576,"o":"m 210 1025 l 440 1025 l 300 725 l 82 725 l 210 1025 m 56 658 l 346 658 l 353 613 q 454 653 393 636 q 576 672 515 671 l 576 451 q 456 438 521 449 q 354 413 392 428 l 354 0 l 56 0 l 56 658 z "},"ř":{"ha":576,"x_min":-101,"x_max":576,"o":"m -101 1013 l 115 1013 l 217 863 l 322 1013 l 533 1013 l 304 724 l 128 724 l -101 1013 m 56 658 l 346 658 l 353 613 q 454 653 393 636 q 576 672 515 671 l 576 451 q 456 438 521 449 q 354 413 392 428 l 354 0 l 56 0 l 56 658 z "},"ŗ":{"ha":596,"x_min":53,"x_max":596,"o":"m 75 658 l 365 658 l 372 613 q 474 653 413 636 q 596 672 535 671 l 596 451 q 476 438 540 449 q 374 413 411 428 l 374 0 l 75 0 l 75 658 m 101 -51 l 332 -51 l 247 -381 l 53 -381 l 101 -51 z "},"ṛ":{"ha":576,"x_min":56,"x_max":576,"o":"m 56 658 l 346 658 l 353 613 q 454 653 393 636 q 576 672 515 671 l 576 451 q 456 438 521 449 q 354 413 392 428 l 354 0 l 56 0 l 56 658 m 104 -64 l 303 -64 l 303 -244 l 104 -244 l 104 -64 z "},"ṝ":{"ha":576,"x_min":21,"x_max":576,"o":"m 21 940 l 492 940 l 492 765 l 21 765 l 21 940 m 56 658 l 346 658 l 353 613 q 454 653 393 636 q 576 672 515 671 l 576 451 q 456 438 521 449 q 354 413 392 428 l 354 0 l 56 0 l 56 658 m 111 -62 l 310 -62 l 310 -243 l 111 -243 l 111 -62 z "},"ṟ":{"ha":576,"x_min":-26,"x_max":576,"o":"m 56 658 l 346 658 l 353 613 q 454 653 393 636 q 576 672 515 671 l 576 451 q 456 438 521 449 q 354 413 392 428 l 354 0 l 56 0 l 56 658 m -26 -69 l 444 -69 l 444 -244 l -26 -244 l -26 -69 z "},"s":{"ha":690,"x_min":28,"x_max":663,"o":"m 325 -14 q 158 -1 238 -14 q 35 31 79 11 l 35 231 q 149 193 81 207 q 269 179 218 179 q 339 182 321 179 q 357 200 357 185 q 340 220 357 213 q 279 239 322 228 q 203 263 224 256 q 68 340 108 297 q 28 461 28 383 q 367 672 28 672 q 506 663 431 672 q 621 639 581 653 l 621 442 q 530 469 581 460 q 438 479 479 479 q 360 476 388 479 q 332 457 332 472 q 347 440 332 446 q 407 421 363 433 q 474 403 442 414 q 588 355 547 381 q 645 292 628 329 q 663 200 663 256 q 576 42 663 99 q 325 -14 489 -14 z "},"ś":{"ha":690,"x_min":28,"x_max":663,"o":"m 332 1025 l 563 1025 l 422 725 l 204 725 l 332 1025 m 325 -14 q 158 -1 238 -14 q 35 31 79 11 l 35 231 q 149 193 81 207 q 269 179 218 179 q 339 182 321 179 q 357 200 357 185 q 340 220 357 213 q 279 239 322 228 q 203 263 224 256 q 68 340 108 297 q 28 461 28 383 q 367 672 28 672 q 506 663 431 672 q 621 639 581 653 l 621 442 q 530 469 581 460 q 438 479 479 479 q 360 476 388 479 q 332 457 332 472 q 347 440 332 446 q 407 421 363 433 q 474 403 442 414 q 588 355 547 381 q 645 292 628 329 q 663 200 663 256 q 576 42 663 99 q 325 -14 489 -14 z "},"š":{"ha":731,"x_min":50,"x_max":704,"o":"m 50 1013 l 267 1013 l 368 863 l 474 1013 l 685 1013 l 456 724 l 279 724 l 50 1013 m 367 -14 q 200 -1 279 -14 q 76 31 121 11 l 76 231 q 191 193 122 207 q 311 179 260 179 q 381 182 363 179 q 399 200 399 185 q 381 220 399 213 q 321 239 364 228 q 244 263 265 256 q 110 340 150 297 q 69 461 69 383 q 408 672 69 672 q 547 663 472 672 q 663 639 622 653 l 663 442 q 572 469 622 460 q 479 479 521 479 q 401 476 428 479 q 374 457 374 472 q 389 440 374 446 q 449 421 404 433 q 515 403 483 414 q 629 355 589 381 q 687 292 669 329 q 704 200 704 256 q 617 42 704 99 q 367 -14 531 -14 z "},"ş":{"ha":690,"x_min":28,"x_max":663,"o":"m 663 200 q 595 56 663 111 q 399 -11 528 1 l 383 -54 q 497 -91 457 -54 q 536 -186 536 -128 q 478 -294 536 -256 q 306 -333 419 -333 q 241 -330 279 -333 q 188 -322 203 -326 l 188 -218 q 269 -229 228 -229 q 342 -217 318 -229 q 365 -181 365 -206 q 349 -149 365 -157 q 303 -140 333 -140 l 207 -140 l 244 -11 q 35 31 106 0 l 35 231 q 149 193 81 207 q 269 179 218 179 q 339 182 321 179 q 357 200 357 185 q 340 220 357 213 q 279 239 322 228 q 203 263 224 256 q 68 340 108 297 q 28 461 28 383 q 367 672 28 672 q 506 663 431 672 q 621 639 581 653 l 621 442 q 530 469 581 460 q 438 479 479 479 q 360 476 388 479 q 332 457 332 472 q 347 440 332 446 q 407 421 363 433 q 474 403 442 414 q 588 355 547 381 q 645 292 628 329 q 663 200 663 256 z "},"ŝ":{"ha":719,"x_min":35,"x_max":690,"o":"m 264 1013 l 440 1013 l 669 724 l 458 724 l 353 874 l 251 724 l 35 724 l 264 1013 m 353 -14 q 186 -1 265 -14 q 63 31 107 11 l 63 231 q 177 193 108 207 q 297 179 246 179 q 367 182 349 179 q 385 200 385 185 q 367 220 385 213 q 307 239 350 228 q 231 263 251 256 q 96 340 136 297 q 56 461 56 383 q 394 672 56 672 q 533 663 458 672 q 649 639 608 653 l 649 442 q 558 469 608 460 q 465 479 507 479 q 387 476 414 479 q 360 457 360 472 q 375 440 360 446 q 435 421 390 433 q 501 403 469 414 q 615 355 575 381 q 673 292 656 329 q 690 200 690 256 q 603 42 690 99 q 353 -14 517 -14 z "},"ș":{"ha":690,"x_min":28,"x_max":663,"o":"m 325 -14 q 158 -1 238 -14 q 35 31 79 11 l 35 231 q 149 193 81 207 q 269 179 218 179 q 339 182 321 179 q 357 200 357 185 q 340 220 357 213 q 279 239 322 228 q 203 263 224 256 q 68 340 108 297 q 28 461 28 383 q 367 672 28 672 q 506 663 431 672 q 621 639 581 653 l 621 442 q 530 469 581 460 q 438 479 479 479 q 360 476 388 479 q 332 457 332 472 q 347 440 332 446 q 407 421 363 433 q 474 403 442 414 q 588 355 547 381 q 645 292 628 329 q 663 200 663 256 q 576 42 663 99 q 325 -14 489 -14 m 231 -56 l 474 -56 l 406 -331 l 185 -331 l 231 -56 z "},"ṡ":{"ha":690,"x_min":28,"x_max":663,"o":"m 224 946 l 422 946 l 422 764 l 224 764 l 224 946 m 325 -14 q 158 -1 238 -14 q 35 31 79 11 l 35 231 q 149 193 81 207 q 269 179 218 179 q 339 182 321 179 q 357 200 357 185 q 340 220 357 213 q 279 239 322 228 q 203 263 224 256 q 68 340 108 297 q 28 461 28 383 q 367 672 28 672 q 506 663 431 672 q 621 639 581 653 l 621 442 q 530 469 581 460 q 438 479 479 479 q 360 476 388 479 q 332 457 332 472 q 347 440 332 446 q 407 421 363 433 q 474 403 442 414 q 588 355 547 381 q 645 292 628 329 q 663 200 663 256 q 576 42 663 99 q 325 -14 489 -14 z "},"ṣ":{"ha":690,"x_min":28,"x_max":663,"o":"m 325 -14 q 158 -1 238 -14 q 35 31 79 11 l 35 231 q 149 193 81 207 q 269 179 218 179 q 339 182 321 179 q 357 200 357 185 q 340 220 357 213 q 279 239 322 228 q 203 263 224 256 q 68 340 108 297 q 28 461 28 383 q 367 672 28 672 q 506 663 431 672 q 621 639 581 653 l 621 442 q 530 469 581 460 q 438 479 479 479 q 360 476 388 479 q 332 457 332 472 q 347 440 332 446 q 407 421 363 433 q 474 403 442 414 q 588 355 547 381 q 645 292 628 329 q 663 200 663 256 q 576 42 663 99 q 325 -14 489 -14 m 251 -64 l 450 -64 l 450 -244 l 251 -244 l 251 -64 z "},"ß":{"ha":906,"x_min":49,"x_max":878,"o":"m 569 -14 q 465 -6 515 -14 q 385 17 415 3 l 385 222 q 433 210 404 214 q 489 206 463 206 q 572 285 572 206 q 550 339 572 322 q 479 356 528 356 l 397 356 l 397 551 l 464 551 q 557 636 557 551 q 533 697 557 674 q 451 719 508 719 q 332 603 332 719 l 332 0 l 49 0 l 49 622 q 96 805 49 725 q 231 928 143 885 q 439 972 319 972 q 662 927 569 972 q 800 808 754 882 q 846 651 846 735 q 822 535 846 585 q 757 458 799 486 q 847 387 817 432 q 878 268 878 342 q 796 63 878 139 q 569 -14 714 -14 z "},"ə":{"ha":776,"x_min":28,"x_max":749,"o":"m 385 -14 q 124 69 219 -14 q 28 299 28 151 l 28 413 l 475 413 q 407 470 457 451 q 272 489 357 489 q 156 479 214 489 q 63 456 99 469 l 63 624 q 349 672 164 672 q 638 583 528 672 q 749 331 749 494 q 656 78 749 169 q 385 -14 563 -14 m 375 168 q 475 258 475 168 l 283 258 l 283 240 q 306 188 283 208 q 375 168 328 168 z "},"t":{"ha":539,"x_min":0,"x_max":539,"o":"m 349 -14 q 147 53 211 -14 q 82 246 82 121 l 82 440 l 0 440 l 0 658 l 82 658 l 82 790 l 381 856 l 381 658 l 524 658 l 515 440 l 381 440 l 381 264 q 399 213 381 229 q 456 197 417 197 q 539 211 497 197 l 539 19 q 349 -14 458 -14 z "},"ŧ":{"ha":539,"x_min":0,"x_max":539,"o":"m 349 -14 q 147 53 211 -14 q 82 246 82 121 l 82 256 l 0 256 l 0 414 l 82 414 l 82 457 l 0 457 l 0 658 l 82 658 l 82 790 l 381 856 l 381 658 l 524 658 l 515 457 l 381 457 l 381 414 l 524 414 l 524 256 l 381 256 q 401 211 382 225 q 456 197 419 197 q 539 211 497 197 l 539 19 q 349 -14 458 -14 z "},"ť":{"ha":751,"x_min":0,"x_max":761,"o":"m 531 1104 l 761 1104 l 676 775 l 482 775 l 531 1104 m 349 -14 q 147 53 211 -14 q 82 246 82 121 l 82 440 l 0 440 l 0 658 l 82 658 l 82 790 l 381 856 l 381 658 l 524 658 l 515 440 l 381 440 l 381 264 q 399 213 381 229 q 456 197 417 197 q 539 211 497 197 l 539 19 q 349 -14 458 -14 z "},"ţ":{"ha":543,"x_min":0,"x_max":561,"o":"m 408 -54 q 522 -91 482 -54 q 561 -186 561 -128 q 503 -294 561 -256 q 331 -333 444 -333 q 266 -330 304 -333 q 213 -322 228 -326 l 213 -218 q 294 -229 253 -229 q 367 -217 343 -229 q 390 -181 390 -206 q 374 -149 390 -157 q 328 -140 358 -140 l 232 -140 l 271 -7 q 82 246 82 29 l 82 440 l 0 440 l 0 658 l 82 658 l 82 790 l 381 856 l 381 658 l 524 658 l 515 440 l 381 440 l 381 264 q 399 213 381 229 q 456 197 417 197 q 539 211 497 197 l 539 19 q 424 -10 486 -1 l 408 -54 z "},"ț":{"ha":539,"x_min":0,"x_max":539,"o":"m 349 -14 q 147 53 211 -14 q 82 246 82 121 l 82 440 l 0 440 l 0 658 l 82 658 l 82 790 l 381 856 l 381 658 l 524 658 l 515 440 l 381 440 l 381 264 q 399 213 381 229 q 456 197 417 197 q 539 211 497 197 l 539 19 q 349 -14 458 -14 m 224 -56 l 454 -56 l 369 -385 l 175 -385 l 224 -56 z "},"ẗ":{"ha":551,"x_min":13,"x_max":551,"o":"m 13 1076 l 213 1076 l 213 894 l 13 894 l 13 1076 m 326 1076 l 525 1076 l 525 894 l 326 894 l 326 1076 m 361 -14 q 159 53 224 -14 q 94 246 94 121 l 94 440 l 13 440 l 13 658 l 94 658 l 94 790 l 393 856 l 393 658 l 536 658 l 528 440 l 393 440 l 393 264 q 411 213 393 229 q 468 197 429 197 q 551 211 510 197 l 551 19 q 361 -14 471 -14 z "},"ṭ":{"ha":539,"x_min":0,"x_max":539,"o":"m 349 -14 q 147 53 211 -14 q 82 246 82 121 l 82 440 l 0 440 l 0 658 l 82 658 l 82 790 l 381 856 l 381 658 l 524 658 l 515 440 l 381 440 l 381 264 q 399 213 381 229 q 456 197 417 197 q 539 211 497 197 l 539 19 q 349 -14 458 -14 m 194 -64 l 393 -64 l 393 -244 l 194 -244 l 194 -64 z "},"ṯ":{"ha":539,"x_min":0,"x_max":539,"o":"m 349 -14 q 147 53 211 -14 q 82 246 82 121 l 82 440 l 0 440 l 0 658 l 82 658 l 82 790 l 381 856 l 381 658 l 524 658 l 515 440 l 381 440 l 381 264 q 399 213 381 229 q 456 197 417 197 q 539 211 497 197 l 539 19 q 349 -14 458 -14 m 33 -69 l 504 -69 l 504 -244 l 33 -244 l 33 -69 z "},"u":{"ha":854,"x_min":49,"x_max":799,"o":"m 292 -14 q 113 52 176 -14 q 49 242 49 118 l 49 658 l 347 658 l 347 271 q 364 222 347 238 q 414 206 381 206 q 460 217 436 206 q 500 243 485 228 l 500 658 l 799 658 l 799 0 l 518 0 l 511 43 q 415 1 472 17 q 292 -14 358 -14 z "},"ú":{"ha":854,"x_min":49,"x_max":799,"o":"m 413 1025 l 643 1025 l 503 725 l 285 725 l 413 1025 m 292 -14 q 113 52 176 -14 q 49 242 49 118 l 49 658 l 347 658 l 347 271 q 364 222 347 238 q 414 206 381 206 q 460 217 436 206 q 500 243 485 228 l 500 658 l 799 658 l 799 0 l 518 0 l 511 43 q 415 1 472 17 q 292 -14 358 -14 z "},"ŭ":{"ha":863,"x_min":57,"x_max":807,"o":"m 436 724 q 229 798 306 724 q 153 1007 153 872 l 344 1007 q 366 920 344 953 q 436 888 388 888 q 529 1007 529 888 l 722 1007 q 645 798 722 872 q 436 724 568 724 m 300 -14 q 121 52 185 -14 q 57 242 57 118 l 57 658 l 356 658 l 356 271 q 372 222 356 238 q 422 206 389 206 q 469 217 444 206 q 508 243 493 228 l 508 658 l 807 658 l 807 0 l 526 0 l 519 43 q 424 1 481 17 q 300 -14 367 -14 z "},"ǔ":{"ha":886,"x_min":81,"x_max":831,"o":"m 139 1013 l 356 1013 l 457 863 l 563 1013 l 774 1013 l 544 724 l 368 724 l 139 1013 m 324 -14 q 144 52 208 -14 q 81 242 81 118 l 81 658 l 379 658 l 379 271 q 396 222 379 238 q 446 206 413 206 q 492 217 468 206 q 532 243 517 228 l 532 658 l 831 658 l 831 0 l 550 0 l 543 43 q 447 1 504 17 q 324 -14 390 -14 z "},"û":{"ha":854,"x_min":49,"x_max":799,"o":"m 333 1014 l 510 1014 l 739 725 l 528 725 l 422 875 l 321 725 l 104 725 l 333 1014 m 292 -14 q 113 52 176 -14 q 49 242 49 118 l 49 658 l 347 658 l 347 271 q 364 222 347 238 q 414 206 381 206 q 460 217 436 206 q 500 243 485 228 l 500 658 l 799 658 l 799 0 l 518 0 l 511 43 q 415 1 472 17 q 292 -14 358 -14 z "},"ü":{"ha":854,"x_min":49,"x_max":799,"o":"m 168 946 l 368 946 l 368 764 l 168 764 l 168 946 m 482 946 l 681 946 l 681 764 l 482 764 l 482 946 m 292 -14 q 113 52 176 -14 q 49 242 49 118 l 49 658 l 347 658 l 347 271 q 364 222 347 238 q 414 206 381 206 q 460 217 436 206 q 500 243 485 228 l 500 658 l 799 658 l 799 0 l 518 0 l 511 43 q 415 1 472 17 q 292 -14 358 -14 z "},"ǘ":{"ha":854,"x_min":49,"x_max":799,"o":"m 390 1169 l 611 1169 l 511 974 l 311 974 l 390 1169 m 165 935 l 360 935 l 360 764 l 165 764 l 165 935 m 474 935 l 668 935 l 668 764 l 474 764 l 474 935 m 292 -14 q 113 52 176 -14 q 49 242 49 118 l 49 658 l 347 658 l 347 271 q 364 222 347 238 q 414 206 381 206 q 460 217 436 206 q 500 243 485 228 l 500 658 l 799 658 l 799 0 l 518 0 l 511 43 q 415 1 472 17 q 292 -14 358 -14 z "},"ǚ":{"ha":854,"x_min":49,"x_max":799,"o":"m 135 1126 l 353 1126 l 428 1025 l 507 1126 l 721 1126 l 529 933 l 325 933 l 135 1126 m 171 896 l 365 896 l 365 725 l 171 725 l 171 896 m 479 896 l 674 896 l 674 725 l 479 725 l 479 896 m 292 -14 q 113 52 176 -14 q 49 242 49 118 l 49 658 l 347 658 l 347 271 q 364 222 347 238 q 414 206 381 206 q 460 217 436 206 q 500 243 485 228 l 500 658 l 799 658 l 799 0 l 518 0 l 511 43 q 415 1 472 17 q 292 -14 358 -14 z "},"ǜ":{"ha":854,"x_min":49,"x_max":799,"o":"m 233 1169 l 454 1169 l 533 974 l 333 974 l 233 1169 m 176 935 l 371 935 l 371 764 l 176 764 l 176 935 m 485 935 l 679 935 l 679 764 l 485 764 l 485 935 m 292 -14 q 113 52 176 -14 q 49 242 49 118 l 49 658 l 347 658 l 347 271 q 364 222 347 238 q 414 206 381 206 q 460 217 436 206 q 500 243 485 228 l 500 658 l 799 658 l 799 0 l 518 0 l 511 43 q 415 1 472 17 q 292 -14 358 -14 z "},"ǖ":{"ha":854,"x_min":49,"x_max":799,"o":"m 190 1168 l 661 1168 l 661 993 l 190 993 l 190 1168 m 169 921 l 369 921 l 369 739 l 169 739 l 169 921 m 483 921 l 682 921 l 682 739 l 483 739 l 483 921 m 292 -14 q 113 52 176 -14 q 49 242 49 118 l 49 658 l 347 658 l 347 271 q 364 222 347 238 q 414 206 381 206 q 460 217 436 206 q 500 243 485 228 l 500 658 l 799 658 l 799 0 l 518 0 l 511 43 q 415 1 472 17 q 292 -14 358 -14 z "},"ụ":{"ha":854,"x_min":49,"x_max":799,"o":"m 292 -14 q 113 52 176 -14 q 49 242 49 118 l 49 658 l 347 658 l 347 271 q 364 222 347 238 q 414 206 381 206 q 460 217 436 206 q 500 243 485 228 l 500 658 l 799 658 l 799 0 l 518 0 l 511 43 q 415 1 472 17 q 292 -14 358 -14 m 321 -64 l 519 -64 l 519 -244 l 321 -244 l 321 -64 z "},"ù":{"ha":854,"x_min":49,"x_max":799,"o":"m 201 1025 l 433 1025 l 561 725 l 342 725 l 201 1025 m 292 -14 q 113 52 176 -14 q 49 242 49 118 l 49 658 l 347 658 l 347 271 q 364 222 347 238 q 414 206 381 206 q 460 217 436 206 q 500 243 485 228 l 500 658 l 799 658 l 799 0 l 518 0 l 511 43 q 415 1 472 17 q 292 -14 358 -14 z "},"ủ":{"ha":854,"x_min":49,"x_max":799,"o":"m 314 838 q 408 856 381 842 q 435 894 435 869 q 358 938 435 938 q 278 925 318 938 l 278 1044 q 449 1064 343 1064 q 598 1024 544 1064 q 651 919 651 983 q 624 828 651 860 q 536 778 597 796 l 536 725 l 314 725 l 314 838 m 292 -14 q 113 52 176 -14 q 49 242 49 118 l 49 658 l 347 658 l 347 271 q 364 222 347 238 q 414 206 381 206 q 460 217 436 206 q 500 243 485 228 l 500 658 l 799 658 l 799 0 l 518 0 l 511 43 q 415 1 472 17 q 292 -14 358 -14 z "},"ư":{"ha":1075,"x_min":56,"x_max":1061,"o":"m 301 -14 q 120 52 185 -14 q 56 243 56 118 l 56 658 l 317 658 l 317 264 q 338 199 317 219 q 404 178 360 178 q 465 192 435 178 q 515 226 496 206 l 515 658 l 776 658 l 776 600 q 855 639 833 606 q 876 744 876 672 l 1061 744 q 1033 566 1061 633 q 942 467 1004 499 q 776 429 881 435 l 776 0 l 532 0 l 525 50 q 301 -14 435 -14 z "},"ứ":{"ha":1075,"x_min":56,"x_max":1061,"o":"m 428 1025 l 658 1025 l 518 725 l 300 725 l 428 1025 m 301 -14 q 120 52 185 -14 q 56 243 56 118 l 56 658 l 317 658 l 317 264 q 338 199 317 219 q 404 178 360 178 q 465 192 435 178 q 515 226 496 206 l 515 658 l 776 658 l 776 600 q 855 639 833 606 q 876 744 876 672 l 1061 744 q 1033 566 1061 633 q 942 467 1004 499 q 776 429 881 435 l 776 0 l 532 0 l 525 50 q 301 -14 435 -14 z "},"ự":{"ha":1075,"x_min":56,"x_max":1061,"o":"m 301 -14 q 120 52 185 -14 q 56 243 56 118 l 56 658 l 317 658 l 317 264 q 338 199 317 219 q 404 178 360 178 q 465 192 435 178 q 515 226 496 206 l 515 658 l 776 658 l 776 600 q 855 639 833 606 q 876 744 876 672 l 1061 744 q 1033 566 1061 633 q 942 467 1004 499 q 776 429 881 435 l 776 0 l 532 0 l 525 50 q 301 -14 435 -14 m 326 -64 l 525 -64 l 525 -244 l 326 -244 l 326 -64 z "},"ừ":{"ha":1075,"x_min":56,"x_max":1061,"o":"m 157 1025 l 389 1025 l 517 725 l 297 725 l 157 1025 m 301 -14 q 120 52 185 -14 q 56 243 56 118 l 56 658 l 317 658 l 317 264 q 338 199 317 219 q 404 178 360 178 q 465 192 435 178 q 515 226 496 206 l 515 658 l 776 658 l 776 600 q 855 639 833 606 q 876 744 876 672 l 1061 744 q 1033 566 1061 633 q 942 467 1004 499 q 776 429 881 435 l 776 0 l 532 0 l 525 50 q 301 -14 435 -14 z "},"ử":{"ha":1075,"x_min":56,"x_max":1061,"o":"m 292 838 q 385 856 358 842 q 413 894 413 869 q 336 938 413 938 q 256 925 296 938 l 256 1044 q 426 1064 321 1064 q 576 1024 522 1064 q 629 919 629 983 q 602 828 629 860 q 514 778 575 796 l 514 725 l 292 725 l 292 838 m 301 -14 q 120 52 185 -14 q 56 243 56 118 l 56 658 l 317 658 l 317 264 q 338 199 317 219 q 404 178 360 178 q 465 192 435 178 q 515 226 496 206 l 515 658 l 776 658 l 776 600 q 855 639 833 606 q 876 744 876 672 l 1061 744 q 1033 566 1061 633 q 942 467 1004 499 q 776 429 881 435 l 776 0 l 532 0 l 525 50 q 301 -14 435 -14 z "},"ữ":{"ha":1075,"x_min":56,"x_max":1061,"o":"m 565 728 q 501 735 532 728 q 421 760 469 743 q 352 781 378 774 q 300 788 326 788 q 160 732 215 788 l 160 911 q 218 944 181 931 q 296 958 256 958 q 359 951 329 958 q 432 928 389 943 q 502 906 474 913 q 561 899 531 899 q 640 915 606 899 q 692 956 674 931 l 692 775 q 642 742 678 756 q 565 728 607 728 m 301 -14 q 120 52 185 -14 q 56 243 56 118 l 56 658 l 317 658 l 317 264 q 338 199 317 219 q 404 178 360 178 q 465 192 435 178 q 515 226 496 206 l 515 658 l 776 658 l 776 600 q 855 639 833 606 q 876 744 876 672 l 1061 744 q 1033 566 1061 633 q 942 467 1004 499 q 776 429 881 435 l 776 0 l 532 0 l 525 50 q 301 -14 435 -14 z "},"ű":{"ha":876,"x_min":71,"x_max":872,"o":"m 269 993 l 522 993 l 372 724 l 144 724 l 269 993 m 619 993 l 872 993 l 722 724 l 494 724 l 619 993 m 314 -14 q 135 52 199 -14 q 71 242 71 118 l 71 658 l 369 658 l 369 271 q 386 222 369 238 q 436 206 403 206 q 483 217 458 206 q 522 243 507 228 l 522 658 l 821 658 l 821 0 l 540 0 l 533 43 q 438 1 494 17 q 314 -14 381 -14 z "},"ū":{"ha":854,"x_min":49,"x_max":799,"o":"m 190 951 l 661 951 l 661 776 l 190 776 l 190 951 m 292 -14 q 113 52 176 -14 q 49 242 49 118 l 49 658 l 347 658 l 347 271 q 364 222 347 238 q 414 206 381 206 q 460 217 436 206 q 500 243 485 228 l 500 658 l 799 658 l 799 0 l 518 0 l 511 43 q 415 1 472 17 q 292 -14 358 -14 z "},"ų":{"ha":847,"x_min":49,"x_max":799,"o":"m 704 0 q 631 -115 631 -57 q 693 -164 631 -164 q 731 -160 711 -164 q 763 -149 750 -156 l 763 -282 q 695 -299 738 -292 q 608 -306 653 -306 q 466 -271 518 -306 q 414 -167 414 -236 q 442 -72 414 -115 q 518 0 471 -29 l 511 43 q 415 1 472 17 q 292 -14 358 -14 q 113 52 176 -14 q 49 242 49 118 l 49 658 l 347 658 l 347 271 q 364 222 347 238 q 414 206 381 206 q 460 217 436 206 q 500 243 485 228 l 500 658 l 799 658 l 799 0 l 704 0 z "},"ů":{"ha":854,"x_min":49,"x_max":799,"o":"m 422 724 q 274 777 328 724 q 219 914 219 831 q 274 1052 219 999 q 422 1106 328 1106 q 572 1052 518 1106 q 626 914 626 999 q 572 777 626 831 q 422 724 518 724 m 422 842 q 478 863 458 842 q 499 914 499 883 q 478 966 499 944 q 422 988 458 988 q 366 966 386 988 q 346 914 346 944 q 366 863 346 883 q 422 842 386 842 m 292 -14 q 113 52 176 -14 q 49 242 49 118 l 49 658 l 347 658 l 347 271 q 364 222 347 238 q 414 206 381 206 q 460 217 436 206 q 500 243 485 228 l 500 658 l 799 658 l 799 0 l 518 0 l 511 43 q 415 1 472 17 q 292 -14 358 -14 z "},"ũ":{"ha":854,"x_min":49,"x_max":799,"o":"m 561 733 q 497 741 528 733 q 417 765 465 749 q 348 786 374 779 q 296 793 322 793 q 156 738 211 793 l 156 917 q 214 950 176 936 q 292 964 251 964 q 355 956 325 964 q 428 933 385 949 q 498 911 469 918 q 557 904 526 904 q 635 920 601 904 q 688 961 669 936 l 688 781 q 638 747 674 761 q 561 733 603 733 m 292 -14 q 113 52 176 -14 q 49 242 49 118 l 49 658 l 347 658 l 347 271 q 364 222 347 238 q 414 206 381 206 q 460 217 436 206 q 500 243 485 228 l 500 658 l 799 658 l 799 0 l 518 0 l 511 43 q 415 1 472 17 q 292 -14 358 -14 z "},"v":{"ha":888,"x_min":28,"x_max":860,"o":"m 28 658 l 339 658 l 443 314 l 549 658 l 860 658 l 600 0 l 288 0 l 28 658 z "},"w":{"ha":1108,"x_min":28,"x_max":1081,"o":"m 28 658 l 314 658 l 381 382 l 439 560 l 439 658 l 656 658 l 731 382 l 794 658 l 1081 658 l 907 0 l 642 0 l 556 256 l 469 0 l 201 0 l 28 658 z "},"ẃ":{"ha":1108,"x_min":28,"x_max":1081,"o":"m 563 1025 l 793 1025 l 653 725 l 435 725 l 563 1025 m 28 658 l 314 658 l 381 382 l 439 560 l 439 658 l 656 658 l 731 382 l 794 658 l 1081 658 l 907 0 l 642 0 l 556 256 l 469 0 l 201 0 l 28 658 z "},"ŵ":{"ha":1108,"x_min":28,"x_max":1081,"o":"m 468 1013 l 644 1013 l 874 724 l 663 724 l 557 874 l 456 724 l 239 724 l 468 1013 m 28 658 l 314 658 l 381 382 l 439 560 l 439 658 l 656 658 l 731 382 l 794 658 l 1081 658 l 907 0 l 642 0 l 556 256 l 469 0 l 201 0 l 28 658 z "},"ẅ":{"ha":1108,"x_min":28,"x_max":1081,"o":"m 300 946 l 500 946 l 500 764 l 300 764 l 300 946 m 614 946 l 813 946 l 813 764 l 614 764 l 614 946 m 28 658 l 314 658 l 381 382 l 439 560 l 439 658 l 656 658 l 731 382 l 794 658 l 1081 658 l 907 0 l 642 0 l 556 256 l 469 0 l 201 0 l 28 658 z "},"ẁ":{"ha":1108,"x_min":28,"x_max":1081,"o":"m 294 1025 l 526 1025 l 654 725 l 435 725 l 294 1025 m 28 658 l 314 658 l 381 382 l 439 560 l 439 658 l 656 658 l 731 382 l 794 658 l 1081 658 l 907 0 l 642 0 l 556 256 l 469 0 l 201 0 l 28 658 z "},"x":{"ha":890,"x_min":35,"x_max":828,"o":"m 289 335 l 44 658 l 328 658 l 431 519 l 535 658 l 817 658 l 574 335 l 828 0 l 542 0 l 431 147 l 319 0 l 35 0 l 289 335 z "},"y":{"ha":915,"x_min":28,"x_max":915,"o":"m 300 -244 q 197 -238 238 -244 q 118 -215 157 -232 l 118 -19 q 201 -33 153 -33 q 278 -23 251 -33 q 326 18 304 -12 l 28 658 l 340 658 l 475 300 l 604 658 l 915 658 l 681 71 q 528 -164 619 -83 q 300 -244 438 -244 z "},"ý":{"ha":915,"x_min":28,"x_max":915,"o":"m 488 1025 l 718 1025 l 578 725 l 360 725 l 488 1025 m 300 -244 q 197 -238 238 -244 q 118 -215 157 -232 l 118 -19 q 201 -33 153 -33 q 278 -23 251 -33 q 326 18 304 -12 l 28 658 l 340 658 l 475 300 l 604 658 l 915 658 l 681 71 q 528 -164 619 -83 q 300 -244 438 -244 z "},"ŷ":{"ha":915,"x_min":28,"x_max":915,"o":"m 388 1013 l 564 1013 l 793 724 l 582 724 l 476 874 l 375 724 l 158 724 l 388 1013 m 300 -244 q 197 -238 238 -244 q 118 -215 157 -232 l 118 -19 q 201 -33 153 -33 q 278 -23 251 -33 q 326 18 304 -12 l 28 658 l 340 658 l 475 300 l 604 658 l 915 658 l 681 71 q 528 -164 619 -83 q 300 -244 438 -244 z "},"ÿ":{"ha":915,"x_min":28,"x_max":915,"o":"m 218 979 l 418 979 l 418 797 l 218 797 l 218 979 m 532 979 l 731 979 l 731 797 l 532 797 l 532 979 m 300 -244 q 197 -238 238 -244 q 118 -215 157 -232 l 118 -19 q 201 -33 153 -33 q 278 -23 251 -33 q 326 18 304 -12 l 28 658 l 340 658 l 475 300 l 604 658 l 915 658 l 681 71 q 528 -164 619 -83 q 300 -244 438 -244 z "},"ẏ":{"ha":915,"x_min":28,"x_max":915,"o":"m 375 946 l 574 946 l 574 764 l 375 764 l 375 946 m 300 -244 q 197 -238 238 -244 q 118 -215 157 -232 l 118 -19 q 201 -33 153 -33 q 278 -23 251 -33 q 326 18 304 -12 l 28 658 l 340 658 l 475 300 l 604 658 l 915 658 l 681 71 q 528 -164 619 -83 q 300 -244 438 -244 z "},"ỵ":{"ha":915,"x_min":28,"x_max":915,"o":"m 300 -244 q 197 -238 238 -244 q 118 -215 157 -232 l 118 -19 q 201 -33 153 -33 q 278 -23 251 -33 q 326 18 304 -12 l 28 658 l 340 658 l 475 300 l 604 658 l 915 658 l 681 71 q 528 -164 619 -83 q 300 -244 438 -244 m 644 -64 l 843 -64 l 843 -244 l 644 -244 l 644 -64 z "},"ỳ":{"ha":915,"x_min":28,"x_max":915,"o":"m 219 1025 l 451 1025 l 579 725 l 360 725 l 219 1025 m 300 -244 q 197 -238 238 -244 q 118 -215 157 -232 l 118 -19 q 201 -33 153 -33 q 278 -23 251 -33 q 326 18 304 -12 l 28 658 l 340 658 l 475 300 l 604 658 l 915 658 l 681 71 q 528 -164 619 -83 q 300 -244 438 -244 z "},"ỷ":{"ha":915,"x_min":28,"x_max":915,"o":"m 365 838 q 459 856 432 842 q 486 894 486 869 q 410 938 486 938 q 329 925 369 938 l 329 1044 q 500 1064 394 1064 q 649 1024 596 1064 q 703 919 703 983 q 676 828 703 860 q 588 778 649 796 l 588 725 l 365 725 l 365 838 m 300 -244 q 197 -238 238 -244 q 118 -215 157 -232 l 118 -19 q 201 -33 153 -33 q 278 -23 251 -33 q 326 18 304 -12 l 28 658 l 340 658 l 475 300 l 604 658 l 915 658 l 681 71 q 528 -164 619 -83 q 300 -244 438 -244 z "},"ỹ":{"ha":915,"x_min":28,"x_max":915,"o":"m 615 733 q 551 741 582 733 q 471 765 519 749 q 402 786 428 779 q 350 793 376 793 q 210 738 265 793 l 210 917 q 268 950 231 936 q 346 964 306 964 q 409 956 379 964 q 482 933 439 949 q 552 911 524 918 q 611 904 581 904 q 690 920 656 904 q 742 961 724 936 l 742 781 q 692 747 728 761 q 615 733 657 733 m 300 -244 q 197 -238 238 -244 q 118 -215 157 -232 l 118 -19 q 201 -33 153 -33 q 278 -23 251 -33 q 326 18 304 -12 l 28 658 l 340 658 l 475 300 l 604 658 l 915 658 l 681 71 q 528 -164 619 -83 q 300 -244 438 -244 z "},"z":{"ha":694,"x_min":28,"x_max":667,"o":"m 28 160 l 276 429 l 36 429 l 36 658 l 657 658 l 657 488 l 418 221 l 667 221 l 667 0 l 28 0 l 28 160 z "},"ź":{"ha":694,"x_min":28,"x_max":667,"o":"m 350 1025 l 581 1025 l 440 725 l 222 725 l 350 1025 m 28 160 l 276 429 l 36 429 l 36 658 l 657 658 l 657 488 l 418 221 l 667 221 l 667 0 l 28 0 l 28 160 z "},"ž":{"ha":713,"x_min":36,"x_max":678,"o":"m 36 1013 l 253 1013 l 354 863 l 460 1013 l 671 1013 l 442 724 l 265 724 l 36 1013 m 39 160 l 288 429 l 47 429 l 47 658 l 668 658 l 668 488 l 429 221 l 678 221 l 678 0 l 39 0 l 39 160 z "},"ż":{"ha":694,"x_min":28,"x_max":667,"o":"m 246 946 l 444 946 l 444 764 l 246 764 l 246 946 m 28 160 l 276 429 l 36 429 l 36 658 l 657 658 l 657 488 l 418 221 l 667 221 l 667 0 l 28 0 l 28 160 z "},"ẓ":{"ha":694,"x_min":28,"x_max":667,"o":"m 28 160 l 276 429 l 36 429 l 36 658 l 657 658 l 657 488 l 418 221 l 667 221 l 667 0 l 28 0 l 28 160 m 229 -64 l 428 -64 l 428 -244 l 229 -244 l 229 -64 z "},"ﬁ":{"ha":833,"x_min":0,"x_max":778,"o":"m 81 440 l 0 440 l 0 658 l 81 658 l 81 685 q 116 822 81 760 q 223 922 151 885 q 396 960 294 960 q 600 929 521 960 l 600 733 q 558 744 583 740 q 508 749 532 749 q 413 730 446 749 q 379 679 379 711 l 379 658 l 778 658 l 778 0 l 479 0 l 479 440 l 379 440 l 379 0 l 81 0 l 81 440 z "},"ﬂ":{"ha":833,"x_min":0,"x_max":778,"o":"m 81 440 l 0 440 l 0 658 l 81 658 l 81 685 q 116 823 81 761 q 220 922 151 885 q 383 958 289 958 q 575 929 485 958 l 778 929 l 778 0 l 483 0 l 483 440 l 376 440 l 376 0 l 81 0 l 81 440 m 488 658 l 488 736 q 436 744 465 744 q 374 679 374 744 l 374 658 l 488 658 z "},"ª":{"ha":461,"x_min":28,"x_max":433,"o":"m 157 528 q 64 558 100 528 q 28 647 28 588 q 183 771 28 771 l 272 771 l 272 775 q 200 806 272 806 q 74 786 136 806 l 74 881 q 147 901 103 893 q 235 908 192 908 q 380 870 326 908 q 433 757 433 832 l 433 536 l 285 536 l 278 563 q 157 528 236 528 m 218 622 q 272 646 253 622 l 272 683 l 226 683 q 192 676 203 683 q 182 653 182 669 q 218 622 182 622 z "},"º":{"ha":500,"x_min":28,"x_max":472,"o":"m 249 528 q 28 718 28 528 q 249 908 28 908 q 472 718 472 908 q 249 528 472 528 m 249 649 q 288 665 276 649 q 300 718 300 681 q 288 771 300 756 q 249 786 276 786 q 210 771 222 786 q 199 718 199 756 q 210 665 199 681 q 249 649 222 649 z "},"ⁿ":{"ha":481,"x_min":35,"x_max":453,"o":"m 35 900 l 190 900 l 193 876 q 326 907 251 907 q 453 771 453 907 l 453 536 l 286 536 l 286 749 q 278 775 286 767 q 251 783 269 783 q 225 778 240 783 q 200 764 210 772 l 200 536 l 35 536 l 35 900 z "},"Δ":{"ha":881,"x_min":28,"x_max":853,"o":"m 28 156 l 319 894 l 558 894 l 853 154 l 853 0 l 28 0 l 28 156 m 567 226 l 439 549 l 310 226 l 567 226 z "},"Ω":{"ha":1036,"x_min":28,"x_max":1008,"o":"m 38 221 l 164 221 q 28 513 28 325 q 155 846 28 726 q 518 965 282 965 q 881 846 754 965 q 1008 513 1008 726 q 976 343 1008 415 q 871 221 943 271 l 999 221 l 999 0 l 554 0 l 554 231 q 669 342 633 279 q 704 494 704 406 q 657 655 704 599 q 518 711 610 711 q 379 655 426 711 q 332 494 332 599 q 367 342 332 406 q 481 231 401 279 l 481 0 l 38 0 l 38 221 z "},"μ":{"ha":861,"x_min":56,"x_max":806,"o":"m 56 658 l 354 658 l 354 271 q 371 222 354 238 q 421 206 388 206 q 467 217 443 206 q 507 243 492 228 l 507 658 l 806 658 l 806 0 l 525 0 l 518 43 q 472 1 501 17 q 407 -14 443 -14 q 354 -6 376 -14 l 354 -199 l 56 -199 l 56 658 z "},"π":{"ha":969,"x_min":14,"x_max":956,"o":"m 768 -14 q 499 264 499 -14 l 499 422 l 394 422 l 394 0 l 96 0 l 96 422 l 14 422 l 14 658 l 881 658 l 881 422 l 797 422 l 797 281 q 815 229 797 246 q 872 213 833 213 q 956 226 914 213 l 956 19 q 870 -6 914 3 q 768 -14 826 -14 z "},"ก":{"ha":892,"x_min":28,"x_max":836,"o":"m 46 235 q 72 331 46 288 q 147 392 99 375 l 28 432 l 28 638 q 206 728 104 692 q 426 764 307 764 q 736 679 636 764 q 836 451 836 594 l 836 0 l 531 0 l 531 436 q 503 525 531 499 q 408 551 475 551 q 338 542 372 551 q 281 519 304 533 l 281 513 l 422 464 l 422 338 q 367 301 385 326 q 349 229 349 275 l 349 0 l 46 0 l 46 235 z "},"ถ":{"ha":892,"x_min":28,"x_max":836,"o":"m 193 0 q 86 40 126 0 q 46 144 46 79 l 46 235 q 72 331 46 288 q 147 392 99 375 l 28 432 l 28 638 q 206 728 104 692 q 426 764 307 764 q 736 679 636 764 q 836 451 836 594 l 836 0 l 531 0 l 531 436 q 503 525 531 499 q 408 551 475 551 q 338 542 372 551 q 281 519 304 533 l 281 513 l 422 464 l 422 338 q 366 304 383 326 q 349 244 349 282 l 349 221 q 388 182 349 182 l 432 182 l 432 0 l 193 0 z "},"ภ":{"ha":928,"x_min":28,"x_max":872,"o":"m 28 189 l 60 189 q 97 228 97 189 l 97 253 q 117 339 97 304 q 183 392 136 374 l 64 432 l 64 638 q 242 728 139 692 q 463 764 344 764 q 772 679 672 764 q 872 451 872 594 l 872 0 l 567 0 l 567 436 q 540 525 567 499 q 446 551 513 551 q 317 519 374 551 l 317 513 l 458 464 l 458 338 q 414 306 425 326 q 403 243 403 286 l 403 154 q 361 40 403 81 q 244 0 319 0 l 28 0 l 28 189 z "},"ฤ":{"ha":892,"x_min":28,"x_max":836,"o":"m 531 436 q 503 525 531 499 q 408 551 475 551 q 338 542 372 551 q 281 519 304 533 l 281 513 l 422 464 l 422 338 q 366 304 383 326 q 349 244 349 282 l 349 221 q 388 182 349 182 l 432 182 l 432 0 l 193 0 q 86 40 126 0 q 46 144 46 79 l 46 235 q 72 331 46 288 q 147 392 99 375 l 28 432 l 28 638 q 206 728 104 692 q 426 764 307 764 q 736 679 636 764 q 836 451 836 594 l 836 -222 l 531 -222 l 531 436 z "},"ฦ":{"ha":928,"x_min":28,"x_max":872,"o":"m 567 436 q 540 525 567 499 q 446 551 513 551 q 317 519 374 551 l 317 513 l 458 464 l 458 338 q 414 306 425 326 q 403 243 403 286 l 403 154 q 361 40 403 81 q 244 0 319 0 l 28 0 l 28 189 l 60 189 q 97 228 97 189 l 97 253 q 117 340 97 306 q 183 392 136 374 l 64 432 l 64 638 q 242 728 139 692 q 463 764 344 764 q 772 679 672 764 q 872 451 872 594 l 872 -222 l 567 -222 l 567 436 z "},"ฎ":{"ha":928,"x_min":28,"x_max":872,"o":"m 196 -65 q 305 -33 250 -43 q 429 -22 360 -22 q 506 -28 464 -22 q 567 -42 547 -35 l 567 436 q 540 525 567 499 q 446 551 513 551 q 317 519 374 551 l 317 513 l 458 464 l 458 338 q 414 306 425 326 q 403 243 403 286 l 403 154 q 358 41 403 82 q 239 0 314 0 l 28 0 l 28 189 l 60 189 q 97 228 97 189 l 97 253 q 117 340 97 306 q 183 392 136 374 l 64 432 l 64 638 q 242 728 139 692 q 463 764 344 764 q 772 679 672 764 q 872 451 872 594 l 872 -269 l 607 -269 q 520 -240 565 -249 q 414 -231 475 -231 q 300 -243 358 -231 q 196 -278 242 -256 l 196 -65 z "},"ฏ":{"ha":928,"x_min":28,"x_max":872,"o":"m 608 -278 q 394 -215 475 -278 q 240 -269 347 -269 l 132 -269 l 146 -71 l 215 -71 q 265 -60 247 -71 q 289 -24 282 -49 l 465 -24 q 519 -72 476 -72 q 554 -59 542 -72 q 567 -22 567 -46 l 567 436 q 540 525 567 499 q 446 551 513 551 q 317 519 374 551 l 317 513 l 458 464 l 458 338 q 414 306 425 326 q 403 243 403 286 l 403 154 q 358 41 403 82 q 239 0 314 0 l 28 0 l 28 189 l 60 189 q 97 228 97 189 l 97 253 q 117 340 97 306 q 183 392 136 374 l 64 432 l 64 638 q 242 728 139 692 q 463 764 344 764 q 772 679 672 764 q 872 451 872 594 l 872 -19 q 839 -149 872 -90 q 746 -243 806 -208 q 608 -278 686 -278 z "},"ญ":{"ha":1347,"x_min":28,"x_max":1300,"o":"m 921 -119 q 742 -103 832 -119 q 599 -60 651 -86 l 599 131 q 739 85 650 101 q 913 68 828 68 q 1033 81 1000 68 q 1067 121 1067 94 q 1057 150 1067 140 q 969 133 1018 140 q 882 125 921 125 q 609 197 704 125 q 514 424 514 269 l 514 443 q 490 527 514 503 q 401 551 467 551 q 281 519 335 551 l 281 513 l 422 464 l 422 338 q 366 304 383 326 q 349 244 349 282 l 349 221 q 388 182 349 182 l 432 182 l 432 0 l 193 0 q 86 40 126 0 q 46 144 46 79 l 46 235 q 72 331 46 288 q 147 392 99 375 l 28 432 l 28 638 q 206 728 104 692 q 425 764 307 764 q 721 685 633 764 q 808 465 808 606 l 808 444 q 830 372 808 394 q 899 349 851 349 q 971 372 949 349 q 993 444 993 396 l 993 750 l 1292 750 l 1292 446 q 1275 340 1292 389 q 1225 256 1258 290 q 1300 106 1300 201 q 1200 -60 1300 0 q 921 -119 1100 -119 z "},"ข":{"ha":856,"x_min":28,"x_max":800,"o":"m 421 -14 q 147 63 247 -14 q 47 274 47 139 l 47 304 q 62 378 47 346 q 103 447 76 410 q 126 483 119 469 q 133 510 133 497 q 125 538 133 529 q 94 546 117 546 l 28 546 l 51 750 l 296 750 q 407 715 372 750 q 442 614 442 681 q 426 538 442 572 q 381 461 411 504 q 343 396 356 421 q 331 342 331 371 l 331 297 q 354 237 331 257 q 421 217 378 217 q 493 240 469 217 q 517 306 517 264 l 517 750 l 800 750 l 800 279 q 700 63 800 139 q 421 -14 600 -14 z "},"ฃ":{"ha":875,"x_min":28,"x_max":819,"o":"m 440 -14 q 165 52 264 -14 q 65 244 65 118 l 65 267 q 92 355 65 314 q 167 446 119 396 q 208 494 196 478 q 221 524 221 511 q 215 544 221 538 q 199 550 210 550 q 172 536 185 550 l 172 483 l 28 483 l 28 750 l 192 750 l 192 711 q 252 738 214 726 q 328 750 290 750 q 438 715 399 750 q 476 614 476 679 q 456 517 476 557 q 400 428 436 476 q 362 372 374 393 q 350 325 350 350 l 350 300 q 374 238 350 258 q 440 217 397 217 q 511 240 488 217 q 535 306 535 264 l 535 750 l 819 750 l 819 279 q 719 63 819 139 q 440 -14 619 -14 z "},"ช":{"ha":867,"x_min":28,"x_max":811,"o":"m 426 -14 q 149 61 251 -14 q 47 269 47 136 l 47 300 q 62 376 47 343 q 103 446 76 408 q 126 484 119 471 q 133 510 133 497 q 125 538 133 529 q 94 546 117 546 l 28 546 l 51 750 l 286 750 q 397 715 363 750 q 432 614 432 681 q 418 536 432 569 q 376 460 404 503 q 342 395 353 421 q 331 339 331 369 l 331 297 q 356 237 331 257 q 426 217 381 217 q 528 300 528 217 l 528 347 q 469 414 528 414 l 444 414 l 458 617 l 469 617 q 515 635 501 617 q 528 701 528 653 l 528 764 l 811 764 l 811 713 q 792 591 811 638 q 726 517 774 544 q 792 447 774 490 q 811 342 811 403 l 811 282 q 708 65 811 144 q 426 -14 604 -14 z "},"ซ":{"ha":868,"x_min":28,"x_max":813,"o":"m 433 -14 q 158 53 258 -14 q 58 244 58 119 l 58 267 q 85 355 58 314 q 160 446 113 396 q 201 494 189 478 q 214 524 214 511 q 208 544 214 538 q 192 550 203 550 q 165 536 178 550 l 165 483 l 28 483 l 28 750 l 192 750 l 192 711 q 250 738 214 726 q 324 750 286 750 q 428 714 392 750 q 467 617 465 678 l 476 617 q 517 635 506 617 q 528 701 528 653 l 528 764 l 813 764 l 813 713 q 793 592 813 639 q 726 517 774 544 q 794 447 775 490 q 813 342 813 403 l 813 279 q 713 63 813 139 q 433 -14 613 -14 m 433 217 q 504 240 481 217 q 528 306 528 264 l 528 357 q 472 422 528 422 l 451 422 l 463 567 q 438 492 456 524 q 390 419 419 460 q 354 366 365 386 q 343 322 343 346 l 343 297 q 367 237 343 257 q 433 217 390 217 z "},"ค":{"ha":883,"x_min":63,"x_max":828,"o":"m 63 444 q 162 683 63 601 q 446 764 261 764 q 729 683 631 764 q 828 444 828 601 l 828 0 l 567 0 l 567 451 q 536 542 567 510 q 446 574 506 574 q 324 451 324 574 l 324 368 q 369 388 342 381 q 426 394 397 394 l 499 394 l 506 190 l 424 190 q 324 168 363 190 l 324 0 l 63 0 l 63 444 z "},"ฅ":{"ha":883,"x_min":63,"x_max":828,"o":"m 63 540 q 116 703 63 643 q 271 764 169 764 q 367 747 321 764 q 444 693 413 729 q 524 747 476 729 q 624 764 572 764 q 777 706 726 764 q 828 540 828 649 l 828 0 l 567 0 l 567 513 q 558 559 567 544 q 526 574 550 574 q 497 564 508 574 q 476 536 486 554 l 414 536 q 397 564 407 554 q 371 574 388 574 q 324 513 324 574 l 324 368 q 369 388 342 381 q 426 394 397 394 l 499 394 l 506 190 l 424 190 q 324 168 363 190 l 324 0 l 63 0 l 63 540 z "},"ศ":{"ha":914,"x_min":63,"x_max":900,"o":"m 63 444 q 162 683 63 601 q 446 764 261 764 q 582 750 513 764 l 900 750 l 888 560 l 806 560 q 828 440 828 511 l 828 0 l 567 0 l 567 451 q 536 542 567 510 q 446 574 506 574 q 324 451 324 574 l 324 368 q 369 388 342 381 q 426 394 397 394 l 499 394 l 506 190 l 424 190 q 324 168 363 190 l 324 0 l 63 0 l 63 444 z "},"ด":{"ha":921,"x_min":28,"x_max":865,"o":"m 358 -14 q 28 346 28 -14 q 465 764 28 764 q 692 722 603 764 q 824 611 782 681 q 865 457 865 542 l 865 0 l 575 0 l 575 413 q 550 497 575 468 q 458 526 525 526 q 362 484 392 526 q 332 346 332 442 q 355 230 332 263 q 436 197 378 197 q 513 208 483 197 l 513 14 q 358 -14 453 -14 z "},"ต":{"ha":931,"x_min":28,"x_max":875,"o":"m 358 -14 q 115 74 203 -14 q 28 351 28 161 q 103 660 28 556 q 310 764 178 764 q 401 747 363 764 q 471 693 439 729 q 556 746 504 728 q 660 764 607 764 q 819 708 764 764 q 875 560 875 653 l 875 0 l 583 0 l 583 464 q 575 512 583 497 q 544 526 567 526 q 501 492 515 526 l 431 492 q 413 518 422 510 q 389 526 404 526 q 331 351 331 526 q 354 233 331 268 q 436 197 378 197 q 513 208 483 197 l 513 14 q 358 -14 453 -14 z "},"ท":{"ha":892,"x_min":56,"x_max":836,"o":"m 56 750 l 332 750 l 342 699 q 447 746 386 728 q 576 764 507 764 q 767 696 697 764 q 836 503 836 628 l 836 0 l 538 0 l 538 463 q 517 525 538 506 q 456 544 497 544 q 398 533 428 544 q 354 504 368 521 l 354 0 l 56 0 l 56 750 z "},"ฑ":{"ha":886,"x_min":28,"x_max":831,"o":"m 85 219 q 108 322 85 274 q 172 426 132 371 q 210 485 199 465 q 221 524 221 506 q 199 550 221 550 q 172 536 185 550 l 172 483 l 28 483 l 28 750 l 192 750 l 192 711 q 315 750 249 750 q 419 717 378 750 q 493 751 449 738 q 585 764 538 764 q 768 699 706 764 q 831 507 831 633 l 831 0 l 533 0 l 533 507 q 526 540 533 531 q 499 550 518 550 q 467 536 481 550 q 456 456 467 489 q 425 375 446 422 q 394 297 404 329 q 383 219 383 265 l 383 0 l 85 0 l 85 219 z "},"น":{"ha":892,"x_min":56,"x_max":836,"o":"m 315 -14 q 126 54 197 -14 q 56 246 56 122 l 56 750 l 354 750 l 354 286 q 374 225 354 244 q 436 206 394 206 q 494 217 464 206 q 538 246 524 229 l 538 750 l 836 750 l 836 0 l 560 0 l 550 51 q 445 4 506 22 q 315 -14 385 -14 z "},"ม":{"ha":892,"x_min":56,"x_max":836,"o":"m 574 -14 q 446 4 506 -14 q 342 51 386 22 l 332 0 l 56 0 l 56 750 l 354 750 l 354 246 q 398 217 368 229 q 456 206 428 206 q 517 225 497 206 q 538 286 538 244 l 538 750 l 836 750 l 836 246 q 764 54 836 122 q 574 -14 692 -14 z "},"ฌ":{"ha":1329,"x_min":28,"x_max":1274,"o":"m 1017 -14 q 796 51 893 -14 l 786 0 l 514 0 l 514 436 q 490 526 514 500 q 401 551 467 551 q 281 519 335 551 l 281 513 l 422 464 l 422 338 q 366 304 383 326 q 349 244 349 282 l 349 221 q 388 182 349 182 l 432 182 l 432 0 l 193 0 q 86 40 126 0 q 46 144 46 79 l 46 235 q 72 331 46 288 q 147 392 99 375 l 28 432 l 28 638 q 203 728 104 693 q 418 764 301 764 q 808 451 808 764 l 808 246 q 850 217 824 229 q 901 206 876 206 q 958 224 942 206 q 975 286 975 243 l 975 750 l 1274 750 l 1274 246 q 1203 54 1274 122 q 1017 -14 1133 -14 z "},"ณ":{"ha":1335,"x_min":28,"x_max":1279,"o":"m 772 -14 q 585 54 656 -14 q 514 246 514 122 l 514 436 q 490 526 514 500 q 401 551 467 551 q 281 519 335 551 l 281 513 l 422 464 l 422 338 q 366 304 383 326 q 349 244 349 282 l 349 221 q 388 182 349 182 l 432 182 l 432 0 l 193 0 q 86 40 126 0 q 46 144 46 79 l 46 235 q 72 331 46 288 q 147 392 99 375 l 28 432 l 28 638 q 203 728 104 693 q 418 764 301 764 q 811 451 811 764 l 811 286 q 829 224 813 243 q 886 206 846 206 q 938 217 911 206 q 981 246 965 229 l 981 750 l 1279 750 l 1279 0 l 1001 0 l 992 51 q 772 -14 897 -14 z "},"ฒ":{"ha":1389,"x_min":28,"x_max":1333,"o":"m 358 -14 q 115 74 203 -14 q 28 351 28 161 q 102 660 28 556 q 308 764 176 764 q 399 747 361 764 q 468 693 436 731 q 552 746 501 728 q 656 764 603 764 q 813 708 758 764 q 868 560 868 653 l 868 246 q 910 217 883 229 q 961 206 936 206 q 1018 224 1001 206 q 1035 286 1035 243 l 1035 750 l 1333 750 l 1333 246 q 1263 54 1333 122 q 1076 -14 1193 -14 q 856 51 953 -14 l 846 0 l 578 0 l 578 464 q 570 512 578 497 q 540 526 563 526 q 499 492 513 526 l 428 492 q 411 518 419 510 q 388 526 403 526 q 331 351 331 526 q 354 233 331 268 q 436 197 378 197 q 513 208 483 197 l 513 14 q 358 -14 453 -14 z "},"ฆ":{"ha":892,"x_min":28,"x_max":836,"o":"m 574 -14 q 447 3 506 -14 q 346 51 389 21 l 336 0 l 58 0 l 58 242 q 86 336 58 292 q 165 439 114 381 q 208 490 194 471 q 221 524 221 510 q 215 544 221 538 q 199 550 210 550 q 172 536 185 550 l 172 483 l 28 483 l 28 750 l 207 750 l 207 711 q 266 738 228 726 q 342 750 304 750 q 447 713 410 750 q 483 610 483 675 q 464 502 483 546 q 407 407 444 458 q 369 347 381 369 q 357 296 357 324 l 357 246 q 401 217 371 229 q 460 206 432 206 q 522 225 501 206 q 542 286 542 244 l 542 750 l 836 750 l 836 246 q 764 54 836 122 q 574 -14 692 -14 z "},"ธ":{"ha":775,"x_min":28,"x_max":747,"o":"m 394 -14 q 199 4 294 -14 q 40 51 104 22 l 40 304 l 293 304 l 293 201 q 332 193 306 196 q 379 190 358 190 q 451 203 428 190 q 474 243 474 215 q 435 287 474 271 q 297 325 396 303 l 243 338 q 81 408 133 363 q 28 539 28 454 q 400 764 28 764 q 577 754 496 764 q 703 729 658 744 l 703 526 q 581 555 658 544 q 442 565 504 565 q 357 560 385 565 q 329 535 329 554 q 363 508 329 519 q 468 479 397 496 q 549 460 501 472 q 701 382 656 432 q 747 236 747 332 q 656 50 747 114 q 394 -14 564 -14 z "},"ร":{"ha":701,"x_min":28,"x_max":674,"o":"m 331 -14 q 160 -1 242 -14 q 35 31 79 11 l 35 240 q 153 201 85 217 q 272 186 221 186 q 347 194 325 186 q 368 221 368 201 q 346 254 368 242 q 263 289 324 267 l 210 308 q 70 395 113 346 q 28 528 28 444 q 115 699 28 635 q 372 764 203 764 q 515 754 440 764 q 635 731 590 744 l 635 524 q 536 552 592 542 q 438 563 481 563 q 358 555 385 563 q 332 525 332 547 q 352 494 332 506 q 424 467 372 483 l 482 446 q 601 388 560 417 q 658 319 642 358 q 674 218 674 281 q 585 49 674 111 q 331 -14 496 -14 z "},"จ":{"ha":803,"x_min":28,"x_max":775,"o":"m 390 -14 q 287 -6 339 -14 q 208 15 235 3 l 129 231 l 28 231 l 39 447 l 296 447 l 386 207 q 469 379 469 238 q 426 514 469 475 q 278 553 383 553 q 158 543 224 553 q 33 517 93 533 l 33 713 q 191 751 106 738 q 353 764 276 764 q 678 668 581 764 q 775 378 775 572 q 721 165 775 253 q 578 31 667 76 q 390 -14 490 -14 z "},"ว":{"ha":756,"x_min":28,"x_max":728,"o":"m 319 -14 q 28 39 140 -14 l 28 278 q 135 238 76 253 q 244 224 193 224 q 381 258 339 224 q 424 375 424 293 q 381 491 424 456 q 247 526 339 526 q 134 515 192 526 q 29 481 76 503 l 29 711 q 321 764 161 764 q 627 670 526 764 q 728 375 728 576 q 627 79 728 172 q 319 -14 526 -14 z "},"ง":{"ha":871,"x_min":28,"x_max":843,"o":"m 431 -14 q 324 -6 381 -14 q 228 15 267 1 l 28 521 l 311 521 l 440 193 q 538 394 538 217 q 508 502 538 471 q 414 533 479 533 l 363 533 l 363 750 l 479 750 q 749 661 654 750 q 843 396 843 572 q 733 87 843 188 q 431 -14 624 -14 z "},"ฐ":{"ha":865,"x_min":28,"x_max":838,"o":"m 390 -14 q 287 -6 339 -14 q 208 15 235 3 l 129 231 l 28 231 l 39 447 l 296 447 l 386 207 q 469 379 469 238 q 426 514 469 475 q 278 553 383 553 q 158 543 224 553 q 33 517 93 533 l 33 713 q 191 751 106 738 q 353 764 276 764 q 504 750 431 764 l 838 750 l 824 539 l 742 539 q 775 378 775 474 q 721 165 775 253 q 578 31 667 76 q 390 -14 490 -14 m 500 -307 q 391 -291 440 -307 q 310 -249 342 -275 q 175 -303 264 -303 l 38 -303 l 49 -104 l 144 -104 q 192 -94 176 -104 q 215 -57 208 -83 l 389 -57 q 457 -110 401 -110 q 501 -97 485 -110 q 518 -60 518 -83 l 518 -29 l 749 -29 l 749 -62 q 684 -239 749 -171 q 500 -307 619 -307 z "},"ฉ":{"ha":871,"x_min":42,"x_max":815,"o":"m 297 -14 q 115 52 182 -14 q 47 242 47 118 l 47 417 l 346 417 l 346 289 q 364 226 346 247 q 422 206 382 206 q 476 217 451 206 q 517 246 501 228 l 517 394 q 499 488 517 454 q 440 538 482 522 q 324 553 399 553 q 183 542 267 553 q 42 515 99 532 l 42 711 q 212 750 115 736 q 400 764 308 764 q 719 672 622 764 q 815 393 815 581 l 815 0 l 539 0 l 529 51 q 297 -14 435 -14 z "},"ล":{"ha":851,"x_min":28,"x_max":796,"o":"m 289 -14 q 100 46 172 -14 q 28 231 28 106 q 105 415 28 351 q 328 478 182 478 l 504 478 l 504 496 q 361 556 504 556 q 101 515 233 556 l 101 713 q 251 750 161 736 q 424 764 340 764 q 701 685 607 764 q 796 447 796 606 l 796 0 l 504 0 l 504 292 l 406 292 q 347 278 367 292 q 328 231 328 264 q 343 186 328 199 q 390 174 358 174 q 450 181 424 174 l 450 8 q 289 -14 390 -14 z "},"ส":{"ha":881,"x_min":28,"x_max":867,"o":"m 289 -14 q 99 44 171 -14 q 28 225 28 101 q 105 413 28 347 q 328 478 182 478 l 504 478 l 504 496 q 361 556 504 556 q 101 515 233 556 l 101 713 q 251 750 161 736 q 424 764 340 764 q 561 750 492 764 l 867 750 l 851 539 l 776 539 q 796 421 796 497 l 796 0 l 504 0 l 504 292 l 406 292 q 347 278 367 292 q 328 231 328 264 q 343 186 328 199 q 390 174 358 174 q 450 181 424 174 l 450 8 q 289 -14 390 -14 z "},"บ":{"ha":908,"x_min":56,"x_max":853,"o":"m 454 -14 q 164 74 272 -14 q 56 329 56 161 l 56 750 l 354 750 l 354 331 q 376 242 354 268 q 454 217 399 217 q 531 243 508 217 q 554 331 554 269 l 554 750 l 853 750 l 853 329 q 744 74 853 161 q 454 -14 636 -14 z "},"ป":{"ha":908,"x_min":56,"x_max":853,"o":"m 454 -14 q 164 74 272 -14 q 56 329 56 161 l 56 750 l 354 750 l 354 331 q 376 242 354 268 q 454 217 399 217 q 531 243 508 217 q 554 331 554 269 l 554 972 l 853 972 l 853 329 q 744 74 853 161 q 454 -14 636 -14 z "},"ษ":{"ha":926,"x_min":56,"x_max":926,"o":"m 454 -14 q 164 74 272 -14 q 56 329 56 161 l 56 750 l 354 750 l 354 331 q 376 242 354 268 q 454 217 399 217 q 531 243 508 217 q 554 331 554 269 l 554 371 l 453 371 l 453 588 l 554 588 l 554 750 l 853 750 l 853 588 l 926 588 l 908 371 l 853 371 l 853 329 q 744 74 853 161 q 454 -14 636 -14 z "},"ย":{"ha":894,"x_min":28,"x_max":839,"o":"m 435 -14 q 133 54 238 -14 q 28 244 28 122 q 46 327 28 290 q 97 388 64 364 q 49 447 67 410 q 31 532 31 483 q 106 705 31 646 q 321 764 182 764 q 476 740 411 764 l 476 560 q 403 568 435 568 q 353 558 369 568 q 336 524 336 547 q 394 479 336 479 l 460 479 l 464 299 l 393 299 q 333 247 333 299 q 356 206 333 219 q 433 193 378 193 q 513 215 486 193 q 540 279 540 238 l 540 750 l 839 750 l 839 286 q 733 61 839 136 q 435 -14 628 -14 z "},"ผ":{"ha":910,"x_min":56,"x_max":854,"o":"m 56 619 q 85 713 56 676 q 168 750 114 750 l 408 750 l 418 567 l 357 567 q 314 521 314 567 l 314 354 l 408 521 l 501 521 l 596 354 l 596 750 l 854 750 l 854 0 l 600 0 l 454 264 l 310 0 l 56 0 l 56 619 z "},"ฝ":{"ha":910,"x_min":56,"x_max":854,"o":"m 56 619 q 85 713 56 676 q 168 750 114 750 l 408 750 l 418 567 l 357 567 q 314 521 314 567 l 314 354 l 408 521 l 501 521 l 596 354 l 596 972 l 854 972 l 854 0 l 600 0 l 454 264 l 310 0 l 56 0 l 56 619 z "},"ฟ":{"ha":1039,"x_min":14,"x_max":1053,"o":"m 14 750 l 276 750 l 354 408 l 403 593 l 403 750 l 611 750 l 689 408 l 792 972 l 1053 972 l 844 0 l 600 0 l 522 292 l 438 0 l 193 0 l 14 750 z "},"พ":{"ha":1039,"x_min":14,"x_max":1025,"o":"m 14 750 l 276 750 l 354 408 l 403 593 l 403 750 l 611 750 l 689 408 l 764 750 l 1025 750 l 844 0 l 600 0 l 522 292 l 438 0 l 193 0 l 14 750 z "},"ห":{"ha":874,"x_min":56,"x_max":818,"o":"m 56 750 l 354 750 l 354 557 l 446 557 q 502 577 485 557 q 519 638 519 597 l 519 750 l 818 750 l 818 611 q 739 444 818 488 q 817 288 817 404 l 817 0 l 518 0 l 518 246 q 501 307 518 288 q 444 326 485 326 l 354 326 l 354 0 l 56 0 l 56 750 z "},"ฬ":{"ha":1039,"x_min":14,"x_max":1058,"o":"m 14 750 l 276 750 l 354 401 l 408 565 l 408 678 l 606 678 l 689 401 l 726 597 q 732 644 732 621 q 717 689 732 675 q 667 703 701 703 l 632 703 l 660 864 l 711 864 q 771 880 753 864 q 799 938 789 896 l 806 972 l 1058 972 l 1043 904 q 1006 818 1032 850 q 939 772 981 786 q 988 672 988 740 q 979 607 988 643 l 844 0 l 600 0 l 522 268 l 438 0 l 193 0 l 14 750 z "},"อ":{"ha":850,"x_min":42,"x_max":822,"o":"m 397 -14 q 200 4 296 -14 q 42 51 104 22 l 42 451 l 408 451 l 418 269 l 321 269 l 321 203 q 393 193 351 193 q 490 233 463 193 q 517 369 517 274 q 496 481 517 442 q 433 537 475 521 q 319 553 390 553 q 186 543 260 553 q 50 514 113 533 l 50 713 q 217 751 122 738 q 392 764 313 764 q 717 666 613 764 q 822 369 822 568 q 721 81 822 175 q 397 -14 619 -14 z "},"ฮ":{"ha":897,"x_min":42,"x_max":883,"o":"m 397 -14 q 200 4 296 -14 q 42 51 104 22 l 42 451 l 408 451 l 418 269 l 321 269 l 321 203 q 393 193 351 193 q 490 233 463 193 q 517 369 517 274 q 496 481 517 442 q 433 537 475 521 q 319 553 390 553 q 186 543 260 553 q 50 514 113 533 l 50 713 q 217 751 122 738 q 392 764 313 764 q 546 749 474 764 l 546 750 l 883 750 l 868 539 l 786 539 q 822 369 822 471 q 721 81 822 175 q 397 -14 619 -14 z "},"า":{"ha":633,"x_min":0,"x_max":578,"o":"m 294 418 q 269 506 294 479 q 181 532 243 532 q 0 494 90 532 l 0 711 q 110 749 43 733 q 243 764 178 764 q 497 687 415 764 q 578 454 578 610 l 578 0 l 294 0 l 294 418 z "},"ำ":{"ha":635,"x_min":-406,"x_max":579,"o":"m -204 794 q -348 848 -290 794 q -406 983 -406 901 q -348 1119 -406 1067 q -204 1172 -290 1172 q -62 1119 -119 1172 q -4 983 -4 1067 q -62 848 -4 901 q -204 794 -119 794 m -204 935 q -171 950 -186 935 q -156 983 -156 965 q -170 1017 -156 1003 q -204 1032 -185 1032 q -239 1017 -224 1032 q -254 983 -254 1003 q -239 949 -254 964 q -204 935 -224 935 m 294 418 q 269 506 294 479 q 182 532 243 532 q 0 494 90 532 l 0 711 q 112 749 44 733 q 244 764 179 764 q 498 687 417 764 q 579 454 579 610 l 579 0 l 294 0 l 294 418 z "},"ๅ":{"ha":633,"x_min":0,"x_max":578,"o":"m 294 418 q 269 506 294 479 q 181 532 243 532 q 0 494 90 532 l 0 711 q 110 749 43 733 q 243 764 178 764 q 497 687 415 764 q 578 454 578 610 l 578 -222 l 294 -222 l 294 418 z "},"ะ":{"ha":453,"x_min":28,"x_max":425,"o":"m 28 672 l 244 672 l 244 606 l 425 606 l 415 408 l 28 408 l 28 672 m 28 318 l 244 318 l 244 251 l 425 251 l 417 54 l 28 54 l 28 318 z "},"เ":{"ha":472,"x_min":56,"x_max":444,"o":"m 203 0 q 95 40 135 0 q 56 144 56 79 l 56 750 l 357 750 l 357 228 q 396 189 357 189 l 444 189 l 444 0 l 203 0 z "},"แ":{"ha":869,"x_min":56,"x_max":842,"o":"m 203 0 q 95 40 135 0 q 56 144 56 79 l 56 750 l 350 750 l 350 228 q 389 189 350 189 l 431 189 l 431 0 l 203 0 m 614 0 q 507 40 547 0 q 467 144 467 79 l 467 750 l 763 750 l 763 228 q 801 189 763 189 l 842 189 l 842 0 l 614 0 z "},"ไ":{"ha":458,"x_min":-35,"x_max":472,"o":"m 214 0 q 107 40 147 0 q 67 144 67 79 l 67 635 q 80 716 67 678 q 117 775 93 754 l -35 775 l -35 964 l 472 964 l 472 797 q 385 739 413 783 q 358 621 358 694 l 358 228 q 397 189 358 189 l 444 189 l 444 0 l 214 0 z "},"ใ":{"ha":449,"x_min":-42,"x_max":463,"o":"m 179 0 q 72 40 113 0 q 32 144 32 79 l 32 453 q 53 547 32 507 q 110 632 74 586 q 142 677 132 660 q 153 713 153 694 q 138 741 153 731 q 94 751 124 751 q 23 741 58 751 q -42 713 -12 731 l -42 907 q 214 968 61 968 q 397 922 332 968 q 463 786 463 875 q 445 704 463 739 q 392 618 428 669 q 341 539 358 574 q 324 460 324 504 l 324 228 q 363 189 324 189 l 410 189 l 410 0 l 179 0 z "},"โ":{"ha":468,"x_min":-35,"x_max":482,"o":"m 235 0 q 128 40 168 0 q 88 144 88 79 l 88 632 q 58 742 88 703 q -35 797 28 782 l -35 964 l 482 964 l 482 775 l 331 775 q 367 719 354 753 q 379 644 379 686 l 379 228 q 418 189 379 189 l 465 189 l 465 0 l 235 0 z "},"ℊ":{"ha":857,"x_min":28,"x_max":801,"o":"m 332 -244 q 230 -240 296 -244 q 138 -231 164 -236 l 138 -29 q 212 -42 165 -36 q 292 -47 258 -47 q 451 -31 400 -47 q 503 19 503 -14 l 503 31 q 431 6 474 15 q 347 -4 388 -4 q 110 71 193 -4 q 28 317 28 146 q 67 509 28 429 q 179 631 107 589 q 344 672 251 672 q 529 611 451 672 l 543 658 l 801 658 l 801 103 q 692 -153 801 -61 q 332 -244 583 -244 m 422 203 q 503 231 471 203 l 503 426 q 469 450 486 443 q 428 457 451 457 q 355 424 378 457 q 332 318 332 390 q 353 226 332 250 q 422 203 375 203 z "},"⁄":{"ha":303,"x_min":-222,"x_max":525,"o":"m 219 919 l 525 919 l 83 0 l -222 0 l 219 919 z "},"½":{"ha":1000,"x_min":28,"x_max":972,"o":"m 100 708 l 28 694 l 28 851 l 315 908 l 315 514 l 100 514 l 100 708 m 569 894 l 851 894 l 385 0 l 104 0 l 569 894 m 597 78 q 633 116 617 101 q 686 156 650 131 q 737 195 726 183 q 747 222 747 207 q 735 245 747 239 q 696 251 722 251 q 603 226 658 251 l 603 364 q 685 385 635 376 q 785 394 736 394 q 921 361 872 394 q 969 272 969 328 q 958 217 969 239 q 921 171 947 194 q 899 153 910 161 q 878 135 889 144 l 972 135 l 972 0 l 597 0 l 597 78 z "},"⅓":{"ha":1008,"x_min":28,"x_max":981,"o":"m 100 708 l 28 694 l 28 851 l 315 908 l 315 514 l 100 514 l 100 708 m 569 894 l 851 894 l 385 0 l 104 0 l 569 894 m 771 -14 q 680 -7 738 -14 q 600 8 622 0 l 600 119 q 713 96 651 96 q 757 101 743 96 q 771 121 771 107 q 760 138 771 133 q 726 143 750 143 l 658 143 l 665 236 l 724 236 q 755 241 746 236 q 764 258 764 246 q 708 281 764 281 q 653 274 682 281 q 606 257 625 268 l 606 368 q 680 385 629 378 q 771 392 731 392 q 923 359 872 392 q 974 274 974 326 q 938 189 974 221 q 981 111 981 171 q 771 -14 981 -14 z "},"⅔":{"ha":1069,"x_min":28,"x_max":1042,"o":"m 28 592 q 65 631 47 615 q 115 669 82 646 q 167 710 156 699 q 178 736 178 721 q 126 765 178 765 q 33 740 89 765 l 33 878 q 116 899 65 890 q 215 908 167 908 q 351 875 303 908 q 400 786 400 842 q 388 731 400 753 q 350 685 376 708 q 307 649 347 682 l 403 649 l 403 514 l 28 514 l 28 592 m 629 894 l 911 894 l 446 0 l 164 0 l 629 894 m 831 -14 q 739 -8 796 -14 q 660 8 682 -1 l 660 118 q 716 101 685 107 q 772 94 747 94 q 818 100 804 94 q 832 119 832 106 q 821 138 832 132 q 786 143 810 143 l 719 143 l 726 236 l 783 236 q 815 241 806 236 q 825 258 825 246 q 812 274 825 269 q 769 279 799 279 q 714 273 742 279 q 665 257 686 267 l 665 368 q 741 385 690 378 q 831 392 792 392 q 984 358 933 392 q 1035 272 1035 325 q 999 189 1035 218 q 1042 110 1042 168 q 831 -14 1042 -14 z "},"¼":{"ha":968,"x_min":28,"x_max":940,"o":"m 100 708 l 28 694 l 28 851 l 315 908 l 315 514 l 100 514 l 100 708 m 569 894 l 851 894 l 385 0 l 104 0 l 569 894 m 700 53 l 529 53 l 529 175 l 704 394 l 900 394 l 900 183 l 940 183 l 940 53 l 900 53 l 900 0 l 700 0 l 700 53 m 758 178 l 758 260 l 693 178 l 758 178 z "},"¾":{"ha":993,"x_min":28,"x_max":965,"o":"m 199 503 q 107 509 164 503 q 28 525 50 515 l 28 635 q 140 611 79 611 q 185 617 171 611 q 199 636 199 622 q 188 654 199 649 q 154 660 178 660 l 86 660 l 93 753 l 151 753 q 183 758 174 753 q 192 775 192 763 q 178 791 192 786 q 136 796 165 796 q 82 790 110 796 q 33 774 54 783 l 33 885 q 108 901 57 894 q 199 908 158 908 q 351 875 301 908 q 401 789 401 842 q 365 706 401 735 q 398 676 388 694 q 408 626 408 657 q 199 503 408 503 m 594 894 l 876 894 l 410 0 l 129 0 l 594 894 m 725 53 l 554 53 l 554 175 l 729 394 l 925 394 l 925 183 l 965 183 l 965 53 l 925 53 l 925 0 l 725 0 l 725 53 m 783 178 l 783 260 l 718 178 l 783 178 z "},"⅛":{"ha":1004,"x_min":28,"x_max":976,"o":"m 100 708 l 28 694 l 28 851 l 315 908 l 315 514 l 100 514 l 100 708 m 569 894 l 851 894 l 385 0 l 104 0 l 569 894 m 769 -14 q 619 18 675 -14 q 564 110 564 50 q 576 158 564 135 q 608 194 588 182 q 574 269 574 221 q 625 362 574 332 q 769 392 676 392 q 967 269 967 392 q 958 227 967 247 q 932 193 949 207 q 976 110 976 164 q 920 18 976 50 q 769 -14 864 -14 m 783 229 q 804 243 799 235 q 810 267 810 251 q 769 296 810 296 q 731 267 731 296 q 754 236 731 242 l 783 229 m 769 81 q 818 113 818 81 q 811 132 818 125 q 786 143 804 139 l 750 151 q 729 139 736 147 q 722 115 722 131 q 733 89 722 97 q 769 81 744 81 z "},"⅜":{"ha":1028,"x_min":28,"x_max":1000,"o":"m 199 503 q 107 509 164 503 q 28 525 50 515 l 28 635 q 140 611 79 611 q 185 617 171 611 q 199 636 199 622 q 188 654 199 649 q 154 660 178 660 l 86 660 l 93 753 l 151 753 q 183 758 174 753 q 192 775 192 763 q 178 791 192 786 q 136 796 165 796 q 82 790 110 796 q 33 774 54 783 l 33 885 q 108 901 57 894 q 199 908 158 908 q 351 875 301 908 q 401 789 401 842 q 365 706 401 735 q 398 676 388 694 q 408 626 408 657 q 199 503 408 503 m 593 894 l 875 894 l 408 0 l 128 0 l 593 894 m 793 -14 q 643 18 699 -14 q 588 110 588 50 q 599 158 588 135 q 632 194 611 182 q 597 269 597 221 q 649 362 597 332 q 793 392 700 392 q 990 269 990 392 q 981 227 990 247 q 956 193 972 207 q 1000 110 1000 164 q 944 18 1000 50 q 793 -14 888 -14 m 807 229 q 828 243 822 235 q 833 267 833 251 q 793 296 833 296 q 754 267 754 296 q 778 236 754 242 l 807 229 m 793 81 q 842 113 842 81 q 835 132 842 125 q 810 143 828 139 l 774 151 q 753 139 760 147 q 746 115 746 131 q 757 89 746 97 q 793 81 768 81 z "},"⅝":{"ha":1010,"x_min":28,"x_max":982,"o":"m 183 503 q 94 508 138 503 q 28 525 51 514 l 28 639 q 78 624 47 629 q 133 619 108 619 q 192 650 192 619 q 181 672 192 665 q 146 678 171 678 l 29 678 l 29 740 l 39 894 l 372 894 l 367 785 l 215 785 l 214 760 l 247 760 q 360 731 325 760 q 396 639 396 703 q 344 539 396 575 q 183 503 293 503 m 575 894 l 857 894 l 390 0 l 110 0 l 575 894 m 775 -14 q 625 18 681 -14 q 569 110 569 50 q 581 158 569 135 q 614 194 593 182 q 579 269 579 221 q 631 362 579 332 q 775 392 682 392 q 972 269 972 392 q 963 227 972 247 q 938 193 954 207 q 982 110 982 164 q 926 18 982 50 q 775 -14 869 -14 m 789 229 q 810 243 804 235 q 815 267 815 251 q 775 296 815 296 q 736 267 736 296 q 760 236 736 242 l 789 229 m 775 81 q 824 113 824 81 q 817 132 824 125 q 792 143 810 139 l 756 151 q 735 139 742 147 q 728 115 728 131 q 739 89 728 97 q 775 81 750 81 z "},"⅞":{"ha":997,"x_min":28,"x_max":969,"o":"m 183 750 l 28 750 l 28 894 l 408 894 l 408 792 l 286 514 l 81 514 l 183 750 m 561 894 l 843 894 l 378 0 l 96 0 l 561 894 m 763 -14 q 612 18 668 -14 q 556 110 556 50 q 568 158 556 135 q 601 194 581 182 q 565 269 565 222 q 617 362 565 332 q 763 392 668 392 q 908 362 857 392 q 960 269 960 332 q 951 227 960 247 q 925 193 942 207 q 969 110 969 164 q 913 18 969 50 q 763 -14 857 -14 m 776 229 q 797 244 792 236 q 803 267 803 253 q 763 296 803 296 q 722 267 722 296 q 746 236 722 240 l 776 229 m 763 81 q 811 113 811 81 q 803 132 811 125 q 778 143 796 139 l 743 151 q 721 139 728 147 q 714 115 714 131 q 725 89 714 97 q 763 81 736 81 z "},"₀":{"ha":518,"x_min":28,"x_max":490,"o":"m 258 -178 q 28 24 28 -178 q 258 228 28 228 q 490 24 490 228 q 258 -178 490 -178 m 258 -49 q 297 -32 286 -49 q 308 24 308 -15 q 297 81 308 63 q 258 99 286 99 q 220 81 231 99 q 210 24 210 63 q 220 -32 210 -15 q 258 -49 231 -49 z "},"₁":{"ha":315,"x_min":28,"x_max":315,"o":"m 100 28 l 28 14 l 28 171 l 315 228 l 315 -167 l 100 -167 l 100 28 z "},"₂":{"ha":431,"x_min":28,"x_max":403,"o":"m 28 -89 q 65 -50 47 -65 q 115 -11 82 -35 q 167 29 156 18 q 178 56 178 40 q 126 85 178 85 q 33 60 89 85 l 33 197 q 116 219 65 210 q 215 228 167 228 q 351 194 303 228 q 400 106 400 161 q 388 50 400 72 q 350 4 376 28 q 307 -32 347 1 l 403 -32 l 403 -167 l 28 -167 l 28 -89 z "},"₃":{"ha":436,"x_min":28,"x_max":408,"o":"m 199 -178 q 107 -172 164 -178 q 28 -156 50 -165 l 28 -46 q 140 -69 79 -69 q 185 -64 171 -69 q 199 -44 199 -58 q 188 -26 199 -32 q 154 -21 178 -21 l 86 -21 l 93 72 l 151 72 q 183 77 174 72 q 192 94 192 82 q 178 110 192 106 q 136 115 165 115 q 82 109 110 115 q 33 93 54 103 l 33 204 q 108 221 57 214 q 199 228 158 228 q 351 194 301 228 q 401 108 401 161 q 365 25 401 54 q 398 -5 388 14 q 408 -54 408 -24 q 199 -178 408 -178 z "},"₄":{"ha":411,"x_min":0,"x_max":411,"o":"m 169 -114 l 0 -114 l 0 8 l 174 228 l 371 228 l 371 17 l 411 17 l 411 -114 l 371 -114 l 371 -167 l 169 -167 l 169 -114 m 228 11 l 228 93 l 164 11 l 228 11 z "},"₅":{"ha":424,"x_min":28,"x_max":396,"o":"m 183 -178 q 94 -172 138 -178 q 28 -156 51 -167 l 28 -42 q 78 -56 47 -51 q 133 -61 108 -61 q 192 -31 192 -61 q 181 -9 192 -15 q 146 -3 171 -3 l 29 -3 l 29 60 l 39 214 l 372 214 l 367 104 l 215 104 l 214 79 l 247 79 q 360 51 325 79 q 396 -42 396 22 q 344 -142 396 -106 q 183 -178 293 -178 z "},"₆":{"ha":444,"x_min":28,"x_max":417,"o":"m 222 -178 q 81 -135 135 -178 q 28 -15 28 -93 l 28 54 q 83 180 28 132 q 243 228 139 228 q 317 223 281 228 q 376 210 354 218 l 376 106 q 265 125 338 125 q 201 113 225 125 q 178 82 178 100 l 178 79 q 213 94 190 89 q 260 100 236 100 q 378 67 340 100 q 417 -36 417 33 q 367 -142 417 -106 q 222 -178 317 -178 m 224 -81 q 258 -71 247 -81 q 269 -40 269 -61 q 259 -10 269 -19 q 225 0 249 0 q 178 -14 201 0 l 178 -35 q 189 -70 178 -60 q 224 -81 200 -81 z "},"₇":{"ha":408,"x_min":14,"x_max":394,"o":"m 169 69 l 14 69 l 14 214 l 394 214 l 394 111 l 272 -167 l 67 -167 l 169 69 z "}}}
